<svg xmlns="http://www.w3.org/2000/svg" viewBox="0 0 496 496"><path d="M458.344 330.344l-7.032 7.032C441.88 346.808 429.336 352 416 352c-17.84 0-40.568-21.28-64-59.904V240h40c17.616 0 34.168-6.856 46.624-19.312l7.032-7.032-11.312-11.312-7.032 7.032C417.88 218.808 405.336 224 392 224c-17.848 0-40.568-21.28-64-59.912V128h24c17.616 0 34.168-6.856 46.624-19.312l7.032-7.032-11.312-11.312-7.032 7.032C377.88 106.808 365.336 112 352 112c-28.504 0-62.872-51.8-85.528-100.28C263.136 4.6 255.888 0 248 0s-15.136 4.6-18.472 11.728C206.872 60.2 172.504 112 144 112c-13.336 0-25.88-5.192-35.312-14.624l-7.032-7.032-11.312 11.312 7.032 7.032C109.832 121.144 126.384 128 144 128h24v36.088C144.568 202.72 121.848 224 104 224c-13.336 0-25.88-5.192-35.312-14.624l-7.032-7.032-11.312 11.312 7.032 7.032C69.832 233.144 86.384 240 104 240h40v52.088C120.568 330.72 97.848 352 80 352c-13.336 0-25.88-5.192-35.312-14.624l-7.032-7.032-11.312 11.312 7.032 7.032C45.832 361.144 62.384 368 80 368h64v80h-17.472c.896-2.512 1.472-5.184 1.472-8 0-13.232-10.768-24-24-24s-24 10.768-24 24c0 7.064 3.128 13.36 8 17.76V496h320v-38.24c4.872-4.392 8-10.696 8-17.76 0-13.232-10.768-24-24-24s-24 10.768-24 24c0 2.816.576 5.488 1.472 8H352v-80h64c17.616 0 34.168-6.856 46.624-19.312l7.032-7.032-11.312-11.312zm-214.32-311.84c1.448-3.088 6.504-3.08 7.952 0C262.96 42 286.768 87.744 315.52 112H180.48c28.752-24.256 52.56-70 63.544-93.496zM312 128v32h-24v-32h24zm-40 0v32h-16v-32h16zm-32 0v32h-16v-32h16zm-32 0v32h-24v-32h24zm-67.376 96c12.624-10.68 25.584-26.752 38.808-48h137.144c13.224 21.248 26.184 37.32 38.808 48h-214.76zM336 240v48h-16v-48h16zm-64 32v16h-16v-48h16v16h16v-16h16v48h-16v-16h-16zm-32-32v48h-16v-48h16zm-32 0v48h-16v-48h16zm-32 0v48h-16v-48h16zM96 440c0-4.408 3.592-8 8-8s8 3.592 8 8c0 4.408-3.592 8-8 8s-8-3.592-8-8zm296-8c4.408 0 8 3.592 8 8 0 4.408-3.592 8-8 8-4.408 0-8-3.592-8-8 0-4.408 3.592-8 8-8zm0 32v16H104v-16h288zm-232-16v-80h32v80h-32zm80-32v32h-32v-32h32zm-32-16v-32h32v32h-32zm80 16v32h-32v-32h32zm-32-16v-32h32v32h-32zm48 48v-80h32v80h-32zm48-96H116.624c12.624-10.68 25.584-26.752 38.808-48h185.144c13.224 21.248 26.192 37.32 38.808 48H352z"/></svg>