<svg xmlns="http://www.w3.org/2000/svg" viewBox="0 0 496.431 496.431"><path d="M432.215 272.431v-32.64c27.096-3.904 48-27.208 48-55.36 0-30.88-25.12-56-56-56-15.664 0-29.824 6.48-40 16.88v-32.88h48v-50.12c5.816-.976 10.952-1.864 15.256-2.632 14.336-2.552 24.744-14.992 24.744-29.584 0-9.44-4.28-18.144-11.752-23.88-7.432-5.712-16.904-7.6-25.96-5.192-32.808 8.744-100.632 23.408-186.288 23.408S94.735 9.767 61.919 1.023c-9.056-2.408-18.52-.52-25.952 5.192-7.472 5.736-11.752 14.44-11.752 23.88 0 14.592 10.408 27.04 24.744 29.592 4.304.76 9.44 1.656 15.256 2.624v50.12h48v32.88c-10.176-10.4-24.336-16.88-40-16.88-30.88 0-56 25.12-56 56 0 28.152 20.904 51.456 48 55.36v32.64h-64v224h64v-160h48v160h64v-160h144v160h64v-160h48v160h64v-224h-64zm-384 208h-32v-144h32v144zm64-160h-96v-32h96v32zm0-48h-32v-32h32v32zm0-48h-.88c.296-.288.592-.584.88-.88v.88zm-40 0c-22.056 0-40-17.944-40-40s17.944-40 40-40 40 17.944 40 40-17.944 40-40 40zm352-80c22.056 0 40 17.944 40 40s-17.944 40-40 40-40-17.944-40-40 17.945-40 40-40zm-8 96v32h-32v-32h32zm-32-16v-.88c.288.296.584.592.88.88h-.88zM51.767 43.935c-6.696-1.192-11.552-7.016-11.552-13.84 0-4.424 2-8.504 5.504-11.192 2.48-1.904 5.432-2.896 8.464-2.896 1.2 0 2.424.16 3.624.48 33.568 8.944 102.936 23.944 190.408 23.944s156.84-15 190.408-23.952c4.232-1.128 8.624-.232 12.088 2.416 3.504 2.696 5.504 6.768 5.504 11.2 0 6.832-4.856 12.656-11.552 13.84a1537.877 1537.877 0 0 1-26.712 4.496h-1.736v.272c-42.824 6.8-110.072 15.728-168 15.728s-125.184-8.936-168-15.728v-.272h-1.728a1527.62 1527.62 0 0 1-26.72-4.496zm108.448 436.496h-32v-368h32v368zm160-160h-144v-32h144v32zm0-48h-144v-32h144v32zm-144-48v-112h16v112h-16zm32 0v-112h80v112h-80zm112 0h-16v-112h16v112zm48 256h-32v-368h32v368zm-48-384h-240V64.903c43.456 6.824 110.16 15.528 168 15.528 57.832 0 124.544-8.704 168-15.528v31.528h-96zm160 384h-32v-144h32v144zm0-160h-96v-32h96v32z"/><path d="M224.215 128.431h16v16h-16zM256.215 128.431h16v16h-16z"/></svg>