<?xml version="1.0" encoding="iso-8859-1"?>
<!-- Generator: Adobe Illustrator 19.0.0, SVG Export Plug-In . SVG Version: 6.00 Build 0)  -->
<svg xmlns="http://www.w3.org/2000/svg" xmlns:xlink="http://www.w3.org/1999/xlink" version="1.1" id="Capa_1" x="0px" y="0px" viewBox="0 0 496 496" style="enable-background:new 0 0 496 496;" xml:space="preserve">
<g>
	<g>
		<g>
			<path d="M272,200c0,13.232-10.768,24-24,24s-24-10.768-24-24v-8h-16v8c0,22.056,17.944,40,40,40c22.056,0,40-17.944,40-40v-8h-16     V200z"/>
			<path d="M208,168h16v-4c0-15.44-12.56-28-28-28s-28,12.56-28,28v4h16v-4c0-6.616,5.384-12,12-12c6.616,0,12,5.384,12,12V168z"/>
			<path d="M300,136c-15.44,0-28,12.56-28,28v4h16v-4c0-6.616,5.384-12,12-12c6.616,0,12,5.384,12,12v4h16v-4     C328,148.56,315.44,136,300,136z"/>
			<path d="M192,312c21.848,0,42.448-10.024,56-26.752C261.56,301.968,282.152,312,304,312c25.624,0,49.52-13.792,62.36-35.992     L352.512,268c-9.992,17.272-28.584,28-48.512,28c-19.92,0-38.504-10.72-48.504-27.984l-2.264-3.912l-10.36-0.176l-2.36,4.072     c-9.992,17.272-28.584,28-48.512,28c-19.92,0-38.504-10.72-48.504-27.984l-13.84,8.016C142.496,298.216,166.392,312,192,312z"/>
			<rect x="184" y="272" width="16" height="16"/>
			<rect x="296" y="272" width="16" height="16"/>
			<path d="M464,432v-8c0-17.736-5.24-34.616-15.088-49.168l17.424-15.248c8.68-7.6,13.664-18.576,13.664-30.104V296     c0-52.312-38.824-95.728-89.168-102.944c4.96-5.904,8.216-13.192,8.984-21.152c1.072-11.256-2.648-22.488-10.208-30.808     c-1.864-2.048-3.936-3.88-6.152-5.48c5.272-5.224,8.544-12.464,8.544-20.456c0-9.664-4.8-18.632-12.84-24L309.32,44.6     c1.704-3.96,2.68-8.216,2.68-12.6c0-17.648-14.352-32-32-32c-11.736,0-22.392,6.456-27.96,16.48     c-2.696-0.176-5.384-0.176-8.072,0C238.392,6.456,227.736,0,216,0c-17.648,0-32,14.352-32,32c0,4.392,0.984,8.64,2.68,12.6     l-69.84,46.56c-8.04,5.36-12.84,14.336-12.84,24c0,7.992,3.272,15.232,8.544,20.464c-2.216,1.6-4.28,3.432-6.152,5.48     c-7.56,8.32-11.288,19.544-10.208,30.808c0.76,7.96,4.016,15.248,8.984,21.152C54.824,200.272,16,243.688,16,296v33.48     c0,11.528,4.984,22.504,13.664,30.104l17.424,15.248C37.24,389.384,32,406.264,32,424v8c-17.648,0-32,14.352-32,32     s14.352,32,32,32h72c22.056,0,40-17.944,40-40v-24h16v48h176v-48h16v24c0,22.056,17.944,40,40,40h72c17.648,0,32-14.352,32-32     S481.648,432,464,432z M377.76,151.856c4.608,5.064,6.776,11.648,6.12,18.528c-1.008,10.544-9.544,19.088-20.312,21.136     c5.296-15.128,5.632-31.712,1.008-47.04C369.608,145.464,374.256,148.008,377.76,151.856z M280,16c8.824,0,16,7.176,16,16     c0,1.168-0.168,2.32-0.416,3.44l-13.832-9.224c-3.84-2.56-8-4.472-12.264-6.048C272.352,17.624,275.992,16,280,16z M216,16     c4.008,0,7.648,1.624,10.52,4.168c-4.272,1.576-8.432,3.488-12.272,6.048l-13.832,9.224C200.168,34.32,200,33.168,200,32     C200,23.176,207.176,16,216,16z M125.72,104.472l97.408-64.936c14.784-9.848,34.968-9.848,49.752,0l97.4,64.936     c3.584,2.384,5.72,6.376,5.72,10.688c0,7.08-5.76,12.84-12.84,12.84h-5.824c-10.904-18.232-28.544-29.776-49.096-31.704     c-2.096-0.192-4.216-0.296-6.352-0.296c-21.088,0-40.8,9.896-53.888,26.472C234.912,105.896,215.2,96,194.112,96     c-2.144,0-4.256,0.104-6.352,0.296c-20.552,1.928-38.192,13.464-49.096,31.704h-5.824c-7.08,0-12.84-5.76-12.84-12.84     C120,110.856,122.136,106.856,125.72,104.472z M344.6,195.184C331.224,219.28,303.616,248,248,248     c-55.616,0-83.224-28.72-96.6-52.816c-9.6-17.288-9.832-38.88-0.616-56.36c8.104-15.368,22.128-25.064,38.464-26.6     c1.6-0.144,3.224-0.224,4.864-0.224c19.416,0,37.352,11.032,46.832,28.8L248,154.04l7.056-13.24     c9.472-17.768,27.416-28.8,46.832-28.8c1.64,0,3.264,0.08,4.856,0.224c16.336,1.528,30.36,11.224,38.464,26.6     C354.432,156.304,354.192,177.904,344.6,195.184z M118.24,151.856c3.496-3.848,8.152-6.392,13.184-7.376     c-4.624,15.328-4.288,31.912,1.008,47.04c-10.768-2.048-19.304-10.592-20.312-21.136     C111.464,163.504,113.632,156.928,118.24,151.856z M40.2,347.544c-5.208-4.56-8.2-11.144-8.2-18.064V296c0-48.52,39.48-88,88-88     h20.368c16.416,26.656,48.024,56,107.632,56c59.608,0,91.216-29.344,107.632-56H376c48.52,0,88,39.48,88,88v33.48     c0,6.92-2.992,13.504-8.2,18.064l-42.224,36.944c-5.528,4.848-12.632,7.512-19.992,7.512h-3.224     c-16.744,0-30.36-13.616-30.36-30.36c0-8.872,3.864-17.272,10.6-23.048l42.608-36.52l-10.416-12.152l-42.608,36.52     c-3.488,2.992-6.424,6.464-8.84,10.248C344.056,338.864,297.832,352,248,352c-49.832,0-96.056-13.136-103.344-15.304     c-2.416-3.784-5.352-7.264-8.84-10.248l-42.608-36.52L82.792,302.08L125.4,338.6c6.736,5.768,10.6,14.168,10.6,23.04     c0,16.744-13.616,30.36-30.36,30.36h-3.224c-7.36,0-14.464-2.664-19.992-7.512L40.2,347.544z M159.992,416H128v40     c0,13.232-10.768,24-24,24H32c-8.824,0-16-7.176-16-16c0-8.824,7.176-16,16-16h16v-24c0-13.832,3.856-27.056,11.2-38.568     l12.688,11.096c8.448,7.4,19.288,11.472,30.528,11.472h3.224c17.136,0,32.088-9.368,40.112-23.224     c3.144,0.84,8.048,2.088,14.24,3.536V416z M320,416v16v32H176v-72.224c5,1.008,10.36,2.008,16,2.952V448h112v-53.272     c5.64-0.944,11-1.944,16-2.952V416z M208,432v-34.888c13.04,1.704,26.752,2.888,40,2.888s26.96-1.184,40-2.888V432H208z M248,384     c-38.152,0-82.136-10.544-96.744-14.336c0.456-2.608,0.744-5.28,0.744-8.024c0-2.184-0.208-4.336-0.512-6.472     C170.272,359.992,207.536,368,248,368s77.728-8.008,96.512-12.832c-0.304,2.136-0.512,4.288-0.512,6.472     c0,2.744,0.288,5.416,0.744,8.024C330.152,373.464,286.208,384,248,384z M464,480h-72c-13.232,0-24-10.768-24-24v-40h-32v-27.696     c6.192-1.44,11.096-2.696,14.24-3.536C358.272,398.632,373.224,408,390.36,408h3.224c11.24,0,22.08-4.072,30.528-11.472     l12.688-11.096C444.144,396.944,448,410.168,448,424v24h16c8.824,0,16,7.176,16,16C480,472.824,472.824,480,464,480z"/>
		</g>
	</g>
</g>
<g>
</g>
<g>
</g>
<g>
</g>
<g>
</g>
<g>
</g>
<g>
</g>
<g>
</g>
<g>
</g>
<g>
</g>
<g>
</g>
<g>
</g>
<g>
</g>
<g>
</g>
<g>
</g>
<g>
</g>
</svg>
