<svg xmlns="http://www.w3.org/2000/svg" viewBox="0 0 496 496"><path d="M272 200c0 13.232-10.768 24-24 24s-24-10.768-24-24v-8h-16v8c0 22.056 17.944 40 40 40s40-17.944 40-40v-8h-16v8zM208 168h16v-4c0-15.44-12.56-28-28-28s-28 12.56-28 28v4h16v-4c0-6.616 5.384-12 12-12s12 5.384 12 12v4zM300 136c-15.44 0-28 12.56-28 28v4h16v-4c0-6.616 5.384-12 12-12s12 5.384 12 12v4h16v-4c0-15.44-12.56-28-28-28zM192 312c21.848 0 42.448-10.024 56-26.752C261.56 301.968 282.152 312 304 312c25.624 0 49.52-13.792 62.36-35.992L352.512 268c-9.992 17.272-28.584 28-48.512 28-19.92 0-38.504-10.72-48.504-27.984l-2.264-3.912-10.36-.176-2.36 4.072c-9.992 17.272-28.584 28-48.512 28-19.92 0-38.504-10.72-48.504-27.984l-13.84 8.016C142.496 298.216 166.392 312 192 312z"/><path d="M184 272h16v16h-16zM296 272h16v16h-16z"/><path d="M464 432v-8c0-17.736-5.24-34.616-15.088-49.168l17.424-15.248A40.025 40.025 0 0 0 480 329.48V296c0-52.312-38.824-95.728-89.168-102.944 4.96-5.904 8.216-13.192 8.984-21.152 1.072-11.256-2.648-22.488-10.208-30.808a39.894 39.894 0 0 0-6.152-5.48c5.272-5.224 8.544-12.464 8.544-20.456a28.8 28.8 0 0 0-12.84-24L309.32 44.6c1.704-3.96 2.68-8.216 2.68-12.6 0-17.648-14.352-32-32-32-11.736 0-22.392 6.456-27.96 16.48a61.768 61.768 0 0 0-8.072 0C238.392 6.456 227.736 0 216 0c-17.648 0-32 14.352-32 32 0 4.392.984 8.64 2.68 12.6l-69.84 46.56a28.79 28.79 0 0 0-12.84 24c0 7.992 3.272 15.232 8.544 20.464a40.269 40.269 0 0 0-6.152 5.48c-7.56 8.32-11.288 19.544-10.208 30.808.76 7.96 4.016 15.248 8.984 21.152C54.824 200.272 16 243.688 16 296v33.48a40.025 40.025 0 0 0 13.664 30.104l17.424 15.248C37.24 389.384 32 406.264 32 424v8c-17.648 0-32 14.352-32 32s14.352 32 32 32h72c22.056 0 40-17.944 40-40v-24h16v48h176v-48h16v24c0 22.056 17.944 40 40 40h72c17.648 0 32-14.352 32-32s-14.352-32-32-32zm-86.24-280.144c4.608 5.064 6.776 11.648 6.12 18.528-1.008 10.544-9.544 19.088-20.312 21.136 5.296-15.128 5.632-31.712 1.008-47.04 5.032.984 9.68 3.528 13.184 7.376zM280 16c8.824 0 16 7.176 16 16 0 1.168-.168 2.32-.416 3.44l-13.832-9.224c-3.84-2.56-8-4.472-12.264-6.048C272.352 17.624 275.992 16 280 16zm-64 0c4.008 0 7.648 1.624 10.52 4.168-4.272 1.576-8.432 3.488-12.272 6.048l-13.832 9.224c-.248-1.12-.416-2.272-.416-3.44 0-8.824 7.176-16 16-16zm-90.28 88.472l97.408-64.936c14.784-9.848 34.968-9.848 49.752 0l97.4 64.936A12.8 12.8 0 0 1 376 115.16c0 7.08-5.76 12.84-12.84 12.84h-5.824c-10.904-18.232-28.544-29.776-49.096-31.704a69.636 69.636 0 0 0-6.352-.296c-21.088 0-40.8 9.896-53.888 26.472C234.912 105.896 215.2 96 194.112 96c-2.144 0-4.256.104-6.352.296-20.552 1.928-38.192 13.464-49.096 31.704h-5.824c-7.08 0-12.84-5.76-12.84-12.84a12.81 12.81 0 0 1 5.72-10.688zm218.88 90.712C331.224 219.28 303.616 248 248 248c-55.616 0-83.224-28.72-96.6-52.816-9.6-17.288-9.832-38.88-.616-56.36 8.104-15.368 22.128-25.064 38.464-26.6 1.6-.144 3.224-.224 4.864-.224 19.416 0 37.352 11.032 46.832 28.8L248 154.04l7.056-13.24c9.472-17.768 27.416-28.8 46.832-28.8 1.64 0 3.264.08 4.856.224 16.336 1.528 30.36 11.224 38.464 26.6 9.224 17.48 8.984 39.08-.608 56.36zm-226.36-43.328c3.496-3.848 8.152-6.392 13.184-7.376-4.624 15.328-4.288 31.912 1.008 47.04-10.768-2.048-19.304-10.592-20.312-21.136-.656-6.88 1.512-13.456 6.12-18.528zM40.2 347.544A24.015 24.015 0 0 1 32 329.48V296c0-48.52 39.48-88 88-88h20.368c16.416 26.656 48.024 56 107.632 56 59.608 0 91.216-29.344 107.632-56H376c48.52 0 88 39.48 88 88v33.48c0 6.92-2.992 13.504-8.2 18.064l-42.224 36.944A30.308 30.308 0 0 1 393.584 392h-3.224c-16.744 0-30.36-13.616-30.36-30.36a30.327 30.327 0 0 1 10.6-23.048l42.608-36.52-10.416-12.152-42.608 36.52c-3.488 2.992-6.424 6.464-8.84 10.248C344.056 338.864 297.832 352 248 352c-49.832 0-96.056-13.136-103.344-15.304-2.416-3.784-5.352-7.264-8.84-10.248l-42.608-36.52-10.416 12.152L125.4 338.6a30.298 30.298 0 0 1 10.6 23.04c0 16.744-13.616 30.36-30.36 30.36h-3.224a30.308 30.308 0 0 1-19.992-7.512L40.2 347.544zM159.992 416H128v40c0 13.232-10.768 24-24 24H32c-8.824 0-16-7.176-16-16s7.176-16 16-16h16v-24c0-13.832 3.856-27.056 11.2-38.568l12.688 11.096A46.307 46.307 0 0 0 102.416 408h3.224c17.136 0 32.088-9.368 40.112-23.224 3.144.84 8.048 2.088 14.24 3.536V416zM320 416v48H176v-72.224c5 1.008 10.36 2.008 16 2.952V448h112v-53.272c5.64-.944 11-1.944 16-2.952V416zm-112 16v-34.888c13.04 1.704 26.752 2.888 40 2.888s26.96-1.184 40-2.888V432h-80zm40-48c-38.152 0-82.136-10.544-96.744-14.336.456-2.608.744-5.28.744-8.024 0-2.184-.208-4.336-.512-6.472C170.272 359.992 207.536 368 248 368s77.728-8.008 96.512-12.832c-.304 2.136-.512 4.288-.512 6.472 0 2.744.288 5.416.744 8.024C330.152 373.464 286.208 384 248 384zm216 96h-72c-13.232 0-24-10.768-24-24v-40h-32v-27.696a459.537 459.537 0 0 0 14.24-3.536C358.272 398.632 373.224 408 390.36 408h3.224c11.24 0 22.08-4.072 30.528-11.472l12.688-11.096C444.144 396.944 448 410.168 448 424v24h16c8.824 0 16 7.176 16 16s-7.176 16-16 16z"/></svg>