<svg xmlns="http://www.w3.org/2000/svg" viewBox="0 0 496 496"><path d="M248 64h248V16H264V0h-16v16h-16V0h-16v16h-16V0h-16v16h-16V0h-16v16h-16V0h-16v16H88c-13.232 0-24 10.768-24 24s10.768 24 24 24h32v16H88c-13.232 0-24 10.768-24 24s10.768 24 24 24h32v72H0v128c0 52.128 33.464 96.472 80 113v55h272v-55c46.536-16.528 80-60.872 80-113V200H200v-72h16v16h16v-16h16v16h16v-16h232V80H232V64h16zm16-32h216v16H264V32zm-32 0h16v16h-16V32zm-64 0h16v16h-16V32zm0 32h16v16h-16V64zm0 32h16v16h-16V96zm-32-64h16v16h-16V32zm0 32h16v16h-16V64zm0 32h16v16h-16V96zm0 32h16v16h16v-16h16v72h-16v-40h-16v40h-16v-72zM88 48c-4.416 0-8-3.592-8-8s3.584-8 8-8h32v16H88zm0 64c-4.416 0-8-3.592-8-8s3.584-8 8-8h32v16H88zm248 368H96v-34.416A120.476 120.476 0 0 0 120 448h192c8.216 0 16.24-.84 24-2.416V480zm80-264v96h-32v16h32c0 57.344-46.656 104-104 104H120c-57.344 0-104-46.656-104-104h352v-16H16v-96h400zM216 112h-16V96h16v16zm0-32h-16V64h16v16zm0-32h-16V32h16v16zm48 48h216v16H264V96zm-16 0v16h-16V96h16z"/><path d="M64 296c17.648 0 32-14.352 32-32 0-8.824 7.176-16 16-16s16 7.176 16 16-7.176 16-16 16v16c17.648 0 32-14.352 32-32s-14.352-32-32-32-32 14.352-32 32c0 8.824-7.176 16-16 16s-16-7.176-16-16 7.176-16 16-16v-16c-17.648 0-32 14.352-32 32s14.352 32 32 32zM192 296c17.648 0 32-14.352 32-32 0-8.824 7.176-16 16-16s16 7.176 16 16-7.176 16-16 16v16c17.648 0 32-14.352 32-32s-14.352-32-32-32-32 14.352-32 32c0 8.824-7.176 16-16 16s-16-7.176-16-16 7.176-16 16-16v-16c-17.648 0-32 14.352-32 32s14.352 32 32 32zM320 296c17.648 0 32-14.352 32-32 0-8.824 7.176-16 16-16s16 7.176 16 16-7.176 16-16 16v16c17.648 0 32-14.352 32-32s-14.352-32-32-32-32 14.352-32 32c0 8.824-7.176 16-16 16s-16-7.176-16-16 7.176-16 16-16v-16c-17.648 0-32 14.352-32 32s14.352 32 32 32z"/></svg>