<?xml version="1.0" encoding="iso-8859-1"?>
<!-- Generator: Adobe Illustrator 19.0.0, SVG Export Plug-In . SVG Version: 6.00 Build 0)  -->
<svg xmlns="http://www.w3.org/2000/svg" xmlns:xlink="http://www.w3.org/1999/xlink" version="1.1" id="Capa_1" x="0px" y="0px" viewBox="0 0 496 496" style="enable-background:new 0 0 496 496;" xml:space="preserve">
<g>
	<g>
		<g>
			<path d="M248,64h16h232V16H264V0h-16v16h-16V0h-16v16h-16V0h-16v16h-16V0h-16v16h-16V0h-16v16H88c-13.232,0-24,10.768-24,24     s10.768,24,24,24h32v16H88c-13.232,0-24,10.768-24,24s10.768,24,24,24h32v72H0v128c0,52.128,33.464,96.472,80,113v55h272v-55     c46.536-16.528,80-60.872,80-113V200H200v-72h16v16h16v-16h16v16h16v-16h232V80H264h-16h-16V64H248z M264,32h216v16H264V32z      M232,32h16v16h-16V32z M168,32h16v16h-16V32z M168,64h16v16h-16V64z M168,96h16v16h-16V96z M136,32h16v16h-16V32z M136,64h16v16     h-16V64z M136,96h16v16h-16V96z M136,128h16v16h16v-16h16v72h-16v-40h-16v40h-16V128z M88,48c-4.416,0-8-3.592-8-8s3.584-8,8-8     h32v16H88z M88,112c-4.416,0-8-3.592-8-8s3.584-8,8-8h32v16H88z M336,480H96v-34.416c7.76,1.576,15.784,2.416,24,2.416h192     c8.216,0,16.24-0.84,24-2.416V480z M416,216v96h-32v16h32c0,57.344-46.656,104-104,104H120c-57.344,0-104-46.656-104-104h352v-16     H16v-96H416z M216,112h-16V96h16V112z M216,80h-16V64h16V80z M216,48h-16V32h16V48z M264,96h216v16H264V96z M248,96v16h-16V96     H248z"/>
			<path d="M64,296c17.648,0,32-14.352,32-32c0-8.824,7.176-16,16-16c8.824,0,16,7.176,16,16c0,8.824-7.176,16-16,16v16     c17.648,0,32-14.352,32-32s-14.352-32-32-32s-32,14.352-32,32c0,8.824-7.176,16-16,16s-16-7.176-16-16c0-8.824,7.176-16,16-16     v-16c-17.648,0-32,14.352-32,32S46.352,296,64,296z"/>
			<path d="M192,296c17.648,0,32-14.352,32-32c0-8.824,7.176-16,16-16c8.824,0,16,7.176,16,16c0,8.824-7.176,16-16,16v16     c17.648,0,32-14.352,32-32s-14.352-32-32-32s-32,14.352-32,32c0,8.824-7.176,16-16,16c-8.824,0-16-7.176-16-16     c0-8.824,7.176-16,16-16v-16c-17.648,0-32,14.352-32,32S174.352,296,192,296z"/>
			<path d="M320,296c17.648,0,32-14.352,32-32c0-8.824,7.176-16,16-16c8.824,0,16,7.176,16,16c0,8.824-7.176,16-16,16v16     c17.648,0,32-14.352,32-32s-14.352-32-32-32s-32,14.352-32,32c0,8.824-7.176,16-16,16c-8.824,0-16-7.176-16-16     c0-8.824,7.176-16,16-16v-16c-17.648,0-32,14.352-32,32S302.352,296,320,296z"/>
		</g>
	</g>
</g>
<g>
</g>
<g>
</g>
<g>
</g>
<g>
</g>
<g>
</g>
<g>
</g>
<g>
</g>
<g>
</g>
<g>
</g>
<g>
</g>
<g>
</g>
<g>
</g>
<g>
</g>
<g>
</g>
<g>
</g>
</svg>
