<?xml version="1.0" encoding="iso-8859-1"?>
<!-- Generator: Adobe Illustrator 19.0.0, SVG Export Plug-In . SVG Version: 6.00 Build 0)  -->
<svg xmlns="http://www.w3.org/2000/svg" xmlns:xlink="http://www.w3.org/1999/xlink" version="1.1" id="Capa_1" x="0px" y="0px" viewBox="0 0 495.95 495.95" style="enable-background:new 0 0 495.95 495.95;" xml:space="preserve">
<g>
	<g>
		<g>
			<path d="M408.391,198.486c-6.744-10.224-9.792-22.656-8.816-35.944c2.448-32.992-6.68-65.272-27.136-95.952     c-21.128-31.704-52.032-53.784-87.008-62.16c-46.768-11.192-94.68-0.944-131.52,28.104     C117.095,61.582,95.975,105.11,95.975,151.95c0,3.616,0.144,7.2,0.408,10.76c0.984,13.088-2.176,25.632-9.144,36.256     c-21.72,33.168-32.496,71.752-31.152,111.568c2.904,86.856,65.616,160.576,147.968,180.168c3.528,2.048,7.408,3.112,11.28,3.112     c0.776,0,1.528-0.184,2.296-0.264c5.976,0.96,12.048,1.648,18.184,2.024c4.128,0.256,8.232,0.376,12.312,0.376     c10.048,0,19.92-0.96,29.664-2.464c0.936,0.12,1.864,0.328,2.808,0.328c3.832,0,7.664-1.032,11.152-3.032     c32.528-7.544,62.64-23.36,87.712-46.936c38.456-36.144,60.512-87.136,60.512-139.896     C439.975,266.294,429.055,229.822,408.391,198.486z M417.087,301.806c-0.408,0.136-0.832,0.224-1.264,0.28l-32.576,3.824     l-0.888-2.736l28.592-16.056c0.376-0.208,0.776-0.384,1.184-0.52c3.432-1.128,7.152,0.768,8.264,4.208l0.888,2.744     C422.407,296.982,420.511,300.686,417.087,301.806z M399.367,352.766c0.328,0.304,0.616,0.64,0.848,0.952     c1.024,1.416,1.448,3.152,1.168,4.88c-0.272,1.728-1.2,3.248-2.632,4.288l-2.32,1.688c-2.912,2.136-7.04,1.48-9.168-1.456     c-0.256-0.36-0.488-0.744-0.656-1.112l-13.696-29.792l2.336-1.696L399.367,352.766z M403.263,221.31     c8.4,15.728,14.288,32.56,17.568,50.024c-4.304-1.336-9.032-1.448-13.64,0.04c-1.416,0.464-2.784,1.056-4.08,1.784     l-25.264,14.184l5.688-28.416c0.288-1.456,0.44-2.936,0.44-4.416c0-7.136-3.4-13.44-8.592-17.576     C387.631,231.142,396.951,225.558,403.263,221.31z M112.335,161.518c-0.232-3.16-0.36-6.352-0.36-9.568     c0-41.912,18.896-80.856,51.848-106.848c24.192-19.088,53.784-29.096,84.4-29.096c11.096,0,22.32,1.312,33.48,3.992     c31.048,7.432,58.544,27.136,77.432,55.472c18.688,28.032,26.696,56.136,24.496,85.904c-1.24,16.832,2.704,32.712,11.408,45.92     c0.032,0.048,0.064,0.104,0.096,0.16c-12.624,8.528-40.936,24.784-83.672,33.912c28.864-22.192,48.512-58.304,48.512-97.416v-56     h-16v24h-40v-24h-16v24h-32v-24h-16v24h-32v-24h-16v24h-40v-24h-16v56c0,39.088,19.616,75.168,48.464,97.36     c-42.608-9.144-70.968-25.392-83.616-33.896C109.591,193.878,113.575,178.022,112.335,161.518z M367.847,255.798l-6.424,32.152     h-2.896l-6.432-32.152c-0.08-0.424-0.12-0.856-0.12-1.288c0-3.616,2.936-6.56,6.552-6.56h2.888c3.624,0,6.56,2.944,6.56,6.56     C367.975,254.942,367.935,255.374,367.847,255.798z M367.975,311.95c0,4.408-3.584,8-8,8c-4.416,0-8-3.592-8-8     c0-4.408,3.584-8,8-8C364.391,303.95,367.975,307.542,367.975,311.95z M344.703,330.534l2.336,1.68l-13.68,29.752     c-0.184,0.408-0.416,0.792-0.672,1.16c-2.136,2.928-6.24,3.584-9.16,1.456l-2.336-1.696c-1.424-1.032-2.352-2.552-2.624-4.28     c-0.28-1.728,0.144-3.464,1.136-4.832c0.264-0.352,0.552-0.696,0.896-1.008L344.703,330.534z M336.711,305.902l-32.592-3.824     c-0.424-0.048-0.84-0.144-1.24-0.272c-3.44-1.12-5.328-4.824-4.208-8.264l0.888-2.744c0.896-2.768,3.48-4.528,6.24-4.528     c0.672,0,1.352,0.104,2.024,0.32c0.416,0.136,0.816,0.312,1.184,0.52l28.592,16.056L336.711,305.902z M247.975,247.95     c-51.144,0-96-48.6-96-104v-16h192v16C343.975,199.35,299.119,247.95,247.975,247.95z M175.367,352.766     c0.328,0.304,0.616,0.64,0.848,0.952c1.024,1.416,1.448,3.152,1.168,4.88c-0.272,1.728-1.2,3.248-2.632,4.288l-2.32,1.688     c-2.912,2.136-7.04,1.48-9.168-1.456c-0.256-0.36-0.488-0.744-0.656-1.112l-13.696-29.792l2.336-1.696L175.367,352.766z      M158.351,303.166l28.592-16.056c0.376-0.208,0.776-0.384,1.184-0.52c3.432-1.128,7.152,0.768,8.264,4.208l0.888,2.744     c1.12,3.44-0.776,7.144-4.2,8.264c-0.408,0.136-0.832,0.224-1.264,0.28l-32.576,3.824L158.351,303.166z M143.847,255.79     l-6.424,32.16h-2.888l-6.432-32.152c-0.088-0.424-0.128-0.856-0.128-1.288c0-3.616,2.936-6.56,6.552-6.56h2.888     c3.624,0,6.56,2.944,6.56,6.56C143.975,254.942,143.935,255.374,143.847,255.79z M143.975,311.95c0,4.408-3.584,8-8,8     s-8-3.592-8-8c0-4.408,3.584-8,8-8S143.975,307.542,143.975,311.95z M123.039,332.222l-13.68,29.752     c-0.184,0.408-0.416,0.792-0.672,1.16c-2.136,2.928-6.232,3.584-9.16,1.456l-2.336-1.696c-1.424-1.032-2.352-2.552-2.624-4.28     c-0.28-1.744,0.144-3.48,1.136-4.848c0.264-0.352,0.552-0.696,0.896-1.008l24.104-22.232L123.039,332.222z M92.663,221.302     c6.312,4.248,15.632,9.832,27.904,15.632c-5.192,4.136-8.592,10.432-8.592,17.576c0,1.48,0.152,2.96,0.44,4.424l5.688,28.408     l-25.264-14.184c-1.296-0.728-2.664-1.328-4.08-1.784c-4.624-1.504-9.384-1.376-13.712,0     C78.319,253.902,84.239,237.07,92.663,221.302z M74.671,293.542l0.888-2.744c0.896-2.768,3.48-4.528,6.24-4.528     c0.672,0,1.352,0.104,2.024,0.32c0.416,0.136,0.816,0.312,1.184,0.52l28.592,16.056l-0.888,2.736l-32.592-3.824     c-0.424-0.048-0.84-0.144-1.24-0.272C75.439,300.686,73.551,296.982,74.671,293.542z M82.799,344.31     c-1.816,2.488-3.056,5.272-3.728,8.184c-3.392-11.608-5.584-23.664-6.464-36.056c0.448,0.176,0.856,0.432,1.32,0.584     c1.424,0.464,2.872,0.784,4.344,0.952l28.776,3.376l-21.272,19.624C84.679,341.982,83.703,343.078,82.799,344.31z      M221.359,473.974c-0.184,0.408-0.416,0.792-0.672,1.16c-0.76,1.04-1.808,1.688-2.928,2.128c-2.512-0.44-4.976-1.008-7.448-1.56     l-1.12-0.824c-1.424-1.032-2.352-2.552-2.624-4.28c-0.28-1.728,0.144-3.464,1.136-4.832c0.264-0.352,0.552-0.696,0.896-1.008     l24.104-22.232l2.336,1.696L221.359,473.974z M224.711,417.902l-32.592-3.824c-0.424-0.048-0.84-0.144-1.24-0.272     c-3.44-1.12-5.328-4.824-4.208-8.264l0.888-2.744c0.896-2.768,3.48-4.528,6.24-4.528c0.672,0,1.352,0.104,2.024,0.32     c0.416,0.136,0.816,0.312,1.184,0.52l28.592,16.056L224.711,417.902z M236.807,479.606c-0.144-0.008-0.28-0.04-0.416-0.048     l11.584-25.184l11.568,25.152C252.039,480.006,244.463,480.078,236.807,479.606z M247.975,415.95c4.416,0,8,3.592,8,8     c0,4.408-3.584,8-8,8c-4.416,0-8-3.592-8-8C239.975,419.542,243.559,415.95,247.975,415.95z M239.975,366.51     c0-3.616,2.936-6.56,6.552-6.56h2.888c3.624,0,6.56,2.944,6.56,6.56c0,0.432-0.04,0.864-0.128,1.288l-6.424,32.152h-2.896     l-6.432-32.152C240.015,367.374,239.975,366.942,239.975,366.51z M289.383,470.598c-0.272,1.728-1.208,3.248-2.632,4.288     l-1.528,1.112c-2.272,0.488-4.552,0.928-6.848,1.32c-1.192-0.432-2.312-1.096-3.112-2.2c-0.256-0.36-0.488-0.744-0.656-1.112     l-13.696-29.792l2.336-1.696l24.12,22.248c0.328,0.304,0.616,0.64,0.848,0.952C289.239,467.134,289.663,468.87,289.383,470.598z      M270.351,415.166l28.592-16.056c0.376-0.208,0.776-0.384,1.184-0.52c3.432-1.128,7.152,0.768,8.264,4.208l0.888,2.744     c1.12,3.44-0.776,7.144-4.2,8.264c-0.408,0.136-0.832,0.224-1.264,0.28l-32.576,3.824L270.351,415.166z M368.511,432.198     c-18.496,17.392-39.96,30.248-63.168,38.224c0.2-5.04-1.184-9.976-4.224-14.152c-0.872-1.192-1.848-2.288-2.928-3.28     l-21.288-19.64l28.76-3.376c1.488-0.168,2.936-0.496,4.368-0.952c11.824-3.848,18.32-16.6,14.48-28.424l-0.888-2.744     c-3.84-11.832-16.592-18.312-28.424-14.488c-1.416,0.464-2.784,1.056-4.08,1.784l-25.264,14.184l5.688-28.416     c0.28-1.448,0.432-2.928,0.432-4.408c0-12.44-10.12-22.56-22.552-22.56h-2.888c-12.44,0-22.56,10.12-22.56,22.56     c0,1.48,0.152,2.96,0.44,4.424l5.688,28.408l-25.264-14.184c-1.296-0.728-2.664-1.328-4.08-1.784     c-11.808-3.832-24.576,2.656-28.424,14.488l-0.888,2.744c-3.84,11.832,2.656,24.576,14.488,28.424     c1.424,0.464,2.872,0.784,4.344,0.952l28.776,3.376l-21.272,19.624c-1.096,1-2.072,2.104-2.976,3.336     c-2.96,4.072-4.352,8.912-4.208,13.864c-45.768-16.04-83.168-50.712-103.048-94.568c0.088,0.064,0.152,0.144,0.24,0.208     l2.336,1.696c4,2.904,8.632,4.296,13.224,4.296c6.984,0,13.872-3.224,18.28-9.288c0.864-1.184,1.608-2.464,2.248-3.84     l12.096-26.312l12.12,26.352c0.624,1.336,1.368,2.616,2.232,3.8c4.408,6.064,11.296,9.288,18.272,9.288     c4.6,0,9.24-1.4,13.24-4.304l2.32-1.688c4.872-3.544,8.08-8.768,9.024-14.72c0.944-5.952-0.488-11.92-4.064-16.832     c-0.872-1.192-1.848-2.288-2.928-3.28l-21.288-19.64l28.76-3.376c1.488-0.168,2.936-0.496,4.368-0.952     c11.824-3.848,18.32-16.6,14.48-28.424l-0.888-2.744c-3.84-11.832-16.592-18.312-28.424-14.488     c-1.416,0.464-2.784,1.056-4.08,1.784l-25.264,14.184l5.688-28.416c0.28-1.448,0.432-2.928,0.432-4.408     c0-0.968-0.168-1.888-0.288-2.824c24.056,7.04,53.472,12.264,88.288,12.264s64.232-5.224,88.288-12.264     c-0.12,0.936-0.288,1.856-0.288,2.824c0,1.48,0.152,2.96,0.44,4.424l5.688,28.408l-25.264-14.184     c-1.296-0.728-2.664-1.328-4.08-1.784c-11.816-3.832-24.576,2.656-28.424,14.488l-0.888,2.744     c-3.84,11.832,2.656,24.576,14.488,28.424c1.424,0.464,2.872,0.784,4.344,0.952l28.776,3.376l-21.272,19.624     c-1.096,1-2.072,2.104-2.976,3.336c-3.544,4.872-4.976,10.84-4.032,16.792c0.944,5.952,4.152,11.176,9.016,14.712l2.336,1.696     c4,2.904,8.632,4.296,13.224,4.296c6.984,0,13.872-3.224,18.28-9.288c0.864-1.184,1.608-2.464,2.248-3.84l12.096-26.312     l12.12,26.352c0.624,1.336,1.368,2.616,2.232,3.8c4.408,6.064,11.296,9.288,18.272,9.288c4.6,0,9.24-1.4,13.24-4.304l2.32-1.688     c0.36-0.264,0.648-0.6,0.992-0.88C399.775,396.238,386.095,415.662,368.511,432.198z M413.127,344.27     c-0.872-1.192-1.848-2.288-2.928-3.28l-21.288-19.64l28.76-3.376c1.488-0.168,2.936-0.496,4.368-0.952     c0.52-0.168,0.968-0.448,1.464-0.648c-0.872,12.648-3.064,24.992-6.512,36.912C416.367,350.086,415.119,347.006,413.127,344.27z"/>
			<rect x="287.975" y="143.95" width="16" height="16"/>
			<rect x="191.975" y="143.95" width="16" height="16"/>
			<path d="M255.975,207.95h-16c-17.648,0-32-14.352-32-32h-16c0,26.472,21.528,48,48,48h16c26.472,0,48-21.528,48-48h-16     C287.975,193.598,273.623,207.95,255.975,207.95z"/>
		</g>
	</g>
</g>
<g>
</g>
<g>
</g>
<g>
</g>
<g>
</g>
<g>
</g>
<g>
</g>
<g>
</g>
<g>
</g>
<g>
</g>
<g>
</g>
<g>
</g>
<g>
</g>
<g>
</g>
<g>
</g>
<g>
</g>
</svg>
