<svg xmlns="http://www.w3.org/2000/svg" viewBox="0 0 495.95 495.95"><path d="M408.391 198.486c-6.744-10.224-9.792-22.656-8.816-35.944 2.448-32.992-6.68-65.272-27.136-95.952-21.128-31.704-52.032-53.784-87.008-62.16-46.768-11.192-94.68-.944-131.52 28.104-36.816 29.048-57.936 72.576-57.936 119.416 0 3.616.144 7.2.408 10.76.984 13.088-2.176 25.632-9.144 36.256-21.72 33.168-32.496 71.752-31.152 111.568 2.904 86.856 65.616 160.576 147.968 180.168 3.528 2.048 7.408 3.112 11.28 3.112.776 0 1.528-.184 2.296-.264a186.67 186.67 0 0 0 18.184 2.024c4.128.256 8.232.376 12.312.376 10.048 0 19.92-.96 29.664-2.464.936.12 1.864.328 2.808.328 3.832 0 7.664-1.032 11.152-3.032 32.528-7.544 62.64-23.36 87.712-46.936 38.456-36.144 60.512-87.136 60.512-139.896 0-37.656-10.92-74.128-31.584-105.464zm8.696 103.32a6.723 6.723 0 0 1-1.264.28l-32.576 3.824-.888-2.736 28.592-16.056a7.09 7.09 0 0 1 1.184-.52c3.432-1.128 7.152.768 8.264 4.208l.888 2.744c1.12 3.432-.776 7.136-4.2 8.256zm-17.72 50.96a6.511 6.511 0 0 1 2.016 5.832 6.51 6.51 0 0 1-2.632 4.288l-2.32 1.688c-2.912 2.136-7.04 1.48-9.168-1.456a6.97 6.97 0 0 1-.656-1.112l-13.696-29.792 2.336-1.696 24.12 22.248zm3.896-131.456a174.342 174.342 0 0 1 17.568 50.024c-4.304-1.336-9.032-1.448-13.64.04a22.85 22.85 0 0 0-4.08 1.784l-25.264 14.184 5.688-28.416c.288-1.456.44-2.936.44-4.416 0-7.136-3.4-13.44-8.592-17.576 12.248-5.792 21.568-11.376 27.88-15.624zm-290.928-59.792c-.232-3.16-.36-6.352-.36-9.568 0-41.912 18.896-80.856 51.848-106.848 24.192-19.088 53.784-29.096 84.4-29.096 11.096 0 22.32 1.312 33.48 3.992 31.048 7.432 58.544 27.136 77.432 55.472 18.688 28.032 26.696 56.136 24.496 85.904-1.24 16.832 2.704 32.712 11.408 45.92.032.048.064.104.096.16-12.624 8.528-40.936 24.784-83.672 33.912 28.864-22.192 48.512-58.304 48.512-97.416v-56h-16v24h-40v-24h-16v24h-32v-24h-16v24h-32v-24h-16v24h-40v-24h-16v56c0 39.088 19.616 75.168 48.464 97.36-42.608-9.144-70.968-25.392-83.616-33.896 8.768-13.536 12.752-29.392 11.512-45.896zm255.512 94.28l-6.424 32.152h-2.896l-6.432-32.152a6.953 6.953 0 0 1-.12-1.288c0-3.616 2.936-6.56 6.552-6.56h2.888a6.564 6.564 0 0 1 6.432 7.848zm.128 56.152c0 4.408-3.584 8-8 8s-8-3.592-8-8c0-4.408 3.584-8 8-8s8 3.592 8 8zm-23.272 18.584l2.336 1.68-13.68 29.752a7.29 7.29 0 0 1-.672 1.16c-2.136 2.928-6.24 3.584-9.16 1.456l-2.336-1.696a6.494 6.494 0 0 1-2.624-4.28 6.466 6.466 0 0 1 1.136-4.832c.264-.352.552-.696.896-1.008l24.104-22.232zm-7.992-24.632l-32.592-3.824a6.466 6.466 0 0 1-1.24-.272c-3.44-1.12-5.328-4.824-4.208-8.264l.888-2.744c.896-2.768 3.48-4.528 6.24-4.528a6.6 6.6 0 0 1 2.024.32c.416.136.816.312 1.184.52l28.592 16.056-.888 2.736zm-88.736-57.952c-51.144 0-96-48.6-96-104v-16h192v16c0 55.4-44.856 104-96 104zm-72.608 104.816a6.511 6.511 0 0 1 2.016 5.832 6.51 6.51 0 0 1-2.632 4.288l-2.32 1.688c-2.912 2.136-7.04 1.48-9.168-1.456a6.97 6.97 0 0 1-.656-1.112l-13.696-29.792 2.336-1.696 24.12 22.248zm-17.016-49.6l28.592-16.056a7.09 7.09 0 0 1 1.184-.52c3.432-1.128 7.152.768 8.264 4.208l.888 2.744c1.12 3.44-.776 7.144-4.2 8.264a6.723 6.723 0 0 1-1.264.28l-32.576 3.824-.888-2.744zm-14.504-47.376l-6.424 32.16h-2.888l-6.432-32.152a6.337 6.337 0 0 1-.128-1.288c0-3.616 2.936-6.56 6.552-6.56h2.888a6.564 6.564 0 0 1 6.56 6.56c0 .432-.04.864-.128 1.28zm.128 56.16c0 4.408-3.584 8-8 8s-8-3.592-8-8c0-4.408 3.584-8 8-8s8 3.592 8 8zm-20.936 20.272l-13.68 29.752a7.29 7.29 0 0 1-.672 1.16c-2.136 2.928-6.232 3.584-9.16 1.456l-2.336-1.696a6.494 6.494 0 0 1-2.624-4.28 6.489 6.489 0 0 1 1.136-4.848c.264-.352.552-.696.896-1.008l24.104-22.232 2.336 1.696zm-30.376-110.92c6.312 4.248 15.632 9.832 27.904 15.632-5.192 4.136-8.592 10.432-8.592 17.576 0 1.48.152 2.96.44 4.424l5.688 28.408-25.264-14.184a22.289 22.289 0 0 0-4.08-1.784c-4.624-1.504-9.384-1.376-13.712 0 3.272-17.472 9.192-34.304 17.616-50.072zm-17.992 72.24l.888-2.744c.896-2.768 3.48-4.528 6.24-4.528a6.6 6.6 0 0 1 2.024.32c.416.136.816.312 1.184.52l28.592 16.056-.888 2.736-32.592-3.824a6.466 6.466 0 0 1-1.24-.272c-3.44-1.12-5.328-4.824-4.208-8.264zm8.128 50.768a22.382 22.382 0 0 0-3.728 8.184 171.79 171.79 0 0 1-6.464-36.056c.448.176.856.432 1.32.584 1.424.464 2.872.784 4.344.952l28.776 3.376-21.272 19.624a22.838 22.838 0 0 0-2.976 3.336zm138.56 129.664a7.29 7.29 0 0 1-.672 1.16c-.76 1.04-1.808 1.688-2.928 2.128-2.512-.44-4.976-1.008-7.448-1.56l-1.12-.824a6.494 6.494 0 0 1-2.624-4.28 6.466 6.466 0 0 1 1.136-4.832c.264-.352.552-.696.896-1.008l24.104-22.232 2.336 1.696-13.68 29.752zm3.352-56.072l-32.592-3.824a6.466 6.466 0 0 1-1.24-.272c-3.44-1.12-5.328-4.824-4.208-8.264l.888-2.744c.896-2.768 3.48-4.528 6.24-4.528a6.6 6.6 0 0 1 2.024.32c.416.136.816.312 1.184.52l28.592 16.056-.888 2.736zm12.096 61.704c-.144-.008-.28-.04-.416-.048l11.584-25.184 11.568 25.152c-7.504.48-15.08.552-22.736.08zm11.168-63.656c4.416 0 8 3.592 8 8 0 4.408-3.584 8-8 8s-8-3.592-8-8c0-4.408 3.584-8 8-8zm-8-49.44c0-3.616 2.936-6.56 6.552-6.56h2.888a6.564 6.564 0 0 1 6.432 7.848l-6.424 32.152h-2.896l-6.432-32.152a6.953 6.953 0 0 1-.12-1.288zm49.408 104.088a6.54 6.54 0 0 1-2.632 4.288l-1.528 1.112a164.1 164.1 0 0 1-6.848 1.32c-1.192-.432-2.312-1.096-3.112-2.2a6.97 6.97 0 0 1-.656-1.112l-13.696-29.792 2.336-1.696 24.12 22.248a6.511 6.511 0 0 1 2.016 5.832zm-19.032-55.432l28.592-16.056a7.09 7.09 0 0 1 1.184-.52c3.432-1.128 7.152.768 8.264 4.208l.888 2.744c1.12 3.44-.776 7.144-4.2 8.264a6.723 6.723 0 0 1-1.264.28l-32.576 3.824-.888-2.744zm98.16 17.032c-18.496 17.392-39.96 30.248-63.168 38.224.2-5.04-1.184-9.976-4.224-14.152a22.4 22.4 0 0 0-2.928-3.28l-21.288-19.64 28.76-3.376a22.767 22.767 0 0 0 4.368-.952c11.824-3.848 18.32-16.6 14.48-28.424l-.888-2.744c-3.84-11.832-16.592-18.312-28.424-14.488a22.85 22.85 0 0 0-4.08 1.784l-25.264 14.184 5.688-28.416c.28-1.448.432-2.928.432-4.408 0-12.44-10.12-22.56-22.552-22.56h-2.888c-12.44 0-22.56 10.12-22.56 22.56 0 1.48.152 2.96.44 4.424l5.688 28.408-25.264-14.184a22.289 22.289 0 0 0-4.08-1.784c-11.808-3.832-24.576 2.656-28.424 14.488l-.888 2.744c-3.84 11.832 2.656 24.576 14.488 28.424 1.424.464 2.872.784 4.344.952l28.776 3.376-21.272 19.624a22.431 22.431 0 0 0-2.976 3.336c-2.96 4.072-4.352 8.912-4.208 13.864-45.768-16.04-83.168-50.712-103.048-94.568.088.064.152.144.24.208l2.336 1.696c4 2.904 8.632 4.296 13.224 4.296 6.984 0 13.872-3.224 18.28-9.288a22.786 22.786 0 0 0 2.248-3.84l12.096-26.312 12.12 26.352a22.855 22.855 0 0 0 2.232 3.8c4.408 6.064 11.296 9.288 18.272 9.288 4.6 0 9.24-1.4 13.24-4.304l2.32-1.688c4.872-3.544 8.08-8.768 9.024-14.72.944-5.952-.488-11.92-4.064-16.832a22.4 22.4 0 0 0-2.928-3.28l-21.288-19.64 28.76-3.376a22.767 22.767 0 0 0 4.368-.952c11.824-3.848 18.32-16.6 14.48-28.424l-.888-2.744c-3.84-11.832-16.592-18.312-28.424-14.488a22.85 22.85 0 0 0-4.08 1.784l-25.264 14.184 5.688-28.416c.28-1.448.432-2.928.432-4.408 0-.968-.168-1.888-.288-2.824 24.056 7.04 53.472 12.264 88.288 12.264s64.232-5.224 88.288-12.264c-.12.936-.288 1.856-.288 2.824 0 1.48.152 2.96.44 4.424l5.688 28.408-25.264-14.184a22.289 22.289 0 0 0-4.08-1.784c-11.816-3.832-24.576 2.656-28.424 14.488l-.888 2.744c-3.84 11.832 2.656 24.576 14.488 28.424 1.424.464 2.872.784 4.344.952l28.776 3.376-21.272 19.624a22.431 22.431 0 0 0-2.976 3.336 22.4 22.4 0 0 0-4.032 16.792 22.416 22.416 0 0 0 9.016 14.712l2.336 1.696c4 2.904 8.632 4.296 13.224 4.296 6.984 0 13.872-3.224 18.28-9.288a22.786 22.786 0 0 0 2.248-3.84l12.096-26.312 12.12 26.352a22.855 22.855 0 0 0 2.232 3.8c4.408 6.064 11.296 9.288 18.272 9.288 4.6 0 9.24-1.4 13.24-4.304l2.32-1.688c.36-.264.648-.6.992-.88-9.376 21.296-23.056 40.72-40.64 57.256zm44.616-87.928a22.4 22.4 0 0 0-2.928-3.28l-21.288-19.64 28.76-3.376a22.767 22.767 0 0 0 4.368-.952c.52-.168.968-.448 1.464-.648a176.329 176.329 0 0 1-6.512 36.912c-.624-3.2-1.872-6.28-3.864-9.016z"/><path d="M287.975 143.95h16v16h-16zM191.975 143.95h16v16h-16zM255.975 207.95h-16c-17.648 0-32-14.352-32-32h-16c0 26.472 21.528 48 48 48h16c26.472 0 48-21.528 48-48h-16c0 17.648-14.352 32-32 32z"/></svg>