<svg xmlns="http://www.w3.org/2000/svg" viewBox="0 0 496 496"><path d="M472 368h-62.936c-35.736-8.672-65.208-22.136-88.432-40.032 13.464-.176 25.984-5.912 34.872-15.784A56.068 56.068 0 0 0 384 320c16.032 0 31.16-6.984 41.68-18.712l.056.048c1.616-1.808 3.056-3.728 4.408-5.704.064-.088.136-.168.2-.256C449.528 292.328 464 275.792 464 256c0-25.112-23.432-45.296-49.328-38.808C405.528 211.168 395.008 208 384 208c-3.168 0-6.256.352-9.304.864l-.016-.096a58.567 58.567 0 0 0-5.088 1.096c-.024.008-.04.016-.056.016-2.128.56-4.176 1.28-6.192 2.072-.36.144-.72.296-1.08.44a55.63 55.63 0 0 0-11.688 6.648c-.072.048-.136.104-.208.16a55.715 55.715 0 0 0-14.248 15.696C330.904 232.976 325.512 232 320 232c-22.52 0-41.416 15.608-46.568 36.568-20.936-47.408-13.64-95.696-10.696-110.072 7.008-1.328 13.856-3.472 20.296-6.616A55.429 55.429 0 0 0 312 160c30.872 0 56-25.12 56-56 0-27.224-19.992-50.512-46.368-55.128C309.184 19.44 280.2 0 248 0c-24.536 0-47.392 11.144-62.52 30.152-.328-.168-.672-.28-1-.44a55.524 55.524 0 0 0-4.176-1.84c-.64-.248-1.288-.48-1.936-.712a57.552 57.552 0 0 0-3.936-1.208c-.696-.184-1.384-.376-2.088-.536a57.07 57.07 0 0 0-4.232-.76c-.632-.096-1.256-.216-1.888-.288-2.04-.224-4.12-.368-6.224-.368-30.872 0-56 25.12-56 56s25.128 56 56 56c4.64 0 9.2-.592 13.624-1.704a549.537 549.537 0 0 0-3.68 34.544C161.712 153.864 145.888 144 128 144a47.81 47.81 0 0 0-38.376 19.216l-.024-.024c-.264.344-.44.736-.688 1.088-.872 1.232-1.752 2.456-2.512 3.784A40.59 40.59 0 0 0 84 168c-28.672 0-52 23.328-52 52s23.328 52 52 52c20.552 0 39.04-12.248 47.344-30.584 6.752 17.424 23.192 29.44 42.248 30.4 2.2 12.568 5.04 24.248 8.6 34.912C177.768 305.032 173.016 304 168 304c-3.248 0-6.464.392-9.592 1.176A31.965 31.965 0 0 0 136 296c-17.648 0-32 14.352-32 32 0 16.048 11.872 29.368 27.296 31.656 1.28 3.024 2.984 5.776 4.912 8.344H24c-13.232 0-24 10.768-24 24v16c0 10.536 6.872 19.416 16.336 22.632C19.696 467.232 50.536 496 88 496h320c37.464 0 68.304-28.768 71.664-65.368C489.128 427.416 496 418.536 496 408v-16c0-13.232-10.768-24-24-24zM320 248c3.336 0 6.624.624 9.848 1.728A56.425 56.425 0 0 0 328 264c0 3.128.256 6.264.776 9.328l15.784-2.656A39.46 39.46 0 0 1 344 264c0-6.4 1.616-12.416 4.304-17.808.488-.976.928-1.984 1.48-2.904.6-.992 1.32-1.896 2-2.832a39.46 39.46 0 0 1 3.608-4.272c.744-.768 1.464-1.552 2.264-2.256.792-.688 1.64-1.296 2.48-1.92.88-.656 1.768-1.304 2.704-1.888a39.664 39.664 0 0 1 2.608-1.472c1.088-.568 2.2-1.08 3.344-1.552.824-.336 1.648-.68 2.496-.968 1.496-.496 3.04-.88 4.616-1.208 2.64-.544 5.328-.92 8.096-.92 8.856 0 17.28 2.88 24.352 8.328l3.472 2.664 4.12-1.48c2.84-1.016 5.48-1.512 8.056-1.512 13.232 0 24 10.768 24 24 0 7.504-3.536 14.16-9.016 18.544A55.747 55.747 0 0 0 440 264c0-6.4-1.08-12.688-3.2-18.688l-15.08 5.344A39.914 39.914 0 0 1 424 264c0 7.152-1.96 14.072-5.512 20.152-.424.728-.928 1.4-1.392 2.096a40.387 40.387 0 0 1-2.376 3.2C407.176 298.528 395.96 304 384 304c-9.272 0-17.984-3.096-25.184-8.952l-7-5.68-4.816 7.624c-5.928 9.4-16.024 15.008-27 15.008-17.648 0-32-14.352-32-32s14.352-32 32-32zm-52.36 44.496c19.48 32.912 49.768 58.168 90.272 75.504h-108c-31.2-15.112-51.496-48.04-60.408-97.968C209.416 264.184 224 245.776 224 224c0-23.216-16.752-42.656-38.576-47.032 1.096-17.56 2.904-32.416 4.328-42.336l.016.016a81.211 81.211 0 0 0 3.296 3.344c.56.528 1.04 1.128 1.616 1.64l.096-.104c14.032 12.584 32.096 19.92 51.368 20.368-4.096 22.56-9.92 79.536 21.496 132.6zM220.944 368h-21.152c3.248-4.288 5.656-9.2 6.968-14.592A109.478 109.478 0 0 0 220.944 368zM160 120c-22.056 0-40-17.944-40-40s17.944-40 40-40c2.48 0 4.888.296 7.24.728.76.144 1.496.352 2.248.536a39.77 39.77 0 0 1 4.656 1.448c.8.304 1.6.608 2.384.968 1.472.672 2.872 1.464 4.24 2.304.648.4 1.328.736 1.96 1.176C193.144 54.384 200 66.392 200 80c0 2.24-.184 4.488-.552 6.664l15.784 2.656A56.57 56.57 0 0 0 216 80c0-15.928-6.72-30.296-17.432-40.504C210.68 24.696 228.664 16 248 16c23.304 0 44.432 12.776 55.632 32.632a55.81 55.81 0 0 0-22.6 8.696l8.856 13.328A39.88 39.88 0 0 1 312 64v-.088l3.248.256C335.856 65.832 352 83.32 352 104c0 22.056-17.944 40-40 40-8.56 0-16.768-2.712-23.72-7.856l-4.184-3.096-4.528 2.576C269.944 141.104 259.024 144 248 144c-16.192 0-31.464-6.088-43.12-16.752-.488-.448-.912-.952-1.392-1.408-1.464-1.424-2.912-2.864-4.24-4.432-.192-.224-.352-.48-.544-.712-1.52-1.848-2.976-3.76-4.304-5.792-2.768-4.24-5.072-8.768-6.76-13.544l-15.08 5.336a78.887 78.887 0 0 0 4.128 9.552C171.48 118.672 165.832 120 160 120zm16 136c-15.496 0-28.712-11.104-31.424-26.408l-1.456-8.224-8.16 1.816c-2.464.544-4.728.816-6.68.816h-.04l-7.896-.424-1.704 6.104C114.32 245.176 100.072 256 84 256c-19.848 0-36-16.152-36-36 0-18.688 14.368-33.92 32.608-35.656A48.612 48.612 0 0 0 80 192c0 6.688 1.352 13.16 4.008 19.224l14.656-6.424C96.896 200.776 96 196.464 96 192c0-4.696 1.08-9.208 3.008-13.368a31.94 31.94 0 0 1 1.216-2.392 27.35 27.35 0 0 1 1.392-2.192C107.488 165.384 117.24 160 128 160c13.168 0 24.632 8.064 29.456 19.872-3.6 1.512-7.072 3.336-10.264 5.736L156.8 198.4c3.744-2.808 7.992-4.648 12.488-5.608 2.376-.512 4.592-.792 6.712-.792 17.648 0 32 14.352 32 32s-14.352 32-32 32zm-40 88c-8.824 0-16-7.176-16-16s7.176-16 16-16a15.974 15.974 0 0 1 13.176 6.968l3.664 5.344 5.992-2.472A23.807 23.807 0 0 1 168 320c13.232 0 24 10.768 24 24s-10.768 24-24 24c-10.912 0-20.44-7.44-23.16-18.088l-1.6-6.296-6.496.28c-.424.024-.848.072-.744.104zm272 136H88c-28.152 0-51.456-20.904-55.36-48h430.72c-3.904 27.096-27.208 48-55.36 48zm72-72c0 4.408-3.584 8-8 8H24c-4.416 0-8-3.592-8-8v-16c0-4.408 3.584-8 8-8h448c4.416 0 8 3.592 8 8v16z"/><path d="M304 80h16v16h-16zM232 96h16v16h-16zM384 240h16v16h-16zM144 56h16v16h-16zM168 216h16v16h-16z"/></svg>