<svg xmlns="http://www.w3.org/2000/svg" viewBox="0 0 496 496"><path d="M248 0C111.248 0 0 111.248 0 248s111.248 248 248 248 248-111.248 248-248S384.752 0 248 0zm0 480C120.08 480 16 375.92 16 248S120.08 16 248 16s232 104.08 232 232-104.08 232-232 232z"/><path d="M248 56C142.136 56 56 142.136 56 248s86.136 192 192 192 192-86.136 192-192S353.864 56 248 56zM104 349.008A175.992 175.992 0 0 1 87.464 320H104v29.008zM104 304H81.184c-3.464-10.28-6-20.976-7.512-32H104v32zm0-48H72.2c-.12-2.656-.2-5.32-.2-8 0-8.144.6-16.144 1.68-24H104v32zm0-48H76.64a174.354 174.354 0 0 1 10.824-32H104v32zm0-48h-8.32c2.592-4.464 5.368-8.8 8.32-13.008V160zm288-13.008A174.88 174.88 0 0 1 400.32 160H392v-13.008zM336 95.68c8.304 4.816 16.208 10.256 23.584 16.32H336V95.68zm0 32.32h40v-.608c.192.208.392.4.584.608H376v32h-40v-32zm0 96h40v32h-40v-32zm0 48h40v32h-40v-32zm0 48h40v32h-40v-32zm-56-96h16v48h-16v-48zm-104 0h8v32h-8v-32zM160 95.68V112h-23.584c7.376-6.064 15.28-11.504 23.584-16.32zm-40 31.712V128h40v32h-40v-32h-.584c.192-.208.392-.408.584-.608zM120 256v-32h40v32h-40zm40 16v32h-40v-32h40zm-40-64v-32h40v32h-40zm40 192.32A177.23 177.23 0 0 1 119.416 368H160v32.32zm56 20.712c-6.976-1.288-13.832-2.944-20.496-5.032H216v5.032zM216 400h-40v-32h40v32zm0-48h-96v-32h40v16h16v-16h40v32zm0-48h-40v-32h8v16h32v16zm0-32h-16v-48h16v48zm0-64h-40v-32h40v32zm0-48h-40v-32h40v32zm0-48h-40V87.464a174.808 174.808 0 0 1 40-12.496V112zm48 311.24c-5.272.48-10.6.76-16 .76s-10.728-.28-16-.76V72.76c5.272-.48 10.6-.76 16-.76s10.728.28 16 .76v350.48zm16-2.208V416h20.496c-6.664 2.088-13.52 3.744-20.496 5.032zM320 400h-40v-32h40v32zm0-48h-40v-32h40v32zm0-48h-40v-16h32v-16h8v32zm0-48h-8v-32h8v32zm0-48h-40v-32h40v32zm0-48h-40v-32h40v32zm0-48h-40V74.968a174.414 174.414 0 0 1 40 12.496V112zm16 288.32V368h40.584A177.23 177.23 0 0 1 336 400.32zM376 208h-40v-32h40v16h16v-16h16.536a174.354 174.354 0 0 1 10.824 32H376zm16 141.008V320h16.536A175.992 175.992 0 0 1 392 349.008zM414.808 304H392v-32h30.32a174.332 174.332 0 0 1-7.512 32zM392 256v-32h30.32c1.08 7.856 1.68 15.856 1.68 24 0 2.68-.08 5.344-.2 8H392z"/></svg>