<?xml version="1.0" encoding="iso-8859-1"?>
<!-- Generator: Adobe Illustrator 19.0.0, SVG Export Plug-In . SVG Version: 6.00 Build 0)  -->
<svg xmlns="http://www.w3.org/2000/svg" xmlns:xlink="http://www.w3.org/1999/xlink" version="1.1" id="Capa_1" x="0px" y="0px" viewBox="0 0 496 496" style="enable-background:new 0 0 496 496;" xml:space="preserve">
<g>
	<g>
		<g>
			<path d="M480,0H16C7.176,0,0,7.176,0,16v72v8v400h496V96v-8V16C496,7.176,488.824,0,480,0z M120,480H16V96h80v40h24v160h-16     c-26.472,0-48,21.528-48,48s21.528,48,48,48h16V480z M112,120V56h32v64H112z M392,312c17.648,0,32,14.352,32,32s-14.352,32-32,32     H104c-17.648,0-32-14.352-32-32s14.352-32,32-32H392z M360,480H136v-88h224V480z M480,480H376v-88h16c26.472,0,48-21.528,48-48     s-21.528-48-48-48h-16v-16h-16v16H136V136h24V96h176v40h24v128h16V136h24V96h80V480z M352,120V56h32v64H352z M480,80h-80V40h-64     v40H160V40H96v40H16V16h464V80z"/>
			<path d="M254.056,224c0-6.928,2.696-13.448,7.6-18.344c16.352-16.352,16.352-42.96,0-59.312l-24-24l-11.312,11.312l24,24     c4.896,4.896,7.6,11.416,7.6,18.344s-2.696,13.448-7.6,18.344c-16.352,16.352-16.352,42.96,0,59.312l24,24l11.312-11.312l-24-24     C256.76,237.448,254.056,230.928,254.056,224z"/>
			<path d="M66.344,253.656l24,24l11.312-11.312l-24-24c-4.896-4.896-7.6-11.416-7.6-18.344s2.696-13.448,7.6-18.344     c16.352-16.352,16.352-42.96,0-59.312l-24-24l-11.312,11.312l24,24c4.896,4.896,7.6,11.416,7.6,18.344s-2.696,13.448-7.6,18.344     C49.992,210.696,49.992,237.304,66.344,253.656z"/>
			<path d="M433.944,184c0,6.928-2.696,13.448-7.6,18.344c-16.352,16.352-16.352,42.96,0,59.312l24,24l11.312-11.312l-24-24     c-4.896-4.896-7.6-11.416-7.6-18.344s2.696-13.448,7.6-18.344c16.352-16.352,16.352-42.96,0-59.312l-24-24l-11.312,11.312l24,24     C431.24,170.552,433.944,177.072,433.944,184z"/>
		</g>
	</g>
</g>
<g>
</g>
<g>
</g>
<g>
</g>
<g>
</g>
<g>
</g>
<g>
</g>
<g>
</g>
<g>
</g>
<g>
</g>
<g>
</g>
<g>
</g>
<g>
</g>
<g>
</g>
<g>
</g>
<g>
</g>
</svg>
