<svg xmlns="http://www.w3.org/2000/svg" viewBox="0 0 496 496"><path d="M480 0H16C7.176 0 0 7.176 0 16v480h496V16c0-8.824-7.176-16-16-16zM120 480H16V96h80v40h24v160h-16c-26.472 0-48 21.528-48 48s21.528 48 48 48h16v88zm-8-360V56h32v64h-32zm280 192c17.648 0 32 14.352 32 32s-14.352 32-32 32H104c-17.648 0-32-14.352-32-32s14.352-32 32-32h288zm-32 168H136v-88h224v88zm120 0H376v-88h16c26.472 0 48-21.528 48-48s-21.528-48-48-48h-16v-16h-16v16H136V136h24V96h176v40h24v128h16V136h24V96h80v384zM352 120V56h32v64h-32zm128-40h-80V40h-64v40H160V40H96v40H16V16h464v64z"/><path d="M254.056 224c0-6.928 2.696-13.448 7.6-18.344 16.352-16.352 16.352-42.96 0-59.312l-24-24-11.312 11.312 24 24c4.896 4.896 7.6 11.416 7.6 18.344s-2.696 13.448-7.6 18.344c-16.352 16.352-16.352 42.96 0 59.312l24 24 11.312-11.312-24-24c-4.896-4.896-7.6-11.416-7.6-18.344zM66.344 253.656l24 24 11.312-11.312-24-24c-4.896-4.896-7.6-11.416-7.6-18.344s2.696-13.448 7.6-18.344c16.352-16.352 16.352-42.96 0-59.312l-24-24-11.312 11.312 24 24c4.896 4.896 7.6 11.416 7.6 18.344s-2.696 13.448-7.6 18.344c-16.352 16.352-16.352 42.96 0 59.312zM433.944 184c0 6.928-2.696 13.448-7.6 18.344-16.352 16.352-16.352 42.96 0 59.312l24 24 11.312-11.312-24-24c-4.896-4.896-7.6-11.416-7.6-18.344s2.696-13.448 7.6-18.344c16.352-16.352 16.352-42.96 0-59.312l-24-24-11.312 11.312 24 24c4.896 4.896 7.6 11.416 7.6 18.344z"/></svg>