<svg xmlns="http://www.w3.org/2000/svg" viewBox="0 0 496 496"><path d="M182.487 69.777l-12.4-12.4L181.4 46.065l12.4 12.4z"/><path d="M495.718 288.272l-7.592-.208c-40.472-1.04-77.328 12.696-103.552 38.872-9.96 9.944-18.16 21.48-24.544 34.192V203.784c37.312-.824 70.992-14.36 95.456-38.776 27.192-27.16 41.552-65.912 40.432-109.16l-.216-7.576-7.576-.208c-40.472-1.032-77.328 12.696-103.552 38.872-9.96 9.944-18.16 21.48-24.544 34.192V0h-16v96h-64V0h-16v73.128c-6.384-12.712-14.584-24.24-24.544-34.192C213.262 12.752 176.398-.904 135.934.064l-7.592.208-.2 7.576c-.6 23.04 3.32 44.736 11.112 64.152h-11.232c-22.056 0-40 17.944-40 40v32h-88v352h192V144h-88v-32c0-13.232 10.768-24 24-24h18.912c5.936 10.632 13.072 20.456 21.64 29.008 24.464 24.424 58.128 37.96 95.456 38.776V496h16v-72h32v-16h-32v-88h64v88h-16v16h16v72h16v-52.216c37.312-.824 70.992-14.36 95.456-38.776 27.192-27.16 41.552-65.912 40.432-109.16l-.2-7.576zM395.87 98.264c21.424-21.392 51.04-33.392 84.056-34.216-.776 35.632-13.32 67.232-35.76 89.632-18.76 18.728-43.8 30.256-71.912 33.392l81.696-81.696-11.312-11.312-81.76 81.76c3.056-30.672 15.128-57.728 34.992-77.56zM96.022 192c13.232 0 24 10.768 24 24s-10.768 24-24 24-24-10.768-24-24 10.768-24 24-24zm80 288h-160V288h160v192zm0-320v112h-160V160h72v16.808c-18.232 3.72-32 19.88-32 39.192 0 22.056 17.944 40 40 40s40-17.944 40-40c0-19.312-13.768-35.472-32-39.192V160h72zm75.768-20.928c-28.104-3.136-53.152-14.664-71.912-33.392-22.44-22.4-34.992-54-35.76-89.632 33.016.832 62.632 12.832 84.056 34.216 19.864 19.832 31.936 46.888 34.992 77.56l-58.752-58.752-11.312 11.312 58.688 58.688zM344.022 304h-64v-88h64v88zm0-104h-64v-88h64v88zm100.152 193.68c-18.76 18.728-43.8 30.256-71.912 33.392l81.696-81.696-11.312-11.312-81.76 81.76c3.056-30.672 15.128-57.728 34.992-77.56 21.424-21.392 51.04-33.392 84.056-34.216-.776 35.632-13.328 67.232-35.76 89.632z"/></svg>