<?xml version="1.0" encoding="iso-8859-1"?>
<!-- Generator: Adobe Illustrator 19.0.0, SVG Export Plug-In . SVG Version: 6.00 Build 0)  -->
<svg xmlns="http://www.w3.org/2000/svg" xmlns:xlink="http://www.w3.org/1999/xlink" version="1.1" id="Capa_1" x="0px" y="0px" viewBox="0 0 496 496" style="enable-background:new 0 0 496 496;" xml:space="preserve">
<g>
	<g>
		<g>
			<rect x="173.174" y="49.92" transform="matrix(-0.7071 -0.7071 0.7071 -0.7071 269.6395 227.5272)" width="17.536" height="16"/>
			<path d="M495.718,288.272l-7.592-0.208c-40.472-1.04-77.328,12.696-103.552,38.872c-9.96,9.944-18.16,21.48-24.544,34.192     V203.784c37.312-0.824,70.992-14.36,95.456-38.776c27.192-27.16,41.552-65.912,40.432-109.16l-0.216-7.576l-7.576-0.208     c-40.472-1.032-77.328,12.696-103.552,38.872c-9.96,9.944-18.16,21.48-24.544,34.192V0h-16v96h-64V0h-16v73.128     c-6.384-12.712-14.584-24.24-24.544-34.192c-26.224-26.184-63.088-39.84-103.552-38.872l-7.592,0.208l-0.2,7.576     c-0.6,23.04,3.32,44.736,11.112,64.152h-11.232c-22.056,0-40,17.944-40,40v32h-88v352h192V144h-88v-32c0-13.232,10.768-24,24-24     h18.912c5.936,10.632,13.072,20.456,21.64,29.008c24.464,24.424,58.128,37.96,95.456,38.776V496h16v-72h32v-16h-32v-88h64v88h-16     v16h16v72h16v-52.216c37.312-0.824,70.992-14.36,95.456-38.776c27.192-27.16,41.552-65.912,40.432-109.16L495.718,288.272z      M395.87,98.264c21.424-21.392,51.04-33.392,84.056-34.216c-0.776,35.632-13.32,67.232-35.76,89.632     c-18.76,18.728-43.8,30.256-71.912,33.392l81.696-81.696l-11.312-11.312l-81.76,81.76     C363.934,145.152,376.006,118.096,395.87,98.264z M96.022,192c13.232,0,24,10.768,24,24s-10.768,24-24,24s-24-10.768-24-24     S82.79,192,96.022,192z M176.022,480h-160V288h160V480z M176.022,160v112h-160V160h72v16.808c-18.232,3.72-32,19.88-32,39.192     c0,22.056,17.944,40,40,40c22.056,0,40-17.944,40-40c0-19.312-13.768-35.472-32-39.192V160H176.022z M251.79,139.072     c-28.104-3.136-53.152-14.664-71.912-33.392c-22.44-22.4-34.992-54-35.76-89.632c33.016,0.832,62.632,12.832,84.056,34.216     c19.864,19.832,31.936,46.888,34.992,77.56l-58.752-58.752l-11.312,11.312L251.79,139.072z M344.022,304h-64v-88h64V304z      M344.022,200h-64v-88h64V200z M444.174,393.68c-18.76,18.728-43.8,30.256-71.912,33.392l81.696-81.696l-11.312-11.312     l-81.76,81.76c3.056-30.672,15.128-57.728,34.992-77.56c21.424-21.392,51.04-33.392,84.056-34.216     C479.158,339.68,466.606,371.28,444.174,393.68z"/>
		</g>
	</g>
</g>
<g>
</g>
<g>
</g>
<g>
</g>
<g>
</g>
<g>
</g>
<g>
</g>
<g>
</g>
<g>
</g>
<g>
</g>
<g>
</g>
<g>
</g>
<g>
</g>
<g>
</g>
<g>
</g>
<g>
</g>
</svg>
