<svg xmlns="http://www.w3.org/2000/svg" viewBox="0 0 496 496"><path d="M240 176h16v48h-16zM248 384c-36.944 0-54.464-18.56-61.608-29.624C182.2 347.872 175 344 167.12 344c-12.752 0-23.12 10.368-23.12 23.12v10.728c0 6.016 2.288 11.704 6.448 16.016 7.8 8.08 26.968 28.496 36.616 43.704C194.392 449.112 206.976 456 220.736 456h54.528c13.76 0 26.344-6.888 33.672-18.44 9.648-15.2 28.824-35.624 36.616-43.704 4.16-4.312 6.448-10 6.448-16.016v-10.72c0-12.752-10.368-23.12-23.12-23.12-7.88 0-15.088 3.872-19.272 10.368C302.464 365.44 284.944 384 248 384zm75.048-20.952c1.232-1.904 3.416-3.048 5.832-3.048 3.92 0 7.12 3.192 7.12 7.12v10.72a7.03 7.03 0 0 1-1.96 4.904c-8.136 8.424-28.176 29.8-38.616 46.232-4.376 6.904-11.912 11.024-20.16 11.024h-54.528c-8.248 0-15.784-4.12-20.16-11.016-10.44-16.44-30.488-37.816-38.616-46.232a7.035 7.035 0 0 1-1.96-4.912v-10.72c0-3.92 3.192-7.12 7.12-7.12 2.424 0 4.6 1.144 5.832 3.056C180.136 374.168 201.816 400 248 400s67.864-25.832 75.048-36.952z"/><path d="M387.632 204.944c-3.752-15.008-9.944-29.312-18.392-42.488l53.248-133.12c1.008-2.512 1.512-5.168 1.512-8.112C424 9.52 414.48 0 402.776 0c-7.328 0-14.256 3.88-18.096 10.136l-64.512 105.24C298.304 102.68 273.576 96 248 96c-25.512 0-50.264 6.728-72.136 19.416L111.32 10.128C107.488 3.88 100.552 0 93.224 0 81.52 0 72 9.52 72 21.456c0 2.72.504 5.368 1.512 7.88L126.76 162.44a143.059 143.059 0 0 0-18.384 42.504C102.2 197.44 93.128 192 80 192h-8v92.224c0 15.24 8.472 28.944 22.112 35.776l9.888 4.944v26.224a41.753 41.753 0 0 0 5.36 20.448l58.496 103.992C174.92 488.184 188.28 496 202.72 496h90.56c14.44 0 27.8-7.816 34.856-20.392l58.72-104.384A39.957 39.957 0 0 0 392 351.616v-26.672l9.888-4.944c13.64-6.832 22.112-20.528 22.112-35.776V192h-8c-13.12 0-22.192 5.432-28.368 12.944zM104 307.048l-2.736-1.36C93.088 301.592 88 293.368 88 284.224v-74.832c15.656 6.032 15.992 29.488 16 30.624v67.032zM295.24 121a127.753 127.753 0 0 1 16.552 8.032l-6.616 10.792 13.648 8.352 79.504-129.68A5.223 5.223 0 0 1 402.776 16c2.88 0 5.224 2.344 5.224 5.456 0 .664-.136 1.336-.376 1.944l-63.056 157.632 14.856 5.936 2.264-5.664a126.113 126.113 0 0 1 7.792 18.464c-26.024-1.136-45.592-9.024-58.04-23.664-15.512-18.24-16.72-42.816-16.2-55.104zm-160.936 60.312l2.264 5.656 14.856-5.936L88.376 23.4c-.24-.608-.376-1.28-.376-2.176A5.23 5.23 0 0 1 93.224 16c1.808 0 3.504.952 4.456 2.496l79.504 129.688 13.64-8.36-6.6-10.768a127.699 127.699 0 0 1 16.56-8.008c.544 12.256-.648 36.664-16.152 54.968-12.456 14.696-32.04 22.616-58.112 23.752a127.23 127.23 0 0 1 7.784-18.456zM376 247.888c-88.744-2.272-104.296-42.104-104.448-42.52l-15.144 5.168c.232.688 2.2 6.208 8.144 13.472H264v32c0 22.056 17.944 40 40 40h16c19.656 0 35.96-14.28 39.288-33 5.304.432 10.856.736 16.712.88v87.736c0 4.112-1.064 8.176-3.08 11.76l-58.728 104.384C309.96 475.312 301.944 480 293.28 480h-90.56a24.023 24.023 0 0 1-20.92-12.232l-58.496-103.992A25.818 25.818 0 0 1 120 351.168V263.88c5.848-.144 11.4-.448 16.712-.88 3.328 18.72 19.632 33 39.288 33h16c22.056 0 40-17.944 40-40v-32h-.56c5.944-7.256 7.912-12.784 8.144-13.472l-15.144-5.168c-.152.416-15.704 40.248-104.448 42.52V240c0-8.16.848-16.2 2.352-24.088 33.12-.456 58.224-10.352 74.496-29.56 21.104-24.912 20.752-57.672 19.664-70.36C226.728 113.4 237.28 112 248 112c10.736 0 21.28 1.392 31.496 3.976-1.088 12.68-1.448 45.456 19.664 70.376 16.272 19.208 41.368 29.104 74.488 29.56C375.144 223.792 376 231.84 376 240v7.888zM320 272v-15.624c7.016 1.928 14.8 3.56 23.392 4.824C341.008 271.936 331.44 280 320 280h-16c-13.232 0-24-10.768-24-24v-17.768c9.136 6.52 21.616 12.96 38.568 17.768H304v16h16zm-128 0v-16h-14.568c16.952-4.816 29.432-11.248 38.568-17.768V256c0 13.232-10.768 24-24 24h-16c-11.44 0-21.008-8.064-23.392-18.792 8.592-1.264 16.376-2.904 23.392-4.824V272h16zm216 12.224c0 9.144-5.088 17.368-13.264 21.464L392 307.056V240c0-1.144.208-24.632 16-30.616v74.84z"/><path d="M236.416 341.256l-2.448-1.224a3.537 3.537 0 0 1-1.968-3.176c0-10.984-6.832-20.744-16.608-23.736-7.544-2.296-15.456-1.016-21.648 3.568C187.64 321.2 184 328.424 184 336h16a7.947 7.947 0 0 1 3.248-6.44c1.224-.904 3.824-2.248 7.456-1.144 3.072.944 5.296 4.496 5.296 8.44 0 7.448 4.144 14.152 10.816 17.496l2.456 1.224C235.056 358.472 241.528 360 248 360s12.944-1.528 18.736-4.424l2.464-1.224c6.656-3.344 10.8-10.048 10.8-17.496 0-3.944 2.224-7.504 5.296-8.44 3.632-1.112 6.224.232 7.456 1.144A7.947 7.947 0 0 1 296 336h16c0-7.576-3.64-14.8-9.744-19.304-6.208-4.584-14.08-5.864-21.648-3.568C270.832 316.12 264 325.872 264 336.856c0 1.352-.76 2.568-1.968 3.176l-2.456 1.224c-7.16 3.576-16 3.576-23.16 0z"/></svg>