<svg xmlns="http://www.w3.org/2000/svg" viewBox="0 0 496 496"><path d="M136 32c-17.648 0-32 14.352-32 32s14.352 32 32 32 32-14.352 32-32-14.352-32-32-32zm0 48c-8.824 0-16-7.176-16-16s7.176-16 16-16 16 7.176 16 16-7.176 16-16 16z"/><path d="M496 8V0h-56c-16.752 0-33.048 4.744-47.136 13.704-21.168 13.472-44.56 13.472-65.728 0C313.048 4.744 296.752 0 280 0H158.648C127.296 0 96.52 8.416 69.48 24.256 57.44 25.536 48 35.632 48 48v32H16V0H0v496h16V304h32v32c0 12.368 9.44 22.464 21.48 23.744C96.52 375.584 127.296 384 158.648 384H280c16.752 0 33.048-4.744 47.136-13.704 21.16-13.472 44.568-13.472 65.728 0C406.952 379.256 423.248 384 440 384h56v-8c0-35.392-20.664-66.056-51.152-80C475.336 282.056 496 251.392 496 216v-8h-56c-16.752 0-33.048 4.744-47.136 13.704-21.168 13.472-44.56 13.472-65.728 0C313.048 212.744 296.752 208 280 208H158.648c-31.352 0-62.128 8.416-89.168 24.256C57.44 233.536 48 243.632 48 256v32H16V96h32v32c0 12.368 9.44 22.464 21.48 23.744C96.52 167.584 127.296 176 158.648 176H280c16.752 0 33.048-4.744 47.136-13.704 21.16-13.472 44.568-13.472 65.728 0C406.952 171.256 423.248 176 440 176h56v-8c0-35.392-20.664-66.056-51.152-80C475.336 74.056 496 43.392 496 8zM292.168 366.848c1.152-2.16 2.072-4.432 2.696-6.848H308c1.944 0 3.816-.272 5.68-.576-6.76 3.6-13.976 6.136-21.512 7.424zM308 344h-13.136c-1.144-4.416-3.208-8.408-5.976-11.872 11.176-5.248 19.584-15.44 22.216-27.816C320.656 305.816 328 314.032 328 324c0 11.032-8.976 20-20 20zm25.44 5.456c3.496-3.496 6.2-7.744 8.032-12.432a15.998 15.998 0 0 1 8.824 7.928c-5.688.776-11.312 2.36-16.856 4.504zM380 344h-13.136c-1.144-4.416-3.208-8.408-5.976-11.872 11.184-5.248 19.592-15.44 22.216-27.816C392.656 305.816 400 314.032 400 324c0 11.032-8.976 20-20 20zm99.568 24H440c-13.704 0-27.032-3.872-38.544-11.2-1.104-.704-2.256-1.2-3.376-1.848C408.744 348.688 416 337.232 416 324a35.797 35.797 0 0 0-6.208-20.176l5.416.536c34.248 3.408 60.688 30.136 64.36 63.64zm-77.216-72a35.916 35.916 0 0 0 5.648-5.648v11.304a35.967 35.967 0 0 0-5.648-5.656zm-.896-60.8c11.512-7.328 24.84-11.2 38.544-11.2h39.568a71.675 71.675 0 0 1-64.352 63.632l-5.416.536A35.807 35.807 0 0 0 416 268c0-13.232-7.256-24.696-17.92-30.952 1.12-.648 2.272-1.144 3.376-1.848zM366.864 248H380c11.024 0 20 8.968 20 20 0 9.968-7.344 18.184-16.896 19.688-2.632-12.376-11.04-22.568-22.216-27.816 2.768-3.456 4.832-7.456 5.976-11.872zm-16.568-.952a16.024 16.024 0 0 1-8.824 7.928c-1.832-4.688-4.536-8.936-8.04-12.432 5.552 2.136 11.176 3.728 16.864 4.504zM343.592 272H344c13.232 0 24 10.768 24 24s-10.768 24-24 24v1.136c-.104-.024-.2-.064-.296-.096-.84-10.144-5.832-19.032-13.352-25.04 7.256-5.808 12.152-14.288 13.24-24zm-29.904-39.432c-1.864-.296-3.744-.568-5.688-.568h-13.136c-.624-2.416-1.544-4.688-2.688-6.856 7.528 1.288 14.752 3.824 21.512 7.424zM294.864 248H308c11.024 0 20 8.968 20 20 0 9.968-7.344 18.184-16.896 19.688-2.632-12.376-11.04-22.568-22.216-27.816 2.768-3.464 4.832-7.456 5.976-11.872zM296 296c0 13.232-10.768 24-24 24h-6.496c4.104-7.072 6.496-15.256 6.496-24s-2.392-16.928-6.496-24H272c13.232 0 24 10.768 24 24zm-64-72h32c8.824 0 16 7.176 16 16s-7.176 16-16 16h-13.52c-5.648-3.752-12.136-6.288-19.104-7.376-1.456-9.384-5.624-17.856-11.696-24.624H232zm-12.32 64c5.752-6.408 9.816-14.336 11.464-23.128C245.352 268.136 256 280.816 256 296s-10.648 27.864-24.856 31.128c-1.648-8.792-5.72-16.728-11.464-23.128H240v-16h-20.32zm11.696 55.376c6.968-1.08 13.456-3.624 19.104-7.376H264c8.824 0 16 7.176 16 16s-7.176 16-16 16h-44.32c6.072-6.768 10.24-15.24 11.696-24.624zM64 256c0-4.416 3.592-8 8-8s8 3.584 8 8v56h16v-56c0-6.288-2.48-11.968-6.456-16.256C111.08 229.464 134.672 224 158.648 224H184c17.648 0 32 14.352 32 32s-14.352 32-32 32h-8v16h8c17.648 0 32 14.352 32 32s-14.352 32-32 32h-25.352c-23.976 0-47.568-5.464-69.104-15.744C93.52 347.968 96 342.288 96 336v-8H80v8c0 4.416-3.592 8-8 8s-8-3.584-8-8v-80zM366.864 40H380c11.024 0 20 8.968 20 20 0 9.968-7.344 18.184-16.896 19.688-2.632-12.376-11.04-22.568-22.216-27.816 2.768-3.464 4.832-7.456 5.976-11.872zm-16.568-.952a16.024 16.024 0 0 1-8.824 7.928c-1.832-4.688-4.536-8.936-8.04-12.432 5.552 2.136 11.176 3.728 16.864 4.504zm-36.608-14.48C311.824 24.272 309.944 24 308 24h-13.136c-.624-2.416-1.544-4.688-2.688-6.856 7.528 1.288 14.752 3.824 21.512 7.424zM265.504 64H272c13.232 0 24 10.768 24 24s-10.768 24-24 24h-6.496c4.104-7.072 6.496-15.256 6.496-24s-2.392-16.928-6.496-24zM232 16h32c8.824 0 16 7.176 16 16s-7.176 16-16 16h-13.52c-5.648-3.752-12.136-6.288-19.104-7.376C229.92 31.24 225.752 22.768 219.68 16H232zm-12.32 64c5.752-6.408 9.816-14.336 11.464-23.128C245.352 60.136 256 72.816 256 88s-10.648 27.864-24.856 31.128c-1.648-8.792-5.72-16.728-11.464-23.128H240V80h-20.32zM80 128c0 4.416-3.592 8-8 8s-8-3.584-8-8V48c0-4.416 3.592-8 8-8s8 3.584 8 8v80zm104-32c17.648 0 32 14.352 32 32s-14.352 32-32 32h-25.352c-23.976 0-47.568-5.464-69.104-15.744C93.52 139.968 96 134.288 96 128V48c0-6.288-2.48-11.968-6.456-16.256C111.08 21.464 134.672 16 158.648 16H184c17.648 0 32 14.352 32 32s-14.352 32-32 32h-8v16h8zm80 64h-44.32c6.072-6.768 10.24-15.24 11.696-24.624 6.968-1.08 13.456-3.624 19.104-7.376H264c8.824 0 16 7.176 16 16s-7.176 16-16 16zm28.168-1.152c1.152-2.16 2.072-4.432 2.696-6.848H308c1.944 0 3.816-.272 5.68-.576-6.76 3.6-13.976 6.136-21.512 7.424zM308 136h-13.136c-1.144-4.416-3.208-8.408-5.976-11.872 11.176-5.248 19.584-15.44 22.216-27.816C320.656 97.816 328 106.032 328 116c0 11.032-8.976 20-20 20zm3.104-56.312c-2.632-12.376-11.04-22.568-22.216-27.816 2.768-3.464 4.832-7.456 5.976-11.872H308c11.024 0 20 8.968 20 20 0 9.968-7.344 18.184-16.896 19.688zm22.336 61.768c3.496-3.496 6.2-7.744 8.032-12.432a15.998 15.998 0 0 1 8.824 7.928c-5.688.776-11.312 2.36-16.856 4.504zM344 112v1.136c-.104-.024-.2-.064-.296-.096-.84-10.144-5.832-19.032-13.352-25.04 7.256-5.808 12.152-14.288 13.248-24h.4c13.232 0 24 10.768 24 24s-10.768 24-24 24zm36 24h-13.136c-1.144-4.416-3.208-8.408-5.976-11.872 11.184-5.248 19.592-15.44 22.216-27.816C392.656 97.816 400 106.032 400 116c0 11.032-8.976 20-20 20zm99.568 24H440c-13.704 0-27.032-3.872-38.544-11.2-1.104-.704-2.256-1.2-3.376-1.848C408.744 140.688 416 129.232 416 116a35.797 35.797 0 0 0-6.208-20.176l5.416.536c34.248 3.408 60.688 30.136 64.36 63.64zm-77.216-72A35.916 35.916 0 0 0 408 82.352v11.304A35.967 35.967 0 0 0 402.352 88zm12.856-8.368l-5.416.536A35.752 35.752 0 0 0 416 60c0-13.232-7.256-24.696-17.92-30.952 1.12-.648 2.272-1.144 3.376-1.848C412.968 19.872 426.296 16 440 16h39.568c-3.672 33.504-30.112 60.232-64.36 63.632z"/><path d="M136 304c17.648 0 32-14.352 32-32s-14.352-32-32-32-32 14.352-32 32 14.352 32 32 32zm0-48c8.824 0 16 7.176 16 16s-7.176 16-16 16-16-7.176-16-16 7.176-16 16-16z"/></svg>