<?xml version="1.0" encoding="iso-8859-1"?>
<!-- Generator: Adobe Illustrator 19.0.0, SVG Export Plug-In . SVG Version: 6.00 Build 0)  -->
<svg xmlns="http://www.w3.org/2000/svg" xmlns:xlink="http://www.w3.org/1999/xlink" version="1.1" id="Capa_1" x="0px" y="0px" viewBox="0 0 496 496" style="enable-background:new 0 0 496 496;" xml:space="preserve">
<g>
	<g>
		<g>
			<path d="M136,32c-17.648,0-32,14.352-32,32s14.352,32,32,32s32-14.352,32-32S153.648,32,136,32z M136,80c-8.824,0-16-7.176-16-16     s7.176-16,16-16c8.824,0,16,7.176,16,16S144.824,80,136,80z"/>
			<path d="M496,8V0h-56c-16.752,0-33.048,4.744-47.136,13.704c-21.168,13.472-44.56,13.472-65.728,0C313.048,4.744,296.752,0,280,0     h-16h-32h-48h-8h-17.352C127.296,0,96.52,8.416,69.48,24.256C57.44,25.536,48,35.632,48,48v32H16V0H0v496h16V304h32v32     c0,12.368,9.44,22.464,21.48,23.744C96.52,375.584,127.296,384,158.648,384H176h8h48h32h16c16.752,0,33.048-4.744,47.136-13.704     c21.16-13.472,44.568-13.472,65.728,0C406.952,379.256,423.248,384,440,384h56v-8c0-35.392-20.664-66.056-51.152-80     C475.336,282.056,496,251.392,496,216v-8h-56c-16.752,0-33.048,4.744-47.136,13.704c-21.168,13.472-44.56,13.472-65.728,0     C313.048,212.744,296.752,208,280,208h-16h-32h-48h-8h-17.352c-31.352,0-62.128,8.416-89.168,24.256     C57.44,233.536,48,243.632,48,256v32H16V96h32v32c0,12.368,9.44,22.464,21.48,23.744C96.52,167.584,127.296,176,158.648,176H176     h8h48h32h16c16.752,0,33.048-4.744,47.136-13.704c21.16-13.472,44.568-13.472,65.728,0C406.952,171.256,423.248,176,440,176h56     v-8c0-35.392-20.664-66.056-51.152-80C475.336,74.056,496,43.392,496,8z M292.168,366.848c1.152-2.16,2.072-4.432,2.696-6.848     H308c1.944,0,3.816-0.272,5.68-0.576C306.92,363.024,299.704,365.56,292.168,366.848z M308,344h-13.136     c-1.144-4.416-3.208-8.408-5.976-11.872c11.176-5.248,19.584-15.44,22.216-27.816C320.656,305.816,328,314.032,328,324     C328,335.032,319.024,344,308,344z M333.44,349.456c3.496-3.496,6.2-7.744,8.032-12.432c3.872,1.416,7.008,4.272,8.824,7.928     C344.608,345.728,338.984,347.312,333.44,349.456z M380,344h-13.136c-1.144-4.416-3.208-8.408-5.976-11.872     c11.184-5.248,19.592-15.44,22.216-27.816C392.656,305.816,400,314.032,400,324C400,335.032,391.024,344,380,344z M479.568,368     H440c-13.704,0-27.032-3.872-38.544-11.2c-1.104-0.704-2.256-1.2-3.376-1.848C408.744,348.688,416,337.232,416,324     c0-7.472-2.296-14.416-6.208-20.176l5.416,0.536C449.456,307.768,475.896,334.496,479.568,368z M402.352,296     c2.096-1.672,3.976-3.56,5.648-5.648v11.304C406.328,299.56,404.44,297.672,402.352,296z M401.456,235.2     c11.512-7.328,24.84-11.2,38.544-11.2h39.568c-3.664,33.504-30.112,60.232-64.352,63.632l-5.416,0.536     c3.904-5.752,6.2-12.696,6.2-20.168c0-13.232-7.256-24.696-17.92-30.952C399.2,236.4,400.352,235.904,401.456,235.2z      M366.864,248H380c11.024,0,20,8.968,20,20c0,9.968-7.344,18.184-16.896,19.688c-2.632-12.376-11.04-22.568-22.216-27.816     C363.656,256.416,365.72,252.416,366.864,248z M350.296,247.048c-1.816,3.656-4.96,6.512-8.824,7.928     c-1.832-4.688-4.536-8.936-8.04-12.432C338.984,244.68,344.608,246.272,350.296,247.048z M343.592,272H344     c13.232,0,24,10.768,24,24s-10.768,24-24,24v1.136c-0.104-0.024-0.2-0.064-0.296-0.096c-0.84-10.144-5.832-19.032-13.352-25.04     C337.608,290.192,342.504,281.712,343.592,272z M313.688,232.568C311.824,232.272,309.944,232,308,232h-13.136     c-0.624-2.416-1.544-4.688-2.688-6.856C299.704,226.432,306.928,228.968,313.688,232.568z M294.864,248H308     c11.024,0,20,8.968,20,20c0,9.968-7.344,18.184-16.896,19.688c-2.632-12.376-11.04-22.568-22.216-27.816     C291.656,256.408,293.72,252.416,294.864,248z M296,296c0,13.232-10.768,24-24,24h-6.496c4.104-7.072,6.496-15.256,6.496-24     c0-8.744-2.392-16.928-6.496-24H272C285.232,272,296,282.768,296,296z M232,224h32c8.824,0,16,7.176,16,16     c0,8.824-7.176,16-16,16h-13.52c-5.648-3.752-12.136-6.288-19.104-7.376c-1.456-9.384-5.624-17.856-11.696-24.624H232z      M219.68,288c5.752-6.408,9.816-14.336,11.464-23.128C245.352,268.136,256,280.816,256,296c0,15.184-10.648,27.864-24.856,31.128     c-1.648-8.792-5.72-16.728-11.464-23.128H240v-16H219.68z M231.376,343.376c6.968-1.08,13.456-3.624,19.104-7.376H264     c8.824,0,16,7.176,16,16c0,8.824-7.176,16-16,16h-32h-12.32C225.752,361.232,229.92,352.76,231.376,343.376z M64,256     c0-4.416,3.592-8,8-8s8,3.584,8,8v56h16v-56c0-6.288-2.48-11.968-6.456-16.256C111.08,229.464,134.672,224,158.648,224H176h8     c17.648,0,32,14.352,32,32s-14.352,32-32,32h-8v16h8c17.648,0,32,14.352,32,32s-14.352,32-32,32h-8h-17.352     c-23.976,0-47.568-5.464-69.104-15.744C93.52,347.968,96,342.288,96,336v-8H80v8c0,4.416-3.592,8-8,8s-8-3.584-8-8V256z      M366.864,40H380c11.024,0,20,8.968,20,20c0,9.968-7.344,18.184-16.896,19.688c-2.632-12.376-11.04-22.568-22.216-27.816     C363.656,48.408,365.72,44.416,366.864,40z M350.296,39.048c-1.816,3.656-4.96,6.512-8.824,7.928     c-1.832-4.688-4.536-8.936-8.04-12.432C338.984,36.68,344.608,38.272,350.296,39.048z M313.688,24.568     C311.824,24.272,309.944,24,308,24h-13.136c-0.624-2.416-1.544-4.688-2.688-6.856C299.704,18.432,306.928,20.968,313.688,24.568z      M265.504,64H272c13.232,0,24,10.768,24,24s-10.768,24-24,24h-6.496c4.104-7.072,6.496-15.256,6.496-24     S269.608,71.072,265.504,64z M232,16h32c8.824,0,16,7.176,16,16s-7.176,16-16,16h-13.52c-5.648-3.752-12.136-6.288-19.104-7.376     C229.92,31.24,225.752,22.768,219.68,16H232z M219.68,80c5.752-6.408,9.816-14.336,11.464-23.128     C245.352,60.136,256,72.816,256,88s-10.648,27.864-24.856,31.128c-1.648-8.792-5.72-16.728-11.464-23.128H240V80H219.68z M80,128     c0,4.416-3.592,8-8,8s-8-3.584-8-8V48c0-4.416,3.592-8,8-8s8,3.584,8,8V128z M184,96c17.648,0,32,14.352,32,32s-14.352,32-32,32     h-8h-17.352c-23.976,0-47.568-5.464-69.104-15.744C93.52,139.968,96,134.288,96,128V48c0-6.288-2.48-11.968-6.456-16.256     C111.08,21.464,134.672,16,158.648,16H176h8c17.648,0,32,14.352,32,32s-14.352,32-32,32h-8v16H184z M264,160h-32h-12.32     c6.072-6.768,10.24-15.24,11.696-24.624c6.968-1.08,13.456-3.624,19.104-7.376H264c8.824,0,16,7.176,16,16     C280,152.824,272.824,160,264,160z M292.168,158.848c1.152-2.16,2.072-4.432,2.696-6.848H308c1.944,0,3.816-0.272,5.68-0.576     C306.92,155.024,299.704,157.56,292.168,158.848z M308,136h-13.136c-1.144-4.416-3.208-8.408-5.976-11.872     c11.176-5.248,19.584-15.44,22.216-27.816C320.656,97.816,328,106.032,328,116C328,127.032,319.024,136,308,136z M311.104,79.688     c-2.632-12.376-11.04-22.568-22.216-27.816c2.768-3.464,4.832-7.456,5.976-11.872H308c11.024,0,20,8.968,20,20     C328,69.968,320.656,78.184,311.104,79.688z M333.44,141.456c3.496-3.496,6.2-7.744,8.032-12.432     c3.872,1.416,7.008,4.272,8.824,7.928C344.608,137.728,338.984,139.312,333.44,141.456z M344,112v1.136     c-0.104-0.024-0.2-0.064-0.296-0.096c-0.84-10.144-5.832-19.032-13.352-25.04c7.256-5.808,12.152-14.288,13.248-24h0.4     c13.232,0,24,10.768,24,24S357.232,112,344,112z M380,136h-13.136c-1.144-4.416-3.208-8.408-5.976-11.872     c11.184-5.248,19.592-15.44,22.216-27.816C392.656,97.816,400,106.032,400,116C400,127.032,391.024,136,380,136z M479.568,160     H440c-13.704,0-27.032-3.872-38.544-11.2c-1.104-0.704-2.256-1.2-3.376-1.848C408.744,140.688,416,129.232,416,116     c0-7.472-2.296-14.416-6.208-20.176l5.416,0.536C449.456,99.768,475.896,126.496,479.568,160z M402.352,88     c2.096-1.672,3.976-3.56,5.648-5.648v11.304C406.328,91.56,404.44,89.672,402.352,88z M415.208,79.632l-5.416,0.536     C413.704,74.416,416,67.472,416,60c0-13.232-7.256-24.696-17.92-30.952c1.12-0.648,2.272-1.144,3.376-1.848     C412.968,19.872,426.296,16,440,16h39.568C475.896,49.504,449.456,76.232,415.208,79.632z"/>
			<path d="M136,304c17.648,0,32-14.352,32-32s-14.352-32-32-32s-32,14.352-32,32S118.352,304,136,304z M136,256     c8.824,0,16,7.176,16,16c0,8.824-7.176,16-16,16c-8.824,0-16-7.176-16-16C120,263.176,127.176,256,136,256z"/>
		</g>
	</g>
</g>
<g>
</g>
<g>
</g>
<g>
</g>
<g>
</g>
<g>
</g>
<g>
</g>
<g>
</g>
<g>
</g>
<g>
</g>
<g>
</g>
<g>
</g>
<g>
</g>
<g>
</g>
<g>
</g>
<g>
</g>
</svg>
