<svg xmlns="http://www.w3.org/2000/svg" viewBox="0 0 496 496"><path d="M473.192 352c4.392-10.04 6.808-20.864 6.808-32 0-26.088-12.616-49.232-32-63.848V256h-.208c-11.776-8.824-26.024-14.472-41.536-15.68 1.12-5.352 1.744-10.792 1.744-16.32 0-26.088-12.616-49.232-32-63.848V160h-.208c-13.352-10-29.864-16-47.792-16-44.112 0-80 35.888-80 80 0 5.528.624 10.976 1.736 16.32C208.552 243.536 176 278.008 176 320c0 11.136 2.416 21.96 6.808 32H160v40c0 57.344 46.656 104 104 104h128c57.344 0 104-46.656 104-104v-40h-22.808zM448 284v-6.192c9.928 11.28 16 26.024 16 42.192 0 11.36-3.12 22.288-8.76 32H344.752c-5.632-9.712-8.752-20.648-8.752-32a63.512 63.512 0 0 1 8-30.912V304c0 17.648 14.352 32 32 32 15.912 0 29.144-11.672 31.592-26.896A27.95 27.95 0 0 0 420 312c15.44 0 28-12.56 28-28zm-16-19.344V284c0 6.616-5.384 12-12 12s-12-5.384-12-12h-16v20c0 8.824-7.176 16-16 16s-16-7.176-16-16v-33.88c10.968-8.816 24.872-14.12 40-14.12 11.664 0 22.576 3.184 32 8.656zM288 174.12c10.968-8.816 24.872-14.12 40-14.12 11.664 0 22.576 3.184 32 8.656V188c0 6.616-5.384 12-12 12s-12-5.384-12-12h-16v20c0 8.824-7.176 16-16 16s-16-7.176-16-16v-33.88zm-16 18.968V208c0 17.648 14.352 32 32 32 15.912 0 29.144-11.672 31.592-26.896A27.95 27.95 0 0 0 348 216c15.44 0 28-12.56 28-28v-6.192c9.928 11.28 16 26.024 16 42.192 0 5.696-.768 11.304-2.232 16.728-27.28 3.504-50.248 20.776-61.768 44.632a80.337 80.337 0 0 0-24-29.208V256h-.208c-10.768-8.064-23.592-13.472-37.56-15.272A63.825 63.825 0 0 1 264 224a63.512 63.512 0 0 1 8-30.912zm-56 77.032c10.968-8.816 24.872-14.12 40-14.12 11.664 0 22.576 3.184 32 8.656V284c0 6.616-5.384 12-12 12s-12-5.384-12-12h-16v20c0 8.824-7.176 16-16 16s-16-7.176-16-16v-33.88zm-16 18.968V304c0 17.648 14.352 32 32 32 15.912 0 29.144-11.672 31.592-26.896A27.95 27.95 0 0 0 276 312c15.44 0 28-12.56 28-28v-6.192c9.928 11.28 16 26.024 16 42.192 0 11.352-3.12 22.288-8.76 32H200.76c-5.64-9.72-8.76-20.648-8.76-32a63.512 63.512 0 0 1 8-30.912zM480 392c0 48.52-39.48 88-88 88H264c-48.52 0-88-39.48-88-88v-24h304v24z"/><path d="M458.056 394.672l-15.08-5.344C430.536 424.424 397.192 448 360 448v16c43.952 0 83.36-27.856 98.056-69.328zM328 448h16v16h-16zM300 64c11.024 0 20 8.968 20 20v44h16V84c0-19.848-16.152-36-36-36-11.024 0-20-8.968-20-20V0h-16v28c0 19.848 16.152 36 36 36zM228 64c11.024 0 20 8.968 20 20v44h16V84c0-19.848-16.152-36-36-36-11.024 0-20-8.968-20-20V0h-16v28c0 19.848 16.152 36 36 36zM372 64c11.024 0 20 8.968 20 20v44h16V84c0-19.848-16.152-36-36-36-11.024 0-20-8.968-20-20V0h-16v28c0 19.848 16.152 36 36 36zM128 64c0-35.288-28.712-64-64-64S0 28.712 0 64c0 24.08 13.384 45.08 33.088 56C13.384 130.92 0 151.92 0 176s13.384 45.08 33.088 56C13.384 242.92 0 263.92 0 288c0 32.576 24.48 59.488 56 63.448V496h16V351.448c31.52-3.96 56-30.872 56-63.448 0-24.08-13.384-45.08-33.088-56C114.616 221.08 128 200.08 128 176s-13.384-45.08-33.088-56C114.616 109.08 128 88.08 128 64zM32 28.32C40.504 20.688 51.696 16 64 16c8.744 0 16.928 2.392 24 6.496V64c0 4.416-3.592 8-8 8s-8-3.584-8-8V32H56v12c0 6.616-5.384 12-12 12s-12-5.384-12-12V28.32zM112 288c0 26.472-21.528 48-48 48s-48-21.528-48-48 21.528-48 48-48 48 21.528 48 48zm0-112c0 26.472-21.528 48-48 48s-48-21.528-48-48 21.528-48 48-48 48 21.528 48 48zm-48-64c-26.472 0-48-21.528-48-48 0-3.976.544-7.824 1.456-11.52C21.072 63.76 31.536 72 44 72c4.496 0 8.76-1.072 12.528-2.96C58.848 79.856 68.496 88 80 88c13.232 0 24-10.768 24-24V37.52c5.048 7.6 8 16.696 8 26.48 0 26.472-21.528 48-48 48z"/></svg>