<svg xmlns="http://www.w3.org/2000/svg" viewBox="0 0 496 496"><path d="M456 64H288V40c0-22.056-17.944-40-40-40H40C17.944 0 0 17.944 0 40v352c0 22.056 17.944 40 40 40h168v24c0 22.056 17.944 40 40 40h208c22.056 0 40-17.944 40-40V104c0-22.056-17.944-40-40-40zM287.992 80h168c13.232 0 24 10.768 24 24v173.888c-19.936-43.112-53.544-87.904-71.296-110.144-6.496-8.128-15.592-13.376-25.624-15.08C379.728 138.552 367.112 128 352 128s-27.728 10.552-31.072 24.664c-10.032 1.704-19.136 6.952-25.632 15.08-2.464 3.088-4.88 6.232-7.304 9.368V80zM368 160c0 8.824-7.176 16-16 16s-16-7.176-16-16 7.176-16 16-16 16 7.176 16 16zm-38.56 22.664a41.304 41.304 0 0 0-10.04 9.2c-8.576 10.968-19.92 26.232-31.4 43.664v-31.84a772.899 772.899 0 0 1 19.808-25.96c3.52-4.416 8.312-7.408 13.616-8.8 1.536 5.24 4.24 9.984 8.016 13.736zM16 40c0-13.232 10.768-24 24-24h208c13.232 0 24 10.768 24 24v173.888c-19.944-43.112-53.552-87.904-71.304-110.144-6.496-8.128-15.592-13.376-25.624-15.08C171.728 74.552 159.112 64 144 64s-27.728 10.552-31.072 24.664c-10.032 1.704-19.136 6.952-25.632 15.08-17.744 22.24-51.36 67.032-71.296 110.144V40zm256 232v38.528c-9.288-3.312-16-12.112-16-22.528 0-52.808-55.528-129.576-79.4-160.136a41.304 41.304 0 0 0-10.04-9.2c3.776-3.752 6.48-8.496 8.016-13.736 5.304 1.392 10.088 4.392 13.616 8.8C207.848 138.36 272 222.56 272 272zM160 96c0 8.824-7.176 16-16 16s-16-7.176-16-16 7.176-16 16-16 16 7.176 16 16zM16 272c0-49.44 64.152-133.64 83.808-158.272 3.528-4.408 8.312-7.408 13.616-8.8 1.536 5.24 4.24 9.984 8.016 13.736a41.304 41.304 0 0 0-10.04 9.2C87.528 158.424 32 235.192 32 288c0 10.416-6.712 19.216-16 22.528V272zm24 144c-13.232 0-24-10.768-24-24v-64.808c18.232-3.72 32-19.88 32-39.192 0-49.168 58.176-127.464 76.008-150.288C128.832 131.536 136.12 128 144 128s15.168 3.536 19.992 9.712C181.824 160.536 240 238.832 240 288c0 19.312 13.768 35.472 32 39.192V392c0 13.232-10.768 24-24 24H40zm440 40c0 13.232-10.768 24-24 24H248c-13.232 0-24-10.768-24-24v-24h24c22.056 0 40-17.944 40-40V265.688c16.072-27.176 34.392-51.656 44.008-63.976C336.832 195.536 344.12 192 352 192s15.168 3.536 19.992 9.712C389.824 224.536 448 302.832 448 352c0 19.312 13.768 35.472 32 39.192V456zm0-81.472c-9.288-3.312-16-12.112-16-22.528 0-52.808-55.528-129.576-79.4-160.136a41.304 41.304 0 0 0-10.04-9.2c3.776-3.752 6.48-8.496 8.016-13.736 5.304 1.392 10.088 4.392 13.616 8.8C415.848 202.36 480 286.56 480 336v38.528z"/></svg>