<svg xmlns="http://www.w3.org/2000/svg" viewBox="0 0 496.072 496.072"><path d="M232.145 280.072c-26.472 0-48-21.528-48-48h-16c0 35.288 28.712 64 64 64s64-28.712 64-64h-16c0 26.472-21.528 48-48 48z"/><path d="M449.833 63.928l-95.928 3.616c-5.416-8.584-11.64-16.584-18.688-23.816l103.136 4.008 11.032.264c.4.008.792.016 1.176.016 9.496 0 17.616-2.848 22.976-8.088 4.328-4.224 6.608-9.728 6.608-15.928 0-6.168-2.24-11.648-6.488-15.832-5.448-5.376-13.6-8.144-23.832-8.168L275.609 6.808A143.526 143.526 0 0 0 232.145.072h-216v8c0 5.04-.048 10.432-.104 16.088-.592 64.112-1.536 170.296 72.104 197.616v40.608c0 31.96 13.24 61.896 35.896 83.536-32.12 8.776-58.368 33.608-68.408 65.76l-26.368 84.392h405.76l-26.376-84.392c-10.04-32.152-36.288-56.984-68.408-65.76 22.664-21.64 35.904-51.576 35.904-83.536V144.072c0-12.096-1.664-23.776-4.48-35.008l66.688 2.584 11.032.272c.448.008.88.016 1.32.016 9.784 0 17.68-2.68 22.912-7.792 4.272-4.168 6.528-9.776 6.528-16.216 0-6.416-2.216-12-6.416-16.152-5.32-5.248-13.376-7.896-23.896-7.848zm-11.192-47.784L450.025 16c5.744-.072 10.072 1.256 12.392 3.544 1.184 1.168 1.728 2.584 1.728 4.456 0 1.856-.56 3.28-1.784 4.472-2.4 2.344-7.168 3.712-12.592 3.52l-133.312-5.008-.024.584a141.618 141.618 0 0 0-9.064-6.048l131.272-5.376zM31.937 48.072h16.208v-16H31.977c.024-2.632.04-5.232.064-7.768l.072-8.232h134.368c-8.768 4.52-17.032 9.856-24.64 16H64.145v16h60.976c-4.544 5.056-8.824 10.336-12.624 16h-80.36a777.32 777.32 0 0 1-.2-16zm88.544 190.632c-9.464-3.216-16.336-12.096-16.336-22.632 0-10.416 6.712-19.216 16-22.528v38.528c0 2.24.208 4.424.336 6.632zm-32.336-34.272c-13.48-6.312-23.776-16.152-31.592-28.36h31.592v28.36zm.944-76.36H72.145v16h16v16H48.169c-2.184-5.104-4.08-10.456-5.728-16h13.704v-16H38.457c-1.08-5.248-2-10.584-2.76-16h56.16c-1.192 5.24-2.16 10.56-2.768 16zm7.456-32H33.873a429.934 429.934 0 0 1-1.136-16h70.608a142.04 142.04 0 0 0-6.8 16zm7.6 166.312v-14.52c5.312 4.024 11.608 6.688 18.512 7.648 6.704 31.328 26.568 57.776 53.488 73.4v8.288l-31.904 4.912c-25.128-18.8-40.096-48.12-40.096-79.728zM248.089 393.64l-3.184-3.016 38.024-38.024 13.32 2.048-48.16 38.992zm66.576-33.312c7.616 1.216 13.48 7.784 13.48 15.744 0 8.824-7.176 16-16 16s-16-7.176-16-16c0-.28.056-.536.072-.808l18.448-14.936zM161.793 355.6l19.696-3.032 104.496 99L161.793 355.6zm54.192 62.088c-.824 8.056-7.576 14.384-15.84 14.384-8.824 0-16-7.176-16-16 0-6.664 4.184-12.608 10.4-14.952l21.44 16.568zm-23.84-77.056v-4.072c12.44 4.784 25.896 7.512 40 7.512s27.56-2.728 40-7.512v4.2l-38.856 38.856-41.144-38.984zm40-12.56c-52.936 0-96-43.064-96-96v-72c0-4.416 3.584-8 8-8h46.312c36.304 0 71.544-9.832 102.496-28.496l1.304 2.608c6.776 13.536 19.344 22.736 33.888 25.216v80.672c0 52.936-43.064 96-96 96zM70.897 416.448c1.416-4.528 3.328-8.816 5.472-12.96 7.136 4.232 11.776 11.944 11.776 20.584 0 13.232-10.768 24-24 24-1.016 0-1.992-.264-3-.392l9.752-31.232zm58.312 63.624l6.872-55.008-15.872-1.984-7.128 56.992H51.025l5.272-16.864c2.576.52 5.192.864 7.848.864 22.056 0 40-17.944 40-40 0-14.16-7.472-26.848-19.048-33.992 12.8-16.144 31.296-27.496 52.176-30.704l2.712-.416 40.88 31.592c-7.856 5.944-12.72 15.328-12.72 25.52 0 17.648 14.352 32 32 32 13.32 0 24.744-8.184 29.552-19.784l67.016 51.784H129.209zm279.056-15.992l5 15.992h-21.12c0-8.824 7.176-16 16-16 .04 0 .08.008.12.008zm-66.92-100.968c24.464 8.512 44.184 28.208 52.04 53.336l10.032 32.104c-15.4 2.304-27.272 15.488-27.272 31.52h-24.936l-7.128-56.992-15.872 1.984 6.304 50.448-74.704-70.776 22.288-18.048c4.4 12.416 16.144 21.384 30.048 21.384 17.648 0 32-14.352 32-32 0-4.624-1.032-8.992-2.8-12.96zm18.8-100.72c0 31.6-14.968 60.92-40.096 79.728l-31.904-4.912v-8.288c26.92-15.624 46.784-42.072 53.488-73.4 6.904-.96 13.2-3.632 18.512-7.648v14.52zm-16.336-23.688c.128-2.208.336-4.392.336-6.632v-38.528c9.288 3.312 16 12.112 16 22.528 0 10.536-6.872 19.416-16.336 22.632zm16.336-54.424c-4.672-3.536-10.056-6.184-16-7.392v-40.816h-8c-11.76 0-22.32-6.528-27.576-17.048l-9.32-18.64-7.536 5.032c-30.08 20.056-65.096 30.656-101.256 30.656h-46.312c-13.232 0-24 10.768-24 24v16.808c-5.944 1.216-11.328 3.856-16 7.392v-40.2c0-70.576 57.424-128 128-128s128 57.424 128 128v40.208zm102.288-91.584c-2.24 2.192-6.888 3.328-12.664 3.224l-83.208-3.072a147.053 147.053 0 0 0-4.104-9.664l76.184-3.112 11.384-.144c6.08.112 10.312 1.12 12.456 3.232.72.712 1.664 1.976 1.664 4.768 0 2.784-.976 4.056-1.712 4.768z"/><path d="M200.145 184.072c0-13.232-10.768-24-24-24s-24 10.768-24 24 10.768 24 24 24 24-10.768 24-24zm-32 0c0-4.416 3.584-8 8-8s8 3.584 8 8-3.584 8-8 8-8-3.584-8-8zM288.145 208.072c13.232 0 24-10.768 24-24s-10.768-24-24-24-24 10.768-24 24 10.768 24 24 24zm0-32c4.416 0 8 3.584 8 8s-3.584 8-8 8-8-3.584-8-8 3.584-8 8-8z"/></svg>