<?xml version="1.0" encoding="iso-8859-1"?>
<!-- Generator: Adobe Illustrator 19.0.0, SVG Export Plug-In . SVG Version: 6.00 Build 0)  -->
<svg xmlns="http://www.w3.org/2000/svg" xmlns:xlink="http://www.w3.org/1999/xlink" version="1.1" id="Capa_1" x="0px" y="0px" viewBox="0 0 496.072 496.072" style="enable-background:new 0 0 496.072 496.072;" xml:space="preserve">
<g>
	<g>
		<g>
			<path d="M232.145,280.072c-26.472,0-48-21.528-48-48h-16c0,35.288,28.712,64,64,64c35.288,0,64-28.712,64-64h-16     C280.145,258.544,258.617,280.072,232.145,280.072z"/>
			<path d="M449.833,63.928l-95.928,3.616c-5.416-8.584-11.64-16.584-18.688-23.816l103.136,4.008L449.385,48     c0.4,0.008,0.792,0.016,1.176,0.016c9.496,0,17.616-2.848,22.976-8.088c4.328-4.224,6.608-9.728,6.608-15.928     c0-6.168-2.24-11.648-6.488-15.832c-5.448-5.376-13.6-8.144-23.832-8.168L275.609,6.808c-13.72-4.352-28.32-6.736-43.464-6.736     h-216v8c0,5.04-0.048,10.432-0.104,16.088c-0.592,64.112-1.536,170.296,72.104,197.616v40.608     c0,31.96,13.24,61.896,35.896,83.536c-32.12,8.776-58.368,33.608-68.408,65.76l-26.368,84.392h405.76l-26.376-84.392     c-10.04-32.152-36.288-56.984-68.408-65.76c22.664-21.64,35.904-51.576,35.904-83.536v-46.312v-72     c0-12.096-1.664-23.776-4.48-35.008l66.688,2.584l11.032,0.272c0.448,0.008,0.88,0.016,1.32,0.016     c9.784,0,17.68-2.68,22.912-7.792c4.272-4.168,6.528-9.776,6.528-16.216c0-6.416-2.216-12-6.416-16.152     C468.409,66.528,460.353,63.88,449.833,63.928z M438.641,16.144L450.025,16c5.744-0.072,10.072,1.256,12.392,3.544     c1.184,1.168,1.728,2.584,1.728,4.456c0,1.856-0.56,3.28-1.784,4.472c-2.4,2.344-7.168,3.712-12.592,3.52l-133.312-5.008     l-0.024,0.584c-2.936-2.136-5.96-4.136-9.064-6.048L438.641,16.144z M31.937,48.072h16.208v-16H31.977     c0.024-2.632,0.04-5.232,0.064-7.768c0.024-2.808,0.048-5.56,0.072-8.232h134.368c-8.768,4.52-17.032,9.856-24.64,16H64.145v16     h60.976c-4.544,5.056-8.824,10.336-12.624,16h-80.36C32.009,58.656,31.953,53.312,31.937,48.072z M120.481,238.704     c-9.464-3.216-16.336-12.096-16.336-22.632c0-10.416,6.712-19.216,16-22.528v38.528     C120.145,234.312,120.353,236.496,120.481,238.704z M88.145,204.432c-13.48-6.312-23.776-16.152-31.592-28.36h31.592V204.432z      M89.089,128.072H72.145v16h16v16H48.169c-2.184-5.104-4.08-10.456-5.728-16h13.704v-16H38.457c-1.08-5.248-2-10.584-2.76-16     h56.16C90.665,117.312,89.697,122.632,89.089,128.072z M96.545,96.072H33.873c-0.48-5.328-0.856-10.672-1.136-16h70.608     C100.761,85.24,98.497,90.576,96.545,96.072z M104.145,262.384v-14.52c5.312,4.024,11.608,6.688,18.512,7.648     c6.704,31.328,26.568,57.776,53.488,73.4v8.288l-31.904,4.912C119.113,323.312,104.145,293.992,104.145,262.384z M248.089,393.64     l-3.184-3.016l38.024-38.024l13.32,2.048L248.089,393.64z M314.665,360.328c7.616,1.216,13.48,7.784,13.48,15.744     c0,8.824-7.176,16-16,16c-8.824,0-16-7.176-16-16c0-0.28,0.056-0.536,0.072-0.808L314.665,360.328z M161.793,355.6l19.696-3.032     l104.496,99L161.793,355.6z M215.985,417.688c-0.824,8.056-7.576,14.384-15.84,14.384c-8.824,0-16-7.176-16-16     c0-6.664,4.184-12.608,10.4-14.952L215.985,417.688z M192.145,340.632v-4.072c12.44,4.784,25.896,7.512,40,7.512     s27.56-2.728,40-7.512v4.2l-38.856,38.856L192.145,340.632z M232.145,328.072c-52.936,0-96-43.064-96-96v-72c0-4.416,3.584-8,8-8     h46.312c36.304,0,71.544-9.832,102.496-28.496l1.304,2.608c6.776,13.536,19.344,22.736,33.888,25.216v80.672     C328.145,285.008,285.081,328.072,232.145,328.072z M70.897,416.448c1.416-4.528,3.328-8.816,5.472-12.96     c7.136,4.232,11.776,11.944,11.776,20.584c0,13.232-10.768,24-24,24c-1.016,0-1.992-0.264-3-0.392L70.897,416.448z      M129.209,480.072l6.872-55.008l-15.872-1.984l-7.128,56.992H51.025l5.272-16.864c2.576,0.52,5.192,0.864,7.848,0.864     c22.056,0,40-17.944,40-40c0-14.16-7.472-26.848-19.048-33.992c12.8-16.144,31.296-27.496,52.176-30.704l2.712-0.416     l40.88,31.592c-7.856,5.944-12.72,15.328-12.72,25.52c0,17.648,14.352,32,32,32c13.32,0,24.744-8.184,29.552-19.784     l67.016,51.784H129.209z M408.265,464.08l5,15.992h-21.12c0-8.824,7.176-16,16-16C408.185,464.072,408.225,464.08,408.265,464.08     z M341.345,363.112c24.464,8.512,44.184,28.208,52.04,53.336l10.032,32.104c-15.4,2.304-27.272,15.488-27.272,31.52h-24.936     l-7.128-56.992l-15.872,1.984l6.304,50.448l-74.704-70.776l22.288-18.048c4.4,12.416,16.144,21.384,30.048,21.384     c17.648,0,32-14.352,32-32C344.145,371.448,343.113,367.08,341.345,363.112z M360.145,262.392c0,31.6-14.968,60.92-40.096,79.728     l-31.904-4.912v-8.288c26.92-15.624,46.784-42.072,53.488-73.4c6.904-0.96,13.2-3.632,18.512-7.648V262.392z M343.809,238.704     c0.128-2.208,0.336-4.392,0.336-6.632v-38.528c9.288,3.312,16,12.112,16,22.528C360.145,226.608,353.273,235.488,343.809,238.704     z M360.145,184.28c-4.672-3.536-10.056-6.184-16-7.392v-40.816h-8c-11.76,0-22.32-6.528-27.576-17.048l-9.32-18.64l-7.536,5.032     c-30.08,20.056-65.096,30.656-101.256,30.656h-46.312c-13.232,0-24,10.768-24,24v16.808c-5.944,1.216-11.328,3.856-16,7.392     v-40.2c0-70.576,57.424-128,128-128s128,57.424,128,128V184.28z M462.433,92.696c-2.24,2.192-6.888,3.328-12.664,3.224     l-83.208-3.072c-1.256-3.28-2.624-6.496-4.104-9.664l76.184-3.112l11.384-0.144c6.08,0.112,10.312,1.12,12.456,3.232     c0.72,0.712,1.664,1.976,1.664,4.768C464.145,90.712,463.169,91.984,462.433,92.696z"/>
			<path d="M200.145,184.072c0-13.232-10.768-24-24-24s-24,10.768-24,24s10.768,24,24,24S200.145,197.304,200.145,184.072z      M168.145,184.072c0-4.416,3.584-8,8-8s8,3.584,8,8s-3.584,8-8,8S168.145,188.488,168.145,184.072z"/>
			<path d="M288.145,208.072c13.232,0,24-10.768,24-24s-10.768-24-24-24s-24,10.768-24,24S274.913,208.072,288.145,208.072z      M288.145,176.072c4.416,0,8,3.584,8,8s-3.584,8-8,8c-4.416,0-8-3.584-8-8S283.729,176.072,288.145,176.072z"/>
		</g>
	</g>
</g>
<g>
</g>
<g>
</g>
<g>
</g>
<g>
</g>
<g>
</g>
<g>
</g>
<g>
</g>
<g>
</g>
<g>
</g>
<g>
</g>
<g>
</g>
<g>
</g>
<g>
</g>
<g>
</g>
<g>
</g>
</svg>
