<svg xmlns="http://www.w3.org/2000/svg" viewBox="0 0 496 496"><path d="M400 304v-32h64c17.648 0 32-14.352 32-32s-14.352-32-32-32h-64v-32h-16v32h-16v-96h16v32h16v-32h64c17.648 0 32-14.352 32-32s-14.352-32-32-32h-64V16h-16v32h-16V0h-48v48.08a2675.822 2675.822 0 0 0-144 4.544V0h-48v55.832c-25.32 1.936-50.592 4.192-75.736 6.84a45.336 45.336 0 0 0-27.232 12.984L5.464 95.224A18.518 18.518 0 0 0 0 108.408c0 5.208 2.2 10.216 6.048 13.736a18.636 18.636 0 0 0 14.2 4.816l57.4-4.984c16.728-1.456 33.528-2.688 50.352-3.824v97.68c-25.32 1.936-50.592 4.192-75.736 6.84a45.336 45.336 0 0 0-27.232 12.984L5.464 255.224A18.518 18.518 0 0 0 0 268.408c0 5.208 2.2 10.216 6.048 13.736a18.636 18.636 0 0 0 14.2 4.816l57.4-4.984c16.728-1.456 33.528-2.688 50.352-3.824V432H80c-8.824 0-16-7.176-16-16s7.176-16 16-16 16 7.176 16 16h16c0-17.648-14.352-32-32-32s-32 14.352-32 32c0 5.856 1.696 11.272 4.448 16H40c-22.056 0-40 17.944-40 40v24h63.12l1.888-5.32C67.272 484.288 73.304 480 80 480s12.728 4.288 14.992 10.68L96.88 496h302.24l1.888-5.32C403.272 484.288 409.304 480 416 480c6.696 0 12.728 4.288 14.992 10.68l1.888 5.32H496v-24c0-22.056-17.944-40-40-40h-12.448c2.752-4.728 4.448-10.144 4.448-16 0-17.648-14.352-32-32-32s-32 14.352-32 32h16c0-8.824 7.176-16 16-16s16 7.176 16 16-7.176 16-16 16h-48V272h16v32h16zm64-80c8.824 0 16 7.176 16 16s-7.176 16-16 16v-32zm-32 0h16v32h-16v-32zm-32 0h16v32h-16v-32zm64-160c8.824 0 16 7.176 16 16s-7.176 16-16 16V64zm-32 0h16v32h-16V64zm-32 0h16v32h-16V64zm-64-48h16v32h-16V16zm-192 0h16v37.56c-5.336.344-10.664.736-16 1.112V16zm-67.744 90.04l-57.408 4.984c-.936.088-1.68-.392-2-.68a2.585 2.585 0 0 1-.848-1.936c0-.704.272-1.368.776-1.864l19.568-19.568a29.328 29.328 0 0 1 17.592-8.392C145.832 68.904 239.28 64 331.672 64H384v32h-32V80h-16v16h-28.52c-48.984 0-98.32 1.528-147.48 4.24V88h-16v13.112c-22.648 1.384-45.256 2.968-67.744 4.928zM352 112v96h-16v-96h16zm-32 0v96.08a2675.822 2675.822 0 0 0-144 4.544V115.4c43.856-2.176 87.808-3.4 131.48-3.4H320zm-160 4.272v97.296c-5.336.344-10.664.736-16 1.112v-97.544c5.328-.328 10.664-.568 16-.864zM456 448c13.232 0 24 10.768 24 24v8h-36.392c-5.64-9.76-16.128-16-27.608-16s-21.968 6.24-27.608 16H107.608c-5.64-9.76-16.128-16-27.608-16s-21.968 6.24-27.608 16H16v-8c0-13.232 10.768-24 24-24h416zm-312-16V277.136c5.328-.328 10.664-.568 16-.864V432h-16zm106.336-48h-4.672c-21.344 0-40.528 11.856-50.088 30.952A30.624 30.624 0 0 1 176 430.928V275.4c43.856-2.176 87.808-3.4 131.48-3.4H320v158.928c-8.4-2.232-15.552-7.92-19.576-15.976C290.864 395.856 271.68 384 250.336 384zm42.464 48h-89.6c2.584-2.968 4.872-6.248 6.696-9.888 6.816-13.64 20.528-22.112 35.768-22.112h4.672c15.24 0 28.952 8.472 35.776 22.112 1.816 3.64 4.104 6.92 6.688 9.888zm43.2 0V272h16v160h-16zm16-176v-16h-16v16h-28.52c-48.984 0-98.32 1.528-147.48 4.24V248h-16v13.112c-22.648 1.384-45.256 2.968-67.744 4.928l-57.408 4.984c-.936.08-1.68-.392-2-.68a2.585 2.585 0 0 1-.848-1.936c0-.704.272-1.368.776-1.864l19.568-19.568a29.328 29.328 0 0 1 17.592-8.392C145.832 228.904 239.28 224 331.672 224H384v32h-32z"/></svg>