<?xml version="1.0" encoding="iso-8859-1"?>
<!-- Generator: Adobe Illustrator 19.0.0, SVG Export Plug-In . SVG Version: 6.00 Build 0)  -->
<svg xmlns="http://www.w3.org/2000/svg" xmlns:xlink="http://www.w3.org/1999/xlink" version="1.1" id="Capa_1" x="0px" y="0px" viewBox="0 0 496 496" style="enable-background:new 0 0 496 496;" xml:space="preserve">
<g>
	<g>
		<path d="M496,16H163.68C154.88,6.208,142.168,0,128,0c-26.472,0-48,21.528-48,48c0,23.736,17.336,43.448,40,47.28V128H48v36.2    C20.08,174.112,0,200.72,0,232v160c0,31.28,20.08,57.888,48,67.8V496h160v-36.2c27.92-9.912,48-36.52,48-67.8V232    c0-31.28-20.08-57.888-48-67.8V128h-72V95.28c10.92-1.84,20.576-7.368,27.68-15.28H496V64H173.2c1.776-5.016,2.8-10.384,2.8-16    s-1.024-10.984-2.8-16H496V16z M192,480H64v-16.472c2.632,0.296,5.296,0.472,8,0.472h112c2.704,0,5.368-0.176,8-0.472V480z     M240,392h-16v16h13.64c-6.904,23.096-28.32,40-53.64,40H72c-25.32,0-46.736-16.904-53.64-40H208v-16H16v-40h224V392z M240,280H48    v16h192v40H16v-40h16v-16H16v-40h224V280z M239.36,224H16.64c3.904-27.088,27.208-48,55.36-48h112    C212.152,176,235.456,196.912,239.36,224z M192,144v16.472c-2.632-0.296-5.296-0.472-8-0.472H72c-2.704,0-5.368,0.176-8,0.472V144    H192z M128,80c-17.648,0-32-14.352-32-32s14.352-32,32-32s32,14.352,32,32S145.648,80,128,80z"/>
	</g>
</g>
<g>
</g>
<g>
</g>
<g>
</g>
<g>
</g>
<g>
</g>
<g>
</g>
<g>
</g>
<g>
</g>
<g>
</g>
<g>
</g>
<g>
</g>
<g>
</g>
<g>
</g>
<g>
</g>
<g>
</g>
</svg>
