<svg xmlns="http://www.w3.org/2000/svg" viewBox="0 0 496 496"><path d="M496 16H163.68C154.88 6.208 142.168 0 128 0c-26.472 0-48 21.528-48 48 0 23.736 17.336 43.448 40 47.28V128H48v36.2C20.08 174.112 0 200.72 0 232v160c0 31.28 20.08 57.888 48 67.8V496h160v-36.2c27.92-9.912 48-36.52 48-67.8V232c0-31.28-20.08-57.888-48-67.8V128h-72V95.28c10.92-1.84 20.576-7.368 27.68-15.28H496V64H173.2c1.776-5.016 2.8-10.384 2.8-16s-1.024-10.984-2.8-16H496V16zM192 480H64v-16.472c2.632.296 5.296.472 8 .472h112c2.704 0 5.368-.176 8-.472V480zm48-88h-16v16h13.64c-6.904 23.096-28.32 40-53.64 40H72c-25.32 0-46.736-16.904-53.64-40H208v-16H16v-40h224v40zm0-112H48v16h192v40H16v-40h16v-16H16v-40h224v40zm-.64-56H16.64c3.904-27.088 27.208-48 55.36-48h112c28.152 0 51.456 20.912 55.36 48zM192 144v16.472a71.478 71.478 0 0 0-8-.472H72c-2.704 0-5.368.176-8 .472V144h128zm-64-64c-17.648 0-32-14.352-32-32s14.352-32 32-32 32 14.352 32 32-14.352 32-32 32z"/></svg>