<svg xmlns="http://www.w3.org/2000/svg" viewBox="0 0 496 496"><path d="M64 72v-.208C73.656 64.488 80 53.016 80 40 80 17.944 62.056 0 40 0S0 17.944 0 40c0 13.016 6.344 24.488 16 31.792V496h16V79.192a39.963 39.963 0 0 0 16 0V496h16v-72h432V72H64zm-24-8c-13.232 0-24-10.768-24-24s10.768-24 24-24 24 10.768 24 24-10.768 24-24 24zm440 344H64V88h416v320z"/><path d="M272 360c61.76 0 112-50.24 112-112s-50.24-112-112-112-112 50.24-112 112 50.24 112 112 112zm0-208c52.936 0 96 43.064 96 96s-43.064 96-96 96-96-43.064-96-96 43.064-96 96-96z"/></svg>