<?xml version="1.0" encoding="iso-8859-1"?>
<!-- Generator: Adobe Illustrator 19.0.0, SVG Export Plug-In . SVG Version: 6.00 Build 0)  -->
<svg xmlns="http://www.w3.org/2000/svg" xmlns:xlink="http://www.w3.org/1999/xlink" version="1.1" id="Capa_1" x="0px" y="0px" viewBox="0 0 496 496" style="enable-background:new 0 0 496 496;" xml:space="preserve">
<g>
	<g>
		<g>
			<path d="M64,72v-0.208C73.656,64.488,80,53.016,80,40C80,17.944,62.056,0,40,0C17.944,0,0,17.944,0,40     c0,13.016,6.344,24.488,16,31.792V496h16V79.192C34.584,79.72,37.264,80,40,80s5.416-0.28,8-0.808V496h16v-72h432V72H64z M40,64     c-13.232,0-24-10.768-24-24s10.768-24,24-24s24,10.768,24,24S53.232,64,40,64z M480,408H64V88h416V408z"/>
			<path d="M272,360c61.76,0,112-50.24,112-112s-50.24-112-112-112s-112,50.24-112,112S210.24,360,272,360z M272,152     c52.936,0,96,43.064,96,96c0,52.936-43.064,96-96,96c-52.936,0-96-43.064-96-96C176,195.064,219.064,152,272,152z"/>
		</g>
	</g>
</g>
<g>
</g>
<g>
</g>
<g>
</g>
<g>
</g>
<g>
</g>
<g>
</g>
<g>
</g>
<g>
</g>
<g>
</g>
<g>
</g>
<g>
</g>
<g>
</g>
<g>
</g>
<g>
</g>
<g>
</g>
</svg>
