<svg xmlns="http://www.w3.org/2000/svg" viewBox="0 0 496.928 496.928"><path d="M248.464 296.464c35.288 0 64-28.712 64-64h-16c0 26.472-21.528 48-48 48s-48-21.528-48-48h-16c0 35.288 28.712 64 64 64zM296.464 192.464h16v16h-16zM184.464 192.464h16v16h-16zM144.464 352.464h16v16h-16zM184.464 376.464h16v16h-16zM336.464 352.464h16v16h-16zM296.464 376.464h16v16h-16z"/><path d="M496.928 453.176l-.496-5.44c-8.144-89.56-63.592-153.848-65.952-156.544l-3.728-4.264-5.264 2.104a302.34 302.34 0 0 0-13.28 5.688c-.736-15.472-3.048-28.472-5.04-37.16 42.608-1.24 83.168 6.64 83.728 6.744l9.568 1.912v-9.752c0-81.28-24.112-122.408-25.144-124.12l-2.728-4.552-5.264.752c-13.36 1.912-26.616 5.56-39.168 10.008-2.712-33.096-27.872-59.856-60.2-65.08 20.128-31.808 28.104-62.424 28.264-63.064l2.488-9.944h-74.248v8c0 17.688-3.52 32.816-8.88 45.888-4.872-30.488-31.28-53.888-63.12-53.888-31.744 0-58.088 23.248-63.08 53.6-5.376-13.032-8.92-28.072-8.92-45.6v-8h-74.248l2.488 9.944c.16.64 8.136 31.256 28.264 63.064-32.328 5.224-57.496 31.984-60.2 65.08-12.552-4.448-25.808-8.096-39.168-10.008l-5.264-.752-2.728 4.552C24.576 134.056.464 175.184.464 256.464v9.752l9.568-1.912c.568-.104 41.128-7.992 83.728-6.752-1.992 8.688-4.312 21.688-5.04 37.168a284.173 284.173 0 0 0-13.28-5.688l-5.264-2.104-3.728 4.264C64.088 293.888 8.64 358.184.496 447.736L0 453.176l51.12 25.56-5.536 17.728h405.76l-5.544-17.728 51.128-25.56zm-27.472-57c-15.68 6.792-32.336 17.632-41.88 24.24l-2.608-8.336c-1.88-6.024-4.36-11.744-7.28-17.2 6.712-5.84 22.352-18.08 41.928-24.632 3.528 8.112 6.88 16.744 9.84 25.928zm-16.608-40.512c-19.888 7.016-35.736 18.736-43.928 25.64a97.094 97.094 0 0 0-9.416-10.552c1.76-1.192 3.472-2.392 5.296-3.56l7.224-4.656-5.16-6.872c-.136-.184-.736-.952-1.768-2.136 9.888-6.32 24.92-14.408 37.672-16.48a312.86 312.86 0 0 1 10.08 18.616zM422 306.128c2.744 3.52 6.92 9.16 11.76 16.472-16.248 4.304-32.352 14.096-40.56 19.584-4.112-3.408-9.216-7.208-15.44-11.16 6.112-4.84 20.128-14.688 44.24-24.896zm-269.536-73.664v-68.896c16.304 4.888 49.968 12.896 96 12.896s79.696-8.008 96-12.896v68.896c0 52.936-43.064 96-96 96s-96-43.064-96-96zm14.592 76.68c-12.8 4.08-23.808 8.712-33.128 13.472-1.304-1.272-10.296-9.632-29.432-20.032.192-19.16 3.328-35.232 5.512-44.12 10.728.968 21.248 2.696 31.016 5.384 5.024 17.168 14.072 32.6 26.032 45.296zm81.408-164.68c29.184 0 52.984-9.56 72.256-23.528 5.704 2.048 20.536 8.976 23.272 26-12.76 4.112-47.2 13.528-95.528 13.528s-82.768-9.416-95.52-13.528c2.728-17.048 17.592-23.968 23.264-26 19.272 13.96 43.072 23.528 72.256 23.528zm-24-56c0-13.232 10.768-24 24-24s24 10.768 24 24-10.768 24-24 24-24-10.768-24-24zm131.44 175.392c9.768-2.688 20.296-4.408 31.032-5.384 2.176 8.856 5.304 24.872 5.496 44.12-19.136 10.4-28.128 18.76-29.432 20.032-9.32-4.76-20.32-9.4-33.128-13.472 11.96-12.688 21-28.12 26.032-45.296zm-51.44 80.608v-15.152a112.032 112.032 0 0 0 11.352-7.576c39.784 10.936 62.544 28.16 72.336 37.336-24.624 17.104-43.256 36.288-55.888 57.392h-75.8v-35.72l48-32v-4.28zM460 145.296c5.56 11.856 18.944 45.936 20.344 101.616a449.24 449.24 0 0 0-16.024-2.264c-1.312-40.848-22.952-79.928-30.576-92.448 8.568-2.864 17.384-5.296 26.256-6.904zm-11.76 97.648c-25.752-2.264-59.312-3-88.744 3.512.576-4.592.968-9.248.968-13.992v-43.768c8.128-5.424 30.592-19.632 57.976-30.808 4.04 6.368 27.704 45.32 29.8 85.056zm-39.776-98.48c0 .064-.008.128-.016.192-20.056 8.496-37.104 18.224-47.984 24.992v-17.184c0-22.36-13.6-35.944-26.016-42.848 7.08-6.616 13.408-13.76 19.032-21.104 30.408.56 54.984 25.416 54.984 55.952zm-72.216-128h37.408c-3.944 11.664-11.912 31.944-25.12 51.976-21.744 32.976-48.568 52.496-79.936 58.24 23.824-14.976 64.352-49.224 67.648-110.216zm-135.784 48c0-26.472 21.528-48 48-48s48 21.528 48 48v16h.304c-2.744 3.616-5.6 6.904-8.504 9.984.032-.672.2-1.304.2-1.984 0-22.056-17.944-40-40-40s-40 17.944-40 40c0 .536.136 1.032.16 1.568-2.776-2.976-5.52-6.12-8.16-9.568v-16zm-77.192-48h37.408c3.296 60.992 43.832 95.24 67.648 110.208-31.368-5.744-58.192-25.264-79.936-58.24-13.216-20.024-21.184-40.304-25.12-51.968zm20.168 72.048c5.624 7.344 11.952 14.488 19.032 21.104-12.408 6.904-26.008 20.488-26.008 42.848v17.184c-10.88-6.768-27.936-16.496-47.984-24.992a1.554 1.554 0 0 1-.016-.192c0-30.536 24.576-55.392 54.976-55.952zM16.592 246.92c1.392-55.704 14.784-89.784 20.336-101.624 8.864 1.608 17.68 4.048 26.256 6.912-7.624 12.52-29.256 51.6-30.568 92.44a441.72 441.72 0 0 0-16.024 2.272zm32.096-3.976c2.104-39.624 25.736-78.632 29.8-85.048 27.368 11.168 49.848 25.376 57.976 30.8v43.768c0 4.744.392 9.392.968 13.992-29.432-6.52-63-5.784-88.744-3.512zm26.24 63.184c24.112 10.208 38.136 20.056 44.232 24.896-6.216 3.952-11.328 7.752-15.44 11.16-8.2-5.488-24.304-15.28-40.56-19.584 4.84-7.312 9.016-12.952 11.768-16.472zM54.16 337.04c12.728 2.072 27.768 10.168 37.672 16.48-1.024 1.176-1.624 1.944-1.76 2.128l-5.16 6.872 7.224 4.656c1.824 1.176 3.536 2.376 5.288 3.56a99.56 99.56 0 0 0-9.416 10.568c-8.192-6.904-24.04-18.632-43.928-25.648a320.137 320.137 0 0 1 10.08-18.616zm-16.848 33.208c19.496 6.544 35.192 18.792 41.92 24.624-2.92 5.456-5.392 11.184-7.272 17.2l-2.608 8.336c-9.544-6.608-26.2-17.448-41.88-24.24 2.96-9.176 6.312-17.808 9.84-25.92zm18.648 93.016l-38.976-19.48c1.288-11.152 3.424-21.848 6.048-32.096 16.272 7.384 34.08 19.608 41.304 24.768l-8.376 26.808zm81.568 17.2l6.872-55.008-15.872-1.984-7.128 56.992H67.344l19.888-63.624c4.44-14.208 12.488-26.68 23.4-36.552 36.384 28.4 55.312 61.384 57.576 100.176h-30.68zm102.936 0h-56.248a142.246 142.246 0 0 0-1.8-16h58.048v16zm0-32h-61.728a135.698 135.698 0 0 0-5.824-16h67.552v16zm0-32h-75.8c-12.632-21.104-31.264-40.288-55.888-57.392 9.808-9.184 32.568-26.4 72.336-37.336 3.624 2.744 7.4 5.28 11.352 7.576v19.432l48 32v35.72zm-32-76.28v-3.232c12.44 4.784 25.896 7.512 40 7.512s27.56-2.728 40-7.512v3.232l-40 26.664-40-26.664zm109.728 108.28h-21.728v16h18.048c-.88 5.248-1.504 10.576-1.792 16h-56.256v-16h24v-16h-24v-16h67.552a135.698 135.698 0 0 0-5.824 16zm57.336 32l-7.128-56.992-15.872 1.984 6.872 55.008h-30.68c2.272-38.792 21.192-71.776 57.576-100.176 10.912 9.872 18.96 22.344 23.4 36.552l19.888 63.624h-54.056zm57.064-44.016c7.224-5.16 25.032-17.384 41.304-24.768 2.624 10.248 4.76 20.944 6.048 32.096l-38.976 19.488-8.376-26.816z"/></svg>