<?xml version="1.0" encoding="iso-8859-1"?>
<!-- Generator: Adobe Illustrator 19.0.0, SVG Export Plug-In . SVG Version: 6.00 Build 0)  -->
<svg xmlns="http://www.w3.org/2000/svg" xmlns:xlink="http://www.w3.org/1999/xlink" version="1.1" id="Capa_1" x="0px" y="0px" viewBox="0 0 496 496" style="enable-background:new 0 0 496 496;" xml:space="preserve">
<g>
	<g>
		<g>
			<path d="M496,0H0v288h223.192C213.56,307.312,208,328.992,208,352c0,79.4,64.6,144,144,144s144-64.6,144-144     c0-23.008-5.56-44.688-15.192-64H496V0z M352,480c-70.576,0-128-57.424-128-128s57.424-128,128-128s128,57.424,128,128     S422.576,480,352,480z M480,272h-8.352c-3.792-5.664-8.08-10.944-12.624-16H464v-56h-16v40h-5.688     c-24.72-19.976-56.12-32-90.312-32c-49.816,0-93.784,25.44-119.648,64H16V16h464V272z"/>
			<polygon points="406.072,293.2 393.928,282.8 352,331.712 310.072,282.8 297.928,293.2 344,346.96 344,360 312,360 312,376      344,376 344,392 312,392 312,408 344,408 344,432 360,432 360,408 392,408 392,392 360,392 360,376 392,376 392,360 360,360      360,346.96    "/>
			<polygon points="240,136 200,136 200,152 240,152 240,168 200,168 200,184 240,184 240,216 256,216 256,184 296,184 296,168      256,168 256,152 296,152 296,136 256,136 256,131.312 309.656,77.656 298.344,66.344 248,116.688 197.656,66.344 186.344,77.656      240,131.312    "/>
			<polygon points="48,48 88,48 88,32 32,32 32,88 48,88    "/>
			<polygon points="448,88 464,88 464,32 408,32 408,48 448,48    "/>
			<polygon points="88,240 48,240 48,200 32,200 32,256 88,256    "/>
			<path d="M352,240c-61.76,0-112,50.24-112,112s50.24,112,112,112c25.248,0,49.08-8.2,68.928-23.712l-9.848-12.608     C394.072,440.976,373.648,448,352,448c-52.936,0-96-43.064-96-96c0-52.936,43.064-96,96-96c52.936,0,96,43.064,96,96     c0,24.896-9.496,48.496-26.728,66.464l11.544,11.08C452.928,408.584,464,381.048,464,352C464,290.24,413.76,240,352,240z"/>
		</g>
	</g>
</g>
<g>
</g>
<g>
</g>
<g>
</g>
<g>
</g>
<g>
</g>
<g>
</g>
<g>
</g>
<g>
</g>
<g>
</g>
<g>
</g>
<g>
</g>
<g>
</g>
<g>
</g>
<g>
</g>
<g>
</g>
</svg>
