<svg xmlns="http://www.w3.org/2000/svg" viewBox="0 0 496 496"><path d="M496 0H0v288h223.192C213.56 307.312 208 328.992 208 352c0 79.4 64.6 144 144 144s144-64.6 144-144c0-23.008-5.56-44.688-15.192-64H496V0zM352 480c-70.576 0-128-57.424-128-128s57.424-128 128-128 128 57.424 128 128-57.424 128-128 128zm128-208h-8.352c-3.792-5.664-8.08-10.944-12.624-16H464v-56h-16v40h-5.688c-24.72-19.976-56.12-32-90.312-32-49.816 0-93.784 25.44-119.648 64H16V16h464v256z"/><path d="M406.072 293.2l-12.144-10.4L352 331.712 310.072 282.8l-12.144 10.4L344 346.96V360h-32v16h32v16h-32v16h32v24h16v-24h32v-16h-32v-16h32v-16h-32v-13.04zM240 136h-40v16h40v16h-40v16h40v32h16v-32h40v-16h-40v-16h40v-16h-40v-4.688l53.656-53.656-11.312-11.312L248 116.688l-50.344-50.344-11.312 11.312L240 131.312zM48 48h40V32H32v56h16zM448 88h16V32h-56v16h40zM88 240H48v-40H32v56h56z"/><path d="M352 240c-61.76 0-112 50.24-112 112s50.24 112 112 112c25.248 0 49.08-8.2 68.928-23.712l-9.848-12.608C394.072 440.976 373.648 448 352 448c-52.936 0-96-43.064-96-96s43.064-96 96-96 96 43.064 96 96c0 24.896-9.496 48.496-26.728 66.464l11.544 11.08C452.928 408.584 464 381.048 464 352c0-61.76-50.24-112-112-112z"/></svg>