<svg xmlns="http://www.w3.org/2000/svg" viewBox="0 0 496.112 496.112"><path d="M439.96 201.568l43.928-35.488-4.48-6.152c-1.392-1.904-35.048-46.368-124.8-16.832-9.872 3.248-19.296 7.376-28.176 12.336a164.523 164.523 0 0 0 2.936-31.048c0-95.456-52.104-114.152-54.32-114.896L267.68 7l-19.624 53.064-19.632-53.056-7.368 2.488c-2.216.752-54.32 19.448-54.32 114.896 0 10.504.984 20.88 2.936 31.048-8.88-4.96-18.304-9.08-28.176-12.336-89.736-29.536-123.408 14.928-124.8 16.832l-4.48 6.152 43.928 35.488L0 204.112l.056 7.704c.016 2.368 1.464 58.288 91.128 87.816a161.397 161.397 0 0 0 30.096 6.824c-7.464 7.072-14.304 14.92-20.448 23.496-55.36 77.2-24.096 123.288-22.744 125.208l4.496 6.384 46.768-31.304-14.92 54.704 7.288 2.336c.68.216 6 1.832 14.632 1.832 19.92 0 57.448-8.56 96.12-62.496 6.08-8.472 11.288-17.384 15.584-26.656 4.296 9.272 9.504 18.184 15.584 26.656C319.056 503.904 372.136 488 374.392 487.28l7.288-2.336-14.92-54.704 46.768 31.304 4.496-6.384c1.352-1.92 32.616-48.008-22.744-125.208-6.144-8.568-12.984-16.424-20.448-23.496a160.277 160.277 0 0 0 30.096-6.824c89.664-29.528 91.112-85.448 91.128-87.816l.056-7.704-56.152-2.544zm-40.032 82.856c-15.032 4.944-30.208 7.568-45.736 7.232l-25.216-.248 20.464 14.744c12.496 8.992 23.536 20.136 32.84 33.12 36.832 51.368 31.248 85.56 26.088 99.552l-68.312-45.72 21.816 80.008c-14.56.672-48.424-4.504-85.224-55.832-9.296-12.96-16.344-27.064-20.944-41.896l-7.648-24.656-7.64 24.648c-4.6 14.832-11.648 28.936-20.944 41.896-36.816 51.344-70.384 56.496-85.232 55.84l21.816-80.008-68.28 45.704c-5.112-14.024-10.656-48.344 26.056-99.536 9.304-12.984 20.352-24.128 32.84-33.12l20.464-14.744-25.216.248c-15.312.296-30.696-2.28-45.736-7.232-59.72-19.664-74.928-50.744-78.808-65.08l81.664-3.688L35.096 164c11.448-9.296 41.72-25.336 101.4-5.696 15.088 4.968 28.984 12.192 41.304 21.48l20.512 15.464-8.112-24.376c-4.952-14.88-7.472-30.512-7.472-46.472 0-63.4 24.248-87.744 36.536-96.008l28.792 77.776 28.784-77.776c12.32 8.296 36.536 32.648 36.536 96 0 15.952-2.512 31.592-7.472 46.472l-8.112 24.376 20.512-15.464c12.32-9.288 26.216-16.504 41.304-21.48 59.712-19.656 90-3.576 101.4 5.696l-63.944 51.656 81.656 3.688c-3.872 14.384-19.112 45.44-78.792 65.088z"/><path d="M365.472 209.072c-5.72-2.904-12.192-3.416-18.32-1.44-6.096 1.984-11.048 6.216-13.96 11.936-1.648 3.232-2.432 6.728-2.528 10.256l-40.096 13.024c-6.84-13.04-19.496-22.52-34.504-25.056v-42.2c9.288-3.312 16-12.112 16-22.528 0-13.232-10.768-24-24-24s-24 10.768-24 24c0 10.416 6.712 19.216 16 22.528v42.2c-15.008 2.536-27.664 12.016-34.504 25.056l-40.096-13.024c-.096-3.528-.88-7.016-2.528-10.256-2.912-5.712-7.864-9.952-13.96-11.936h-.008c-6.088-1.984-12.592-1.464-18.312 1.44-5.712 2.912-9.952 7.872-11.928 13.968-1.984 6.096-1.472 12.6 1.44 18.312 2.912 5.712 7.872 9.952 13.976 11.928a24.066 24.066 0 0 0 7.44 1.184c3.736 0 7.448-.88 10.864-2.632 3.24-1.648 5.928-4.008 8.08-6.808l40.12 13.032c-.36 2.304-.592 4.632-.592 7.016 0 13.056 5.256 24.896 13.736 33.552L189 332.744c-3.392-1-6.96-1.328-10.528-.768-6.336 1-11.888 4.408-15.656 9.592-3.776 5.184-5.296 11.528-4.288 17.856 1 6.336 4.408 11.896 9.592 15.664 4.152 3.016 9.032 4.592 14.056 4.592 1.264 0 2.536-.104 3.808-.304 6.336-1 11.896-4.408 15.656-9.592 3.776-5.184 5.296-11.528 4.288-17.856-.568-3.592-1.984-6.88-3.976-9.792l24.8-34.128c6.424 3.216 13.64 5.064 21.304 5.064 7.544 0 14.768-1.856 21.288-5.088l24.824 34.16c-2 2.904-3.416 6.2-3.976 9.792-1.008 6.328.512 12.672 4.28 17.848 3.768 5.192 9.328 8.6 15.664 9.6 1.264.2 2.536.304 3.808.304 5.024 0 9.904-1.576 14.056-4.592 5.184-3.768 8.592-9.328 9.592-15.664 1.008-6.328-.512-12.672-4.28-17.848-3.768-5.192-9.328-8.6-15.664-9.6-3.568-.568-7.136-.24-10.528.768l-24.776-34.096a48.154 48.154 0 0 0 7.928-10.696l-14.064-7.64c-5.624 10.328-16.4 16.752-28.152 16.752-17.648 0-32-14.352-32-32s14.352-32 32-32 32 14.352 32 32c0 1.288-.08 2.56-.224 3.816l15.888 1.904c.224-1.88.336-3.792.336-5.72 0-2.384-.232-4.712-.568-7l40.12-13.032c2.144 2.8 4.84 5.16 8.072 6.808 3.424 1.744 7.136 2.632 10.864 2.632 2.496 0 5-.392 7.44-1.184 6.104-1.984 11.064-6.216 13.976-11.928 2.904-5.712 3.424-12.216 1.44-18.312-1.976-6.104-6.216-11.064-11.928-13.984zm-216.328 23.864a7.926 7.926 0 0 1-3.968 4.648 7.908 7.908 0 0 1-6.112.48c-2.032-.664-3.688-2.072-4.656-3.976s-1.144-4.064-.48-6.104a7.95 7.95 0 0 1 3.976-4.656 7.932 7.932 0 0 1 3.624-.872 8.03 8.03 0 0 1 2.48.392 7.954 7.954 0 0 1 4.656 3.976 7.963 7.963 0 0 1 .48 6.112zm39.544 127.456a7.917 7.917 0 0 1-5.208 3.192c-2.144.32-4.232-.176-5.952-1.432-3.568-2.592-4.368-7.608-1.776-11.176l.008-.008a7.917 7.917 0 0 1 5.208-3.192 8.485 8.485 0 0 1 1.264-.096 7.98 7.98 0 0 1 7.888 6.744 7.974 7.974 0 0 1-1.432 5.968zm117.296-5.96a7.993 7.993 0 0 1 3.2-5.224 7.993 7.993 0 0 1 4.696-1.528 7.945 7.945 0 0 1 6.48 3.296c2.592 3.568 1.8 8.584-1.776 11.176a8.024 8.024 0 0 1-5.952 1.432 7.93 7.93 0 0 1-5.208-3.192l-.008-.008a8.005 8.005 0 0 1-1.432-5.952zm-57.928-193.36c-4.416 0-8-3.592-8-8s3.584-8 8-8 8 3.592 8 8-3.584 8-8 8zm113.648 73.016a7.927 7.927 0 0 1-4.656 3.976c-2.064.664-4.216.488-6.112-.48a7.918 7.918 0 0 1-3.968-4.656 7.905 7.905 0 0 1 .48-6.104 7.935 7.935 0 0 1 4.648-3.976 8.01 8.01 0 0 1 6.112.48 7.927 7.927 0 0 1 3.976 4.656 7.935 7.935 0 0 1-.48 6.104z"/></svg>