<svg xmlns="http://www.w3.org/2000/svg" viewBox="0 0 496 496"><path d="M295.832 44.672C294.112 19.76 273.344 0 248 0s-46.112 19.76-47.832 44.672C86.232 67.032 0 167.616 0 288h16c0-5.384.248-10.704.616-16h95.776c-.2 5.256-.392 10.52-.392 16h16c0-5.48.184-10.76.384-16H216v192c0 17.648 14.352 32 32 32s32-14.352 32-32V272h87.616c.2 5.24.384 10.52.384 16h16c0-5.48-.192-10.744-.392-16h95.776c.368 5.296.616 10.616.616 16h16c0-120.384-86.232-220.968-200.168-243.328zM248 16c15.616 0 28.6 11.248 31.4 26.056C269.104 40.752 258.64 40 248 40s-21.104.752-31.4 2.056C219.4 27.248 232.384 16 248 16zm0 40c19.232 0 37.904 2.392 55.784 6.824C294.632 70.656 277.576 80 248 80s-46.632-9.344-55.784-17.176A231.537 231.537 0 0 1 248 56zM113.344 256H18.256C30.48 167.84 92.4 95.4 174.752 67.92c3.072 3.56 7.52 7.8 13.592 11.936-32.496 31.952-68.008 86.824-75 176.144zm102.664 0h-86.624c7.128-87.104 42.592-138.944 73.76-168.128 9.672 4.024 21.864 7.024 36.864 7.84V256h-24zM248 480c-8.824 0-16-7.176-16-16h32c0 8.824-7.176 16-16 16zm16-32h-32v-16h32v16zm0-32h-32v-16h32v16zm0-32h-32V272h8v16h16v-16h8v112zm16-128h-24V95.712c15-.824 27.192-3.816 36.864-7.84 31.168 29.192 66.624 81.04 73.752 168.128H280zm102.656 0c-6.992-89.312-42.504-144.192-74.992-176.144 6.072-4.136 10.512-8.376 13.584-11.936C403.6 95.4 465.52 167.84 477.744 256h-95.088z"/><path d="M72 176h16v16H72zM408 176h16v16h-16zM184 208h16v16h-16zM304 208h16v16h-16z"/></svg>