<svg xmlns="http://www.w3.org/2000/svg" viewBox="0 0 496.32 496.32"><path d="M196.32 168.16c-11.024 0-20 8.976-20 20s8.976 20 20 20 20-8.976 20-20-8.976-20-20-20zm0 24c-2.208 0-4-1.792-4-4s1.792-4 4-4 4 1.792 4 4-1.792 4-4 4zM300.32 168.16c-11.024 0-20 8.976-20 20s8.976 20 20 20 20-8.976 20-20-8.976-20-20-20zm0 24c-2.208 0-4-1.792-4-4s1.792-4 4-4 4 1.792 4 4-1.792 4-4 4z"/><path d="M486.96 185.2c-12.48-12.48-32.776-12.48-45.256 0l-67.888 67.888-2.144-2.144c12.256-6.848 20.648-19.784 20.648-34.784 0-9.04-3.128-17.296-8.208-24h.208v-56c0-74.992-61.008-136-136-136s-136 61.008-136 136v56h.208c-5.08 6.704-8.208 14.96-8.208 24 0 14.912 8.304 27.792 20.432 34.672l-2.256 2.256-67.88-67.888c-12.48-12.48-32.776-12.48-45.256 0-12.48 12.48-12.48 32.784 0 45.256l67.88 67.888-22.624 22.624c-4.536 4.528-7.032 10.56-7.032 16.968 0 6.416 2.496 12.448 7.024 16.968 4.536 4.528 10.56 7.032 16.976 7.032 6.416 0 12.44-2.496 16.968-7.032l22.624-22.624 17.624 17.624c-26.832 11.032-48.168 33.624-56.992 61.872L45.44 496.16H451.2l-26.376-84.392c-8.848-28.328-30.28-50.968-57.216-61.968l17.528-17.528 22.624 22.624c4.536 4.528 10.56 7.032 16.976 7.032s12.44-2.496 16.968-7.024c4.536-4.528 7.032-10.56 7.032-16.976 0-6.408-2.496-12.44-7.032-16.968l-22.624-22.624 67.88-67.888c12.48-12.464 12.48-32.768 0-45.248zm-110.64 30.96c0 10.536-6.872 19.416-16.336 22.632.128-2.208.336-4.392.336-6.632v-38.528c9.288 3.312 16 12.112 16 22.528zm-248-80c0-66.168 53.832-120 120-120s120 53.832 120 120v43.392c-2.544-1.12-5.208-2.016-8-2.584v-8.808c0-17.648-14.352-32-32-32h-160c-17.648 0-32 14.352-32 32v8.808c-2.792.568-5.456 1.464-8 2.584V136.16zm120 192c-50.704 0-92.24-39.536-95.664-89.384l65.352-11.88c19.92-3.632 40.672-3.632 60.624 0l65.352 11.88c-3.424 49.848-44.96 89.384-95.664 89.384zm40 8.488v4.2l-40 40-40-40v-4.2c12.44 4.784 25.896 7.512 40 7.512s27.56-2.728 40-7.512zm-6.824-125.496c-21.832-3.968-44.544-3.968-66.352 0l-62.824 11.424V168.16c0-8.824 7.176-16 16-16h160c8.824 0 16 7.176 16 16v54.416l-62.824-11.424zM120.32 216.16c0-10.416 6.712-19.216 16-22.528v38.528c0 2.24.208 4.424.336 6.632-9.464-3.216-16.336-12.096-16.336-22.632zm-9.136 48.232l-22.632 22.632-11.312-11.312 22.632-22.632 11.312 11.312zm-90.512-67.88c6.24-6.232 16.392-6.232 22.632 0l-22.632 22.632c-6.24-6.24-6.232-16.392 0-22.632zm11.304 33.936l22.632-22.632 11.32 11.32-22.632 22.632-11.32-11.32zM65.928 264.4l-11.312-11.312 22.624-22.632 11.312 11.312L65.928 264.4zm11.312 79.192c-3.016 3.032-8.28 3.04-11.312-.008a7.925 7.925 0 0 1-2.336-5.648c0-2.136.832-4.144 2.344-5.656l73.672-73.672c1.432 5.88 3.208 11.624 5.528 17.096L77.24 343.592zm45.256-22.632l22.632-22.632 40.064 40.064-34.168 5.256c-1.648.256-3.272.6-4.896.936l-23.632-23.624zm22.888 159.2l6.872-55.008-15.872-1.984-7.128 56.992H67.2l19.888-63.624c9.336-29.896 35.392-52.304 66.36-57.072l44.088-6.784 127.472 127.48H145.384zm264.168-63.624l19.888 63.624h-62.056l-7.128-56.992-15.872 1.984 6.872 55.008h-3.624l-88-88 39.48-39.48 44.088 6.784c30.96 4.768 57.016 27.176 66.352 57.072zm-59.304-72c-1.536-.312-3.064-.64-4.624-.88l-34.448-5.296 40.016-40.024 22.632 22.632-23.576 23.568zm80.136-12.264a7.952 7.952 0 0 1 2.352 5.664 7.932 7.932 0 0 1-2.344 5.656c-3.016 3.032-8.288 3.032-11.312 0l-67.672-67.672c2.328-5.464 4.12-11.192 5.56-17.064l73.416 73.416zm-22.616-45.232l-22.632-22.64 11.312-11.312 22.632 22.632-11.312 11.32zm22.624-22.648L407.76 241.76l11.312-11.312 22.632 22.632-11.312 11.312zm22.632-22.616l-22.632-22.632 11.312-11.312 22.632 22.632-11.312 11.312zm22.624-22.632l-22.632-22.632c6.248-6.232 16.392-6.232 22.632 0 6.232 6.24 6.24 16.392 0 22.632z"/><path d="M224.32 104.16h48v16h-48zM288.32 104.16h16v16h-16zM192.32 104.16h16v16h-16z"/></svg>