<?xml version="1.0" encoding="iso-8859-1"?>
<!-- Generator: Adobe Illustrator 19.0.0, SVG Export Plug-In . SVG Version: 6.00 Build 0)  -->
<svg xmlns="http://www.w3.org/2000/svg" xmlns:xlink="http://www.w3.org/1999/xlink" version="1.1" id="Capa_1" x="0px" y="0px" viewBox="0 0 496 496" style="enable-background:new 0 0 496 496;" xml:space="preserve">
<g>
	<g>
		<g>
			<path d="M476.688,112c-5.16,0-10.008,2.008-13.656,5.656l-42.672,42.672c-7.424,7.424-16.664,12.376-26.712,14.488     C397.72,165.104,400,154.704,400,144c0-44.112-35.888-80-80-80c-37.664,0-69.64,26.056-77.896,61.928     c-24.888-6.504-50.032-11.288-75.352-14.2c-7.896-0.904-15.432-1.552-22.656-2.04C135.512,96.64,120.752,88,104,88     c-20.672,0-38.28,13.16-45.024,31.52C21.464,133.808,0,162.912,0,200v72c0,88.224,71.776,160,160,160     c55.472,0,105.528-28.6,134.392-73.296C308.472,369.888,325.76,376,344,376c40.536,0,74.04-30.328,79.224-69.464l39.808,39.816     c3.6,3.584,8.576,5.648,13.656,5.648c10.648,0,19.312-8.664,19.312-19.312V232v-8v-92.688C496,120.664,487.336,112,476.688,112z      M384,144c0,11.152-3.024,21.904-8.472,31.496c-5.88-0.784-11.64-2.496-16.936-5.136l-4.016-2.008     c-4.328-2.168-8.704-4.144-13.064-6.192l33.64-50.456C380.736,121.192,384,132.208,384,144z M364.8,98.368l-38.024,57.04     c-9.592-4.192-19.248-8.072-28.96-11.712l40.64-60.96C348.496,85.768,357.504,91.2,364.8,98.368z M320,80     c0.344,0,0.672,0.048,1.016,0.048l-38.672,58.016c-8.24-2.824-16.52-5.432-24.832-7.864C263.856,101.168,289.632,80,320,80z      M264,152c4.408,0,8,3.592,8,8s-3.592,8-8,8c-4.408,0-8-3.592-8-8S259.592,152,264,152z M152,136     c0-3.344-0.352-6.616-1.008-9.768c4.52,0.392,9.168,0.848,13.936,1.392c27.424,3.152,54.632,8.624,81.528,16.112     C242.488,148.024,240,153.712,240,160c0,13.232,10.768,24,24,24s24-10.768,24-24c0-1.032-0.176-2.016-0.304-3.016     c20.16,7.368,40.104,15.856,59.72,25.664l4.016,2.008c9.608,4.808,20.352,7.344,31.088,7.344c5.984,0,11.832-0.832,17.48-2.288     v84.576c-5.648-1.456-11.496-2.288-17.48-2.288c-10.72,0-21.472,2.536-31.088,7.336l-23.96,11.984     c-12.128,6.064-19.256,9.632-23.384,12.176c-18.4-6.608-36.432-14.36-53.784-23.048c3.608-7.4,5.696-15.68,5.696-24.448     c0-30.88-25.12-56-56-56h-1.456c0.904-2.544,1.456-5.224,1.456-8c0-6.408-2.496-12.44-7.024-16.968     c-9.064-9.064-24.872-9.064-33.936,0C154.496,179.56,152,185.592,152,192c0,2.776,0.552,5.456,1.456,8h-17.048     c-7.416-7.296-13.248-13.584-17.464-18.416C138.112,175.288,152,157.248,152,136z M152,264v-16h48v-16h-48v-16h48     c13.016,0,24.488,6.344,31.792,16H216v16h23.192c0.528,2.584,0.808,5.264,0.808,8c0,2.736-0.28,5.416-0.808,8H152z M231.792,280     c-7.312,9.656-18.784,16-31.792,16h-48v-16H231.792z M168,192c0-2.136,0.832-4.144,2.344-5.656     c1.512-1.512,3.52-2.344,5.656-2.344s4.144,0.832,5.656,2.344S184,189.864,184,192s-0.832,4.144-2.344,5.656     c-3.016,3.024-8.288,3.024-11.312,0C168.832,196.144,168,194.136,168,192z M104,104c17.648,0,32,14.352,32,32s-14.352,32-32,32     s-32-14.352-32-32S86.352,104,104,104z M160,416c-79.4,0-144-64.6-144-144v-64h64v-16H16.6     c2.52-23.736,16.12-42.464,39.504-53.888c1.056,24.12,19.944,43.656,43.8,45.68c4.672,5.912,16.568,20.024,36.088,37.848V312h64     c16.312,0,30.968-7.056,41.216-18.216c17.816,9.024,36.344,17.056,55.264,23.952C276.992,376.032,222.264,416,160,416z M344,360     c-15.4,0-29.936-5.44-41.512-15.352c4.584-9,8.456-18.464,11.312-28.44l47.312,41.392C355.656,359.128,349.936,360,344,360z      M377.328,350.528l-48.184-42.16c7.544-3.768,15.816-7.912,21.68-10.84l43.768,37.512     C389.832,341.2,383.984,346.448,377.328,350.528z M402.872,321.072l-35.808-30.688c5.016-1.512,10.232-2.384,15.456-2.384     c9.024,0,17.696,2.224,25.416,6.4c0.008,0.536,0.064,1.064,0.064,1.6C408,304.896,406.168,313.368,402.872,321.072z M480,289.872     l-11.296-6.776l-8.232,13.72L480,308.528v24.16c0,2.696-3.736,4.248-5.656,2.344l-42.672-42.672     c-4.712-4.712-10-8.632-15.672-11.76v-10.472l27.88,16.728l8.232-13.72L416,251.472V240h64V289.872z M480,224h-64v-11.832     l64-44.8V224z M480,147.832l-64,44.8V183.4c5.68-3.128,10.96-7.048,15.672-11.76l42.672-42.672     c1.912-1.912,5.656-0.36,5.656,2.344V147.832z"/>
			<path d="M104,160c13.232,0,24-10.768,24-24s-10.768-24-24-24s-24,10.768-24,24S90.768,160,104,160z M104,128c4.408,0,8,3.592,8,8     s-3.592,8-8,8s-8-3.592-8-8S99.592,128,104,128z"/>
			<rect x="56" y="248" width="16" height="16"/>
			<rect x="96" y="288" width="16" height="16"/>
			<rect x="56" y="328" width="16" height="16"/>
			<rect x="144" y="328" width="16" height="16"/>
			<rect x="224" y="328" width="16" height="16"/>
			<rect x="184" y="360" width="16" height="16"/>
			<rect x="104" y="360" width="16" height="16"/>
			<path d="M360,248c13.232,0,24-10.768,24-24s-10.768-24-24-24s-24,10.768-24,24S346.768,248,360,248z M360,216     c4.408,0,8,3.592,8,8s-3.592,8-8,8c-4.408,0-8-3.592-8-8S355.592,216,360,216z"/>
			<path d="M296,288c13.232,0,24-10.768,24-24s-10.768-24-24-24s-24,10.768-24,24S282.768,288,296,288z M296,256     c4.408,0,8,3.592,8,8c0,4.416-3.592,8-8,8c-4.408,0-8-3.584-8-8C288,259.592,291.592,256,296,256z"/>
		</g>
	</g>
</g>
<g>
</g>
<g>
</g>
<g>
</g>
<g>
</g>
<g>
</g>
<g>
</g>
<g>
</g>
<g>
</g>
<g>
</g>
<g>
</g>
<g>
</g>
<g>
</g>
<g>
</g>
<g>
</g>
<g>
</g>
</svg>
