<svg xmlns="http://www.w3.org/2000/svg" viewBox="0 0 496 496"><path d="M476.688 112a19.182 19.182 0 0 0-13.656 5.656l-42.672 42.672c-7.424 7.424-16.664 12.376-26.712 14.488C397.72 165.104 400 154.704 400 144c0-44.112-35.888-80-80-80-37.664 0-69.64 26.056-77.896 61.928-24.888-6.504-50.032-11.288-75.352-14.2a486.967 486.967 0 0 0-22.656-2.04C135.512 96.64 120.752 88 104 88c-20.672 0-38.28 13.16-45.024 31.52C21.464 133.808 0 162.912 0 200v72c0 88.224 71.776 160 160 160 55.472 0 105.528-28.6 134.392-73.296C308.472 369.888 325.76 376 344 376c40.536 0 74.04-30.328 79.224-69.464l39.808 39.816c3.6 3.584 8.576 5.648 13.656 5.648 10.648 0 19.312-8.664 19.312-19.312V131.312c0-10.648-8.664-19.312-19.312-19.312zM384 144c0 11.152-3.024 21.904-8.472 31.496-5.88-.784-11.64-2.496-16.936-5.136l-4.016-2.008c-4.328-2.168-8.704-4.144-13.064-6.192l33.64-50.456C380.736 121.192 384 132.208 384 144zm-19.2-45.632l-38.024 57.04c-9.592-4.192-19.248-8.072-28.96-11.712l40.64-60.96A64.025 64.025 0 0 1 364.8 98.368zM320 80c.344 0 .672.048 1.016.048l-38.672 58.016a571.977 571.977 0 0 0-24.832-7.864C263.856 101.168 289.632 80 320 80zm-56 72c4.408 0 8 3.592 8 8s-3.592 8-8 8c-4.408 0-8-3.592-8-8s3.592-8 8-8zm-112-16c0-3.344-.352-6.616-1.008-9.768 4.52.392 9.168.848 13.936 1.392 27.424 3.152 54.632 8.624 81.528 16.112C242.488 148.024 240 153.712 240 160c0 13.232 10.768 24 24 24s24-10.768 24-24c0-1.032-.176-2.016-.304-3.016 20.16 7.368 40.104 15.856 59.72 25.664l4.016 2.008A69.8 69.8 0 0 0 382.52 192c5.984 0 11.832-.832 17.48-2.288v84.576c-5.648-1.456-11.496-2.288-17.48-2.288-10.72 0-21.472 2.536-31.088 7.336l-23.96 11.984c-12.128 6.064-19.256 9.632-23.384 12.176a491.395 491.395 0 0 1-53.784-23.048c3.608-7.4 5.696-15.68 5.696-24.448 0-30.88-25.12-56-56-56h-1.456c.904-2.544 1.456-5.224 1.456-8 0-6.408-2.496-12.44-7.024-16.968-9.064-9.064-24.872-9.064-33.936 0-4.544 4.528-7.04 10.56-7.04 16.968 0 2.776.552 5.456 1.456 8h-17.048c-7.416-7.296-13.248-13.584-17.464-18.416C138.112 175.288 152 157.248 152 136zm0 128v-16h48v-16h-48v-16h48c13.016 0 24.488 6.344 31.792 16H216v16h23.192a39.963 39.963 0 0 1 0 16H152zm79.792 16c-7.312 9.656-18.784 16-31.792 16h-48v-16h79.792zM168 192c0-2.136.832-4.144 2.344-5.656 1.512-1.512 3.52-2.344 5.656-2.344s4.144.832 5.656 2.344S184 189.864 184 192s-.832 4.144-2.344 5.656c-3.016 3.024-8.288 3.024-11.312 0A7.946 7.946 0 0 1 168 192zm-64-88c17.648 0 32 14.352 32 32s-14.352 32-32 32-32-14.352-32-32 14.352-32 32-32zm56 312c-79.4 0-144-64.6-144-144v-64h64v-16H16.6c2.52-23.736 16.12-42.464 39.504-53.888 1.056 24.12 19.944 43.656 43.8 45.68 4.672 5.912 16.568 20.024 36.088 37.848V312h64c16.312 0 30.968-7.056 41.216-18.216a506.093 506.093 0 0 0 55.264 23.952C276.992 376.032 222.264 416 160 416zm184-56c-15.4 0-29.936-5.44-41.512-15.352 4.584-9 8.456-18.464 11.312-28.44l47.312 41.392c-5.456 1.528-11.176 2.4-17.112 2.4zm33.328-9.472l-48.184-42.16c7.544-3.768 15.816-7.912 21.68-10.84l43.768 37.512a64.24 64.24 0 0 1-17.264 15.488zm25.544-29.456l-35.808-30.688c5.016-1.512 10.232-2.384 15.456-2.384 9.024 0 17.696 2.224 25.416 6.4.008.536.064 1.064.064 1.6a63.584 63.584 0 0 1-5.128 25.072zm77.128-31.2l-11.296-6.776-8.232 13.72L480 308.528v24.16c0 2.696-3.736 4.248-5.656 2.344l-42.672-42.672A69.772 69.772 0 0 0 416 280.6v-10.472l27.88 16.728 8.232-13.72L416 251.472V240h64v49.872zM480 224h-64v-11.832l64-44.8V224zm0-76.168l-64 44.8V183.4a69.593 69.593 0 0 0 15.672-11.76l42.672-42.672c1.912-1.912 5.656-.36 5.656 2.344v16.52z"/><path d="M104 160c13.232 0 24-10.768 24-24s-10.768-24-24-24-24 10.768-24 24 10.768 24 24 24zm0-32c4.408 0 8 3.592 8 8s-3.592 8-8 8-8-3.592-8-8 3.592-8 8-8zM56 248h16v16H56zM96 288h16v16H96zM56 328h16v16H56zM144 328h16v16h-16zM224 328h16v16h-16zM184 360h16v16h-16zM104 360h16v16h-16zM360 248c13.232 0 24-10.768 24-24s-10.768-24-24-24-24 10.768-24 24 10.768 24 24 24zm0-32c4.408 0 8 3.592 8 8s-3.592 8-8 8c-4.408 0-8-3.592-8-8s3.592-8 8-8zM296 288c13.232 0 24-10.768 24-24s-10.768-24-24-24-24 10.768-24 24 10.768 24 24 24zm0-32c4.408 0 8 3.592 8 8 0 4.416-3.592 8-8 8-4.408 0-8-3.584-8-8 0-4.408 3.592-8 8-8z"/></svg>