<svg xmlns="http://www.w3.org/2000/svg" viewBox="0 0 496 496"><path d="M463.728 176.752c-.712-11.032-2.8-21.632-6.216-31.608-10.92-31.872-16.712-65.032-17.384-98.664C449.36 43.136 456 34.368 456 24c0-13.232-10.768-24-24-24h-64c-13.232 0-24 10.768-24 24 0 10.368 6.64 19.136 15.864 22.488-.672 33.632-6.464 66.792-17.384 98.664-3.416 9.968-5.504 20.568-6.216 31.6C317.904 180.36 304 196.584 304 216v184H176V239.064a39.947 39.947 0 0 0-27.344-37.944L128 194.232v-83.704c9.288-3.312 16-12.112 16-22.528 0-13.232-10.768-24-24-24H56c-13.232 0-24 10.768-24 24 0 10.416 6.712 19.216 16 22.528v83.712l-20.656 6.88A39.947 39.947 0 0 0 0 239.064V496h288v-32c5.872 0 11.416-1.344 16.44-3.632C306.656 480.352 323.44 496 344 496h112c22.056 0 40-17.944 40-40V216c0-19.416-13.904-35.64-32.272-39.248zM56 80h64c4.408 0 8 3.592 8 8s-3.592 8-8 8H56c-4.408 0-8-3.592-8-8s3.592-8 8-8zM16 239.064a23.969 23.969 0 0 1 16.408-22.768L64 205.768V112h48v93.768l31.592 10.528A23.969 23.969 0 0 1 160 239.064V248H16v-8.936zM16 264h144v104H16V264zm64 216H16v-96h144v16H40v24c0 22.056 17.944 40 40 40v16zm192 0H96v-16h176v16zm40-56c0 13.232-10.768 24-24 24H80c-13.232 0-24-10.768-24-24v-8h256v8zm56-408h64c4.408 0 8 3.592 8 8s-3.592 8-8 8h-64c-4.408 0-8-3.592-8-8s3.592-8 8-8zm112 440c0 13.232-10.768 24-24 24H344c-13.232 0-24-10.768-24-24v-8h160v8zm0-24H327.192c.528-2.584.808-5.264.808-8v-24h-8V272h160v160zm0-176H320v-40c0-13.232 10.768-24 24-24h7.912l.088-7.912c.136-11.904 2.024-23.256 5.616-33.752A339.2 339.2 0 0 0 375.904 48h48.184c.816 34.88 6.96 69.264 18.288 102.336 3.592 10.496 5.488 21.856 5.616 33.76l.096 7.904H456c13.232 0 24 10.768 24 24v40z"/><path d="M352 328h96v16h-96zM352 360h64v16h-64zM432 360h16v16h-16z"/></svg>