<?xml version="1.0" encoding="iso-8859-1"?>
<!-- Generator: Adobe Illustrator 19.0.0, SVG Export Plug-In . SVG Version: 6.00 Build 0)  -->
<svg xmlns="http://www.w3.org/2000/svg" xmlns:xlink="http://www.w3.org/1999/xlink" version="1.1" id="Capa_1" x="0px" y="0px" viewBox="0 0 496 496" style="enable-background:new 0 0 496 496;" xml:space="preserve">
<g>
	<g>
		<g>
			<path d="M463.728,176.752c-0.712-11.032-2.8-21.632-6.216-31.608c-10.92-31.872-16.712-65.032-17.384-98.664     C449.36,43.136,456,34.368,456,24c0-13.232-10.768-24-24-24h-64c-13.232,0-24,10.768-24,24c0,10.368,6.64,19.136,15.864,22.488     c-0.672,33.632-6.464,66.792-17.384,98.664c-3.416,9.968-5.504,20.568-6.216,31.6C317.904,180.36,304,196.584,304,216v184H176     V239.064c0-17.24-10.992-32.496-27.344-37.944L128,194.232v-83.704c9.288-3.312,16-12.112,16-22.528c0-13.232-10.768-24-24-24H56     c-13.232,0-24,10.768-24,24c0,10.416,6.712,19.216,16,22.528v83.712l-20.656,6.88C10.992,206.568,0,221.824,0,239.064V496h80h8     h200v-32c5.872,0,11.416-1.344,16.44-3.632C306.656,480.352,323.44,496,344,496h112c22.056,0,40-17.944,40-40V216     C496,196.584,482.096,180.36,463.728,176.752z M56,80h64c4.408,0,8,3.592,8,8s-3.592,8-8,8H56c-4.408,0-8-3.592-8-8     S51.592,80,56,80z M16,239.064c0-10.344,6.592-19.496,16.408-22.768L64,205.768V112h48v93.768l31.592,10.528     C153.408,219.568,160,228.72,160,239.064V248H16V239.064z M16,264h144v104H16V264z M80,480H16v-96h144v16H40v24     c0,22.056,17.944,40,40,40V480z M272,480H96v-16h176V480z M312,424c0,13.232-10.768,24-24,24H80c-13.232,0-24-10.768-24-24v-8     h256V424z M368,16h64c4.408,0,8,3.592,8,8s-3.592,8-8,8h-64c-4.408,0-8-3.592-8-8S363.592,16,368,16z M480,456     c0,13.232-10.768,24-24,24H344c-13.232,0-24-10.768-24-24v-8h160V456z M480,432H327.192c0.528-2.584,0.808-5.264,0.808-8v-24h-8     V272h160V432z M480,256H320v-40c0-13.232,10.768-24,24-24h7.912l0.088-7.912c0.136-11.904,2.024-23.256,5.616-33.752     C368.952,117.272,375.096,82.88,375.904,48h48.184c0.816,34.88,6.96,69.264,18.288,102.336     c3.592,10.496,5.488,21.856,5.616,33.76l0.096,7.904H456c13.232,0,24,10.768,24,24V256z"/>
			<rect x="352" y="328" width="96" height="16"/>
			<rect x="352" y="360" width="64" height="16"/>
			<rect x="432" y="360" width="16" height="16"/>
		</g>
	</g>
</g>
<g>
</g>
<g>
</g>
<g>
</g>
<g>
</g>
<g>
</g>
<g>
</g>
<g>
</g>
<g>
</g>
<g>
</g>
<g>
</g>
<g>
</g>
<g>
</g>
<g>
</g>
<g>
</g>
<g>
</g>
</svg>
