<svg xmlns="http://www.w3.org/2000/svg" viewBox="0 0 496 496"><path d="M495.28 256c-2.448-14.48-11.36-26.768-23.704-33.76.272-2.064.424-4.144.424-6.24 0-20.92-13.464-38.704-32.168-45.264.032-.912.168-1.832.168-2.736v-17.136c13.768-3.576 24-16 24-30.864C464 85.688 443.424 8.176 261.376.648l-.064-.184c-.144.056-.288.112-.432.16C251.632.248 242.096 0 232 0 22.608 0 0 83.92 0 120c0 14.864 10.232 27.288 24 30.864V168c0 39.696 32.296 72 72 72h54.496a47.543 47.543 0 0 0-5.768 16H144v240h352V256h-.72zm-16.416 0h-61.728c3.576-13.76 15.992-24 30.864-24s27.288 10.24 30.864 24zM456 216c0 .24-.04.472-.048.712-2.592-.432-5.24-.712-7.952-.712-8.56 0-16.592 2.28-23.56 6.224-.272-.432-.6-.824-.896-1.248.184-1.656.456-3.296.456-4.976 0-11.408-4.016-21.888-10.688-30.136 3.4-1.2 6.984-1.864 10.688-1.864 17.648 0 32 14.352 32 32zM440.584 87.44c-15.624-1.024-30.248-.024-43.432 3.232l3.84 15.528c13.432-3.32 28.68-4.08 45.304-2.32A76.725 76.725 0 0 1 448 120c0 8.824-7.176 16-16 16h-5.92c-3.2 0-6.496-1.088-9.52-3.136-8.064-5.472-23.272-9.896-44.952-13.248 4.104-3.024 9.176-6.144 15.592-8.856l-6.216-14.744c-15.28 6.456-24.944 14.976-30.352 20.904-18.048-1.912-39.28-3.28-63.624-4.08 15.56-18.872 54.808-55.232 125.688-56.552 11.976 8.496 21.712 18.744 27.888 31.152zm-53.04-45.248c-74.992 9.992-111.12 56.472-120.168 70.136a1828.988 1828.988 0 0 0-60.616-.144c16.672-22.896 60.648-72.472 135.416-84.744 15.768 3.648 31.264 8.464 45.368 14.752zm-124.28-25.32c12.184.664 26.032 1.816 40.52 3.72-70.736 24.192-107.728 77.552-116.664 91.968-20.464.52-38.952 1.416-55.312 2.68 11.72-19.024 48.536-67.76 131.456-98.368zM32 136c-8.824 0-16-7.176-16-16 0-53.904 51.6-80.024 105.976-92.592-2.824 2.056-5.656 4.112-8.376 6.296l10.032 12.464c12.984-10.448 27.376-19.264 42.76-26.336 22.632-2.68 43.208-3.552 57.872-3.76C140 57.336 113.896 114.048 112.688 116.752l.44.192c-21.216 2.256-38.048 5.264-50.064 9.016 7.808-17.952 22.768-45.176 49.136-69.864l-10.936-11.68c-37.84 35.432-53.824 75.24-58.984 90.864-1.448.432-2.912.72-4.36.72H32zm64 88c-30.872 0-56-25.12-56-56v-16.168c5.72-.392 11.368-2.296 16.432-5.736C62.688 141.848 93.832 128 232 128s169.312 13.848 175.568 18.096c5.064 3.448 10.712 5.344 16.432 5.736V168c-8.544 0-16.688 2.312-23.952 6.528C392.968 170.4 384.768 168 376 168s-16.968 2.4-24.048 6.528C344.68 170.312 336.544 168 328 168c-8.728 0-16.888 2.376-23.952 6.464A48.018 48.018 0 0 0 280 168c-12.768 0-24.616 4.96-33.528 13.728C239.704 178.112 232.056 176 224 176c-24.672 0-45.032 18.712-47.688 42.688-3.832 1.328-7.464 3.104-10.792 5.312H96zm232 8c14.872 0 27.288 10.24 30.864 24h-61.728c3.576-13.76 15.992-24 30.864-24zm-31.864-17.376C296.872 197.632 310.824 184 328 184c3.704 0 7.288.664 10.688 1.864C332.016 194.112 328 204.592 328 216a47.694 47.694 0 0 0-22.584 5.664 48.012 48.012 0 0 0-9.28-7.04zm49.472 4.768c-.464-.184-.944-.352-1.416-.52-.08-.952-.192-1.912-.192-2.872 0-17.648 14.352-32 32-32 13.936 0 25.696 9.008 30.08 21.464-6.696-3.472-14.2-5.464-22.08-5.464-15.28 0-29.432 7.424-38.392 19.392zM384 216c11.72 0 22.288 6.384 27.904 16.464A47.82 47.82 0 0 0 400.72 256h-25.44c-1.896-11.232-7.68-21.136-15.952-28.288 6-7.264 15.008-11.712 24.672-11.712zm-190.888.056c3.56-13.792 16-24.056 30.888-24.056 13.064 0 24.624 8.016 29.512 19.712-10.416 4.36-18.944 12.304-24.12 22.264-8.584-10.672-21.624-17.584-36.28-17.92zM222.864 256h-61.728c3.576-13.76 15.992-24 30.864-24s27.288 10.24 30.864 24zM272 224c7.616 0 14.952 2.76 20.688 7.6-6.136 6.68-10.392 15.08-11.96 24.4H240c0-17.648 14.352-32 32-32zm-12.704-32.368C265.024 186.744 272.256 184 280 184c3.672 0 7.28.656 10.688 1.864a47.732 47.732 0 0 0-10.096 23c-2.824-.512-5.68-.864-8.592-.864-.952 0-1.88.088-2.824.144-2.184-6.216-5.544-11.8-9.88-16.512zM480 480H160V272h320v208z"/><path d="M184 296h16v16h-16zM232 352h16v16h-16zM304 328h16v16h-16zM392 304h16v16h-16zM440 368h16v16h-16zM344 416h16v16h-16zM272 440h16v16h-16zM208 408h16v16h-16zM416 440h16v16h-16z"/></svg>