<svg xmlns="http://www.w3.org/2000/svg" viewBox="0 0 496 496"><path d="M184 120c13.232 0 24-10.768 24-24s-10.768-24-24-24-24 10.768-24 24 10.768 24 24 24zm0-32c4.416 0 8 3.592 8 8s-3.584 8-8 8-8-3.592-8-8 3.584-8 8-8zM312 120c13.232 0 24-10.768 24-24s-10.768-24-24-24-24 10.768-24 24 10.768 24 24 24zm0-32c4.416 0 8 3.592 8 8s-3.584 8-8 8-8-3.592-8-8 3.584-8 8-8zM216 176c-19.32 0-33.216-20.256-33.344-20.44l-13.312 8.872C170.096 165.56 188.04 192 216 192c15.952 0 25.968-5.32 32-12.016C254.032 186.68 264.048 192 280 192c27.96 0 45.904-26.44 46.656-27.56l-13.296-8.896c-.144.2-14.04 20.456-33.36 20.456-14.416 0-20.168-5.56-22.464-10.24C268.568 161.12 280 149.576 280 136c0-15.928-10.768-24-32-24s-32 8.072-32 24c0 13.568 11.424 25.104 22.448 29.752C236.144 170.344 230.408 176 216 176zm16-40c0-3.752 0-8 16-8s16 4.248 16 8c0 8.624-12.192 16-16 16s-16-7.376-16-16z"/><path d="M448 136h-32c-2.8 0-5.52.288-8.184.752-.4-15.168-3.592-29.712-9.104-43.328 8.688-14.96 33.936-61.88 22.048-82.888C418.032 5.728 412.296 0 400.44 0c-33.504 0-56.56 15.24-65.696 22.528C309.72 8.336 279.976 0 248 0s-61.72 8.336-86.744 22.528C152.128 15.24 129.072 0 95.56 0 83.704 0 77.968 5.728 75.248 10.536c-11.888 21.008 13.36 67.92 22.048 82.888C91.384 108.024 88 123.656 88 140c0 12.784 2.112 25.736 6.256 38.48l.464 1.416c-16.432 17.928-29.432 38.224-38.728 60.456-1.552-.144-3.088-.352-4.656-.352h-3.432C21.496 240 0 261.496 0 287.904c0 17.84 9.808 34.08 25.592 42.392l15.24 8.024c5.032 57.504 34.12 110.736 80.032 146.248C130.4 491.944 142.48 496 154.872 496H341.152v-.056c37.36-.512 68.896-25.496 79.24-59.64 21.648-32 33.928-69.296 35.456-108.144l.112-5.808c14.864-25.48 15.968-84.936 16.04-96.84 14.32-8.312 24-23.784 24-41.512 0-26.472-21.528-48-48-48zM400.44 16c5.024 0 6.016 1.76 6.392 2.416 5.024 8.864-5.536 36.024-16.752 57.48a140.864 140.864 0 0 0-19.936-26.128C375.68 45.416 384.352 40 392 40V24c-14.192 0-27.352 9.392-33.752 14.8-2.912-2.424-5.848-4.832-8.96-7.064C358.76 25.312 376.552 16 400.44 16zM248 16c79.4 0 144 55.624 144 124 0 .848-.12 1.72-.144 2.584C377.616 150.912 368 166.336 368 184c0 .248.032.48.04.728C346.912 195.824 309.664 208 248 208c-96.184 0-132.904-30.376-139.08-36.224C105.656 161.2 104 150.52 104 140c0-68.376 64.6-124 144-124zm8 278.528c9.288-3.312 16-12.112 16-22.528 0-13.232-10.768-24-24-24s-24 10.768-24 24c0 10.416 6.712 19.216 16 22.528v16.664c-18.232-3.72-32-19.872-32-39.192 0-22.056 17.944-40 40-40s40 17.944 40 40c0 19.312-13.768 35.472-32 39.192v-16.664zM248 280c-4.416 0-8-3.592-8-8 0-4.408 3.584-8 8-8s8 3.592 8 8c0 4.408-3.584 8-8 8zm27.288-56.856c45.504-2.848 76.176-12.544 95.896-22.096a48.035 48.035 0 0 0 11.96 17.848c-19.688 9.88-48.2 20.488-86.312 25.768a56.406 56.406 0 0 0-21.544-21.52zM89.168 18.416C89.544 17.76 90.536 16 95.56 16c23.88 0 41.68 9.312 51.144 15.736-3.112 2.232-6.048 4.64-8.96 7.064C131.352 33.392 118.192 24 104 24v16c7.648 0 16.32 5.416 21.856 9.768a140.864 140.864 0 0 0-19.936 26.128c-11.216-21.44-21.776-48.6-16.752-57.48zM106.8 190.568c15.784 11.12 50.208 28.584 113.912 32.584a56.261 56.261 0 0 0-21.544 21.528c-55.88-7.76-91.504-27.456-106.208-37.176 4.288-5.864 8.872-11.528 13.84-16.936zM33.048 316.144A31.82 31.82 0 0 1 16 287.904C16 270.312 30.312 256 47.904 256h3.432a31.71 31.71 0 0 1 18.4 5.84L182 341.088a23.637 23.637 0 0 1 10 19.296C192 373.408 181.408 384 167.816 384a23.8 23.8 0 0 1-11-2.712L33.048 316.144zM154.872 480c-8.872 0-17.48-2.872-24.216-8.088-39.608-30.632-65.624-75.528-72.672-124.56l91.376 48.096a39.107 39.107 0 0 0 4.088 1.84c-.856 4.84-1.448 9.744-1.448 14.712 0 27.968 13.792 52.728 34.88 68h-32.008zM340 480H236c-37.496 0-68-30.504-68-68 0-4.08.488-8.104 1.208-12.08 6.384-.136 12.32-1.864 17.624-4.688C185.024 400.496 184 406.128 184 412c0 28.672 23.328 52 52 52h104c28.672 0 52-23.328 52-52s-23.328-52-52-52H236a51.658 51.658 0 0 0-28.952 8.832c.592-2.728.952-5.544.952-8.448 0-3.296-.424-6.536-1.216-9.664 9.088-4.328 19.08-6.72 29.216-6.72h104c37.496 0 68 30.504 68 68 0 37.496-30.504 68-68 68zm-140-68c0-12.448 6.36-23.44 16-29.904v59.808c-9.64-6.464-16-17.456-16-29.904zm64-20v-16h16v72h-16v-40h-16v40h-12c-1.368 0-2.672-.256-4-.408V376.4c1.328-.144 2.632-.4 4-.4h12v16h16zm32 56v-72h16v72h-16zm64-32v-33.912c9.64 6.464 16 17.456 16 29.904s-6.36 23.44-16 29.904V432h-16v15.6c-1.328.144-2.632.4-4 .4h-12v-72h12c1.368 0 2.672.256 4 .408V416h16zm81.344-100.44l-1.296 1.944-.192 10.176c-.976 24.808-6.84 48.96-16.96 71.328C416.616 358.856 381.888 328 340 328H236c-12.552 0-24.944 2.968-36.208 8.352-2.408-3.152-5.24-6-8.56-8.336L78.968 248.768c-2.296-1.624-4.736-2.968-7.24-4.152 3.552-8.232 7.608-16.184 12.256-23.808 15.824 10.568 52.184 30.6 109.352 39.152-.856 3.888-1.336 7.904-1.336 12.04 0 30.88 25.128 56 56 56s56-25.12 56-56c0-4.144-.488-8.176-1.344-12.064 38.768-5.8 68.08-16.824 88.408-27.112-1.712 10.208-6.616 27.408-20.72 41.52l11.312 11.312c19.216-19.208 24.4-42.8 25.808-54.464 2.776.504 5.616.808 8.536.808h32c2.696 0 5.32-.28 7.896-.704-.576 23.184-3.816 68.152-14.552 84.264zM456 214.864V192h-16v24h-16v-24h-16v22.864c-13.768-3.576-24-16-24-30.864 0-17.648 14.352-32 32-32h32c17.648 0 32 14.352 32 32 0 14.864-10.232 27.288-24 30.864z"/></svg>