<svg xmlns="http://www.w3.org/2000/svg" viewBox="0 0 496 496"><path d="M184 344h-64v56h64v-56zm-16 40h-32v-24h32v24zM376 344h-64v56h64v-56zm-16 40h-32v-24h32v24zM280 344h-64v56h64v-56zm-16 40h-32v-24h32v24z"/><path d="M448 416h-16v-88h41.992L408 283.128V224h49.504L368 161.736V120h50.424L256 11.72V0h-16v11.72L77.576 120H128v41.736L38.496 224H88v59.128L22.008 328H64v88H0v80h496v-80h-48zM248 25.616L365.576 104h-27.248L248 46.512 157.664 104h-27.248L248 25.616zM187.48 104L248 65.488 308.528 104h-23.512L248 78.256 210.992 104H187.48zm.512 16L144 150.6V120h43.992zM352 120v30.6L308.008 120H352zM248 97.744L406.496 208h-35.864l-122.48-89.816L117.512 208H89.504L248 97.744zM392 224v48.248L321.056 224H392zm-94.48-16L280 196.088v-34.696L343.56 208h-46.04zm-70.304-56l20.64-14.184L267.2 152h-39.984zM264 168v17.208l-16-10.88-16 10.88V168h32zm-118.24 40L216 159.712v36.376L198.48 208h-52.72zm29.184 16L104 272.248V224h70.944zM248 193.672L422.008 312h-27.56L248 213.04 101.552 312h-27.56L248 193.672zM328 328v-16h-16v-32h6.52l47.36 32H344v16h72v88H80v-88h248zm-197.872-16l47.352-32H184v32h-53.872zm71.032-48L248 232.352 294.84 264h-93.68zM296 280v32h-40v-32h40zm-56 0v32h-40v-32h40zM16 432h32v16H16v-16zm80 48H16v-16h80v16zm0-32H64v-16h80v16H96zm96 32h-80v-16h80v16zm0-32h-32v-16h80v16h-48zm96 32h-80v-16h80v16zm0-32h-32v-16h80v16h-48zm96 32h-80v-16h80v16zm0-32h-32v-16h80v16h-48zm96 32h-80v-16h80v16zm0-32h-32v-16h32v16z"/></svg>