<svg xmlns="http://www.w3.org/2000/svg" viewBox="0 0 496 496"><path d="M424 352c-.6 0-1.2.008-1.816.024C414.864 319.6 385.952 296 352 296c-34.64 0-63.632 24.592-70.464 57.232-15.936-12.656-36.704-19.408-59.064-16.632-2.744-14.024-9.184-27.144-18.856-37.944l-.168.152C188.696 282.368 167.368 272 144 272c-38.96 0-71.728 27.68-78.656 65.344C27.68 344.272 0 377.04 0 416c0 44.112 35.888 80 80 80h344c39.696 0 72-32.304 72-72s-32.304-72-72-72zM232 480H80c-35.288 0-64-28.712-64-64 0-32.832 24.576-60.168 57.168-63.624A64.341 64.341 0 0 1 80 352c21.392 0 41.288 10.624 53.208 28.424l13.288-8.904c-14.52-21.664-38.496-34.72-64.448-35.392C89.144 308.152 114.288 288 144 288c32.984 0 60.968 25.736 63.72 58.592l.064.784c.112 1.536.216 3.072.216 4.624 0 18.176-7.776 35.568-21.336 47.704l10.672 11.92c16.792-15.032 26.456-36.52 26.624-59.016C262.912 347.456 296 378.088 296 416c0 35.288-28.712 64-64 64zm192 0H279.8c19.496-14.6 32.2-37.816 32.2-64 0-17.96-5.984-34.592-16.016-48H296c0-30.88 25.12-56 56-56 25.976 0 48.112 17.784 54.24 42.376-21.888 5.536-40.232 20.952-49 42.616L372.072 403c7.448-18.4 23.728-31.128 42.84-34.232l1.648-.216c2.448-.32 4.92-.552 7.44-.552 30.88 0 56 25.12 56 56s-25.12 56-56 56z"/><path d="M90.304 239.928c41.736-.72 81.416-20.88 106.496-54.328l3.688-4.92C213.096 193.064 229.928 200 248 200s34.904-6.936 47.512-19.32l3.688 4.92c25.08 33.448 64.76 53.608 106.496 54.328 37.68 36.528 74.208 67.688 77.12 70.16l10.36-12.184c-.888-.76-58.504-49.888-103.808-96.904C429.112 185.728 456 147.44 456 104 456 46.656 409.344 0 352 0S248 46.656 248 104c0 5.384.552 10.712 1.368 16h-68.92c-9.824 0-18.528 5.856-22.184 14.92C139.592 181.288 4.184 296.744 2.816 297.912l10.36 12.184c2.92-2.48 39.448-33.64 77.128-70.168zM352 16c48.52 0 88 39.48 88 88 0 39.008-25.616 73.104-62.664 84.224-18.928-20.592-34.184-39.856-39.6-53.304-3.656-9.064-12.36-14.92-22.184-14.92h-49.928c-.968-5.264-1.624-10.6-1.624-16 0-48.52 39.48-88 88-88zM173.112 140.896c1.192-2.976 4.072-4.896 7.336-4.896h135.104c3.264 0 6.144 1.92 7.336 4.896 8.184 20.312 35.16 51.24 64.704 81.128C357.744 216.808 330.4 200.536 312 176l-16-21.336-6.4 8.536c-9.912 13.216-25.08 20.8-41.6 20.8-16.52 0-31.688-7.584-41.6-20.8l-6.4-8.536L184 176c-18.4 24.536-45.744 40.808-75.592 46.024 29.536-29.896 56.52-60.816 64.704-81.128zM64 448h16v16H64zM96 448h104v16H96zM320 448h16v16h-16zM352 448h72v16h-72z"/></svg>