<?xml version="1.0" encoding="iso-8859-1"?>
<!-- Generator: Adobe Illustrator 19.0.0, SVG Export Plug-In . SVG Version: 6.00 Build 0)  -->
<svg xmlns="http://www.w3.org/2000/svg" xmlns:xlink="http://www.w3.org/1999/xlink" version="1.1" id="Capa_1" x="0px" y="0px" viewBox="0 0 496 496" style="enable-background:new 0 0 496 496;" xml:space="preserve">
<g>
	<g>
		<g>
			<path d="M472,368h-62.936c-35.736-8.672-65.208-22.136-88.432-40.032c13.464-0.176,25.984-5.912,34.872-15.784     C364.088,317.264,373.96,320,384,320c16.032,0,31.16-6.984,41.68-18.712l0.056,0.048c1.616-1.808,3.056-3.728,4.408-5.704     c0.064-0.088,0.136-0.168,0.2-0.256C449.528,292.328,464,275.792,464,256c0-25.112-23.432-45.296-49.328-38.808     C405.528,211.168,395.008,208,384,208c-3.168,0-6.256,0.352-9.304,0.864l-0.016-0.096c-1.728,0.288-3.424,0.664-5.088,1.096     c-0.024,0.008-0.04,0.016-0.056,0.016c-2.128,0.56-4.176,1.28-6.192,2.072c-0.36,0.144-0.72,0.296-1.08,0.44     c-4.2,1.76-8.112,3.992-11.688,6.648c-0.072,0.048-0.136,0.104-0.208,0.16c-5.712,4.28-10.552,9.6-14.248,15.696     C330.904,232.976,325.512,232,320,232c-22.52,0-41.416,15.608-46.568,36.568c-20.936-47.408-13.64-95.696-10.696-110.072     c7.008-1.328,13.856-3.472,20.296-6.616c8.752,5.328,18.672,8.12,28.968,8.12c30.872,0,56-25.12,56-56     c0-27.224-19.992-50.512-46.368-55.128C309.184,19.44,280.2,0,248,0c-24.536,0-47.392,11.144-62.52,30.152     c-0.328-0.168-0.672-0.28-1-0.44c-1.368-0.664-2.752-1.288-4.176-1.84c-0.64-0.248-1.288-0.48-1.936-0.712     c-1.288-0.448-2.6-0.848-3.936-1.208c-0.696-0.184-1.384-0.376-2.088-0.536c-1.392-0.312-2.808-0.552-4.232-0.76     c-0.632-0.096-1.256-0.216-1.888-0.288C164.184,24.144,162.104,24,160,24c-30.872,0-56,25.12-56,56s25.128,56,56,56     c4.64,0,9.2-0.592,13.624-1.704c-1.216,8.712-2.632,20.584-3.68,34.544C161.712,153.864,145.888,144,128,144     c-15.376,0-29.456,7.28-38.376,19.216l-0.024-0.024c-0.264,0.344-0.44,0.736-0.688,1.088c-0.872,1.232-1.752,2.456-2.512,3.784     C85.584,168.016,84.792,168,84,168c-28.672,0-52,23.328-52,52s23.328,52,52,52c20.552,0,39.04-12.248,47.344-30.584     c6.752,17.424,23.192,29.44,42.248,30.4c2.2,12.568,5.04,24.248,8.6,34.912C177.768,305.032,173.016,304,168,304     c-3.248,0-6.464,0.392-9.592,1.176C152.48,299.352,144.464,296,136,296c-17.648,0-32,14.352-32,32     c0,16.048,11.872,29.368,27.296,31.656c1.28,3.024,2.984,5.776,4.912,8.344H24c-13.232,0-24,10.768-24,24v16     c0,10.536,6.872,19.416,16.336,22.632C19.696,467.232,50.536,496,88,496h320c37.464,0,68.304-28.768,71.664-65.368     C489.128,427.416,496,418.536,496,408v-16C496,378.768,485.232,368,472,368z M320,248c3.336,0,6.624,0.624,9.848,1.728     C328.656,254.296,328,259.072,328,264c0,3.128,0.256,6.264,0.776,9.328l15.784-2.656c-0.376-2.184-0.56-4.432-0.56-6.672     c0-6.4,1.616-12.416,4.304-17.808c0.488-0.976,0.928-1.984,1.48-2.904c0.6-0.992,1.32-1.896,2-2.832     c1.112-1.52,2.312-2.944,3.608-4.272c0.744-0.768,1.464-1.552,2.264-2.256c0.792-0.688,1.64-1.296,2.48-1.92     c0.88-0.656,1.768-1.304,2.704-1.888c0.848-0.528,1.72-1.008,2.608-1.472c1.088-0.568,2.2-1.08,3.344-1.552     c0.824-0.336,1.648-0.68,2.496-0.968c1.496-0.496,3.04-0.88,4.616-1.208c2.64-0.544,5.328-0.92,8.096-0.92     c8.856,0,17.28,2.88,24.352,8.328l3.472,2.664l4.12-1.48c2.84-1.016,5.48-1.512,8.056-1.512c13.232,0,24,10.768,24,24     c0,7.504-3.536,14.16-9.016,18.544C439.648,271.096,440,267.568,440,264c0-6.4-1.08-12.688-3.2-18.688l-15.08,5.344     c1.512,4.272,2.28,8.768,2.28,13.344c0,7.152-1.96,14.072-5.512,20.152c-0.424,0.728-0.928,1.4-1.392,2.096     c-0.744,1.104-1.528,2.176-2.376,3.2C407.176,298.528,395.96,304,384,304c-9.272,0-17.984-3.096-25.184-8.952l-7-5.68     L347,296.992c-5.928,9.4-16.024,15.008-27,15.008c-17.648,0-32-14.352-32-32S302.352,248,320,248z M267.64,292.496     c19.48,32.912,49.768,58.168,90.272,75.504h-108c-31.2-15.112-51.496-48.04-60.408-97.968C209.416,264.184,224,245.776,224,224     c0-23.216-16.752-42.656-38.576-47.032c1.096-17.56,2.904-32.416,4.328-42.336c0.008,0.008,0.008,0.008,0.016,0.016     c1.072,1.144,2.16,2.264,3.296,3.344c0.56,0.528,1.04,1.128,1.616,1.64l0.096-0.104c14.032,12.584,32.096,19.92,51.368,20.368     C242.048,182.456,236.224,239.432,267.64,292.496z M220.944,368h-21.152c3.248-4.288,5.656-9.2,6.968-14.592     C211.12,358.824,215.864,363.656,220.944,368z M160,120c-22.056,0-40-17.944-40-40c0-22.056,17.944-40,40-40     c2.48,0,4.888,0.296,7.24,0.728c0.76,0.144,1.496,0.352,2.248,0.536c1.592,0.392,3.144,0.872,4.656,1.448     c0.8,0.304,1.6,0.608,2.384,0.968c1.472,0.672,2.872,1.464,4.24,2.304c0.648,0.4,1.328,0.736,1.96,1.176     C193.144,54.384,200,66.392,200,80c0,2.24-0.184,4.488-0.552,6.664l15.784,2.656C215.744,86.264,216,83.128,216,80     c0-15.928-6.72-30.296-17.432-40.504C210.68,24.696,228.664,16,248,16c23.304,0,44.432,12.776,55.632,32.632     c-8.056,1.208-15.744,4.152-22.6,8.696l8.856,13.328C296.448,66.304,304.096,64,312,64v-0.088l3.248,0.256     C335.856,65.832,352,83.32,352,104c0,22.056-17.944,40-40,40c-8.56,0-16.768-2.712-23.72-7.856l-4.184-3.096l-4.528,2.576     C269.944,141.104,259.024,144,248,144c-16.192,0-31.464-6.088-43.12-16.752c-0.488-0.448-0.912-0.952-1.392-1.408     c-1.464-1.424-2.912-2.864-4.24-4.432c-0.192-0.224-0.352-0.48-0.544-0.712c-1.52-1.848-2.976-3.76-4.304-5.792     c-2.768-4.24-5.072-8.768-6.76-13.544l-15.08,5.336c1.16,3.28,2.552,6.464,4.128,9.552C171.48,118.672,165.832,120,160,120z      M176,256c-15.496,0-28.712-11.104-31.424-26.408l-1.456-8.224l-8.16,1.816c-2.464,0.544-4.728,0.816-6.68,0.816     c-0.016,0-0.032,0-0.04,0l-7.896-0.424l-1.704,6.104C114.32,245.176,100.072,256,84,256c-19.848,0-36-16.152-36-36     c0-18.688,14.368-33.92,32.608-35.656C80.208,186.856,80,189.408,80,192c0,6.688,1.352,13.16,4.008,19.224l14.656-6.424     C96.896,200.776,96,196.464,96,192c0-4.696,1.08-9.208,3.008-13.368c0.376-0.816,0.776-1.616,1.216-2.392     c0.424-0.752,0.896-1.48,1.392-2.192C107.488,165.384,117.24,160,128,160c13.168,0,24.632,8.064,29.456,19.872     c-3.6,1.512-7.072,3.336-10.264,5.736L156.8,198.4c3.744-2.808,7.992-4.648,12.488-5.608C171.664,192.28,173.88,192,176,192     c17.648,0,32,14.352,32,32S193.648,256,176,256z M136,344c-8.824,0-16-7.176-16-16c0-8.824,7.176-16,16-16     c5.264,0,10.192,2.608,13.176,6.968l3.664,5.344l5.992-2.472c2.952-1.224,6.032-1.84,9.168-1.84c13.232,0,24,10.768,24,24     s-10.768,24-24,24c-10.912,0-20.44-7.44-23.16-18.088l-1.6-6.296l-6.496,0.28C136.32,343.92,135.896,343.968,136,344z M408,480     H88c-28.152,0-51.456-20.904-55.36-48h430.72C459.456,459.096,436.152,480,408,480z M480,408c0,4.408-3.584,8-8,8H24     c-4.416,0-8-3.592-8-8v-16c0-4.408,3.584-8,8-8h448c4.416,0,8,3.592,8,8V408z"/>
			<rect x="304" y="80" width="16" height="16"/>
			<rect x="232" y="96" width="16" height="16"/>
			<rect x="384" y="240" width="16" height="16"/>
			<rect x="144" y="56" width="16" height="16"/>
			<rect x="168" y="216" width="16" height="16"/>
		</g>
	</g>
</g>
<g>
</g>
<g>
</g>
<g>
</g>
<g>
</g>
<g>
</g>
<g>
</g>
<g>
</g>
<g>
</g>
<g>
</g>
<g>
</g>
<g>
</g>
<g>
</g>
<g>
</g>
<g>
</g>
<g>
</g>
</svg>
