<?xml version="1.0" encoding="iso-8859-1"?>
<!-- Generator: Adobe Illustrator 19.0.0, SVG Export Plug-In . SVG Version: 6.00 Build 0)  -->
<svg xmlns="http://www.w3.org/2000/svg" xmlns:xlink="http://www.w3.org/1999/xlink" version="1.1" id="Capa_1" x="0px" y="0px" viewBox="0 0 496 496" style="enable-background:new 0 0 496 496;" xml:space="preserve">
<g>
	<g>
		<g>
			<path d="M248,0C111.248,0,0,111.248,0,248s111.248,248,248,248s248-111.248,248-248S384.752,0,248,0z M248,480     C120.08,480,16,375.92,16,248S120.08,16,248,16s232,104.08,232,232S375.92,480,248,480z"/>
			<path d="M248,56C142.136,56,56,142.136,56,248s86.136,192,192,192s192-86.136,192-192S353.864,56,248,56z M104,349.008     c-6.384-9.08-11.936-18.784-16.536-29.008H104V349.008z M104,304H81.184c-3.464-10.28-6-20.976-7.512-32H104V304z M104,256H72.2     c-0.12-2.656-0.2-5.32-0.2-8c0-8.144,0.6-16.144,1.68-24H104V256z M104,208H76.64c2.592-11.104,6.232-21.808,10.824-32H104V208z      M104,160h-8.32c2.592-4.464,5.368-8.8,8.32-13.008V160z M392,146.992c2.96,4.208,5.736,8.544,8.32,13.008H392V146.992z      M336,95.68c8.304,4.816,16.208,10.256,23.584,16.32H336V95.68z M336,128h40v-0.608c0.192,0.208,0.392,0.4,0.584,0.608H376v32     h-40V128z M336,224h40v32h-40V224z M336,272h40v32h-40V272z M336,320h40v32h-40V320z M280,224h16v48h-16V224z M176,224h8v32h-8     V224z M160,95.68V112h-23.584C143.792,105.936,151.696,100.496,160,95.68z M120,127.392V128h40v32h-40v-32h-0.584     C119.608,127.792,119.808,127.592,120,127.392z M120,256v-32h40v32H120z M160,272v32h-40v-32H160z M120,208v-32h40v32H120z      M160,400.32c-15.08-8.744-28.752-19.656-40.584-32.32H120h40V400.32z M216,421.032c-6.976-1.288-13.832-2.944-20.496-5.032H216     V421.032z M216,400h-40v-32h40V400z M216,352h-40h-16h-40v-32h40v16h16v-16h40V352z M216,304h-40v-32h8v16h32V304z M216,272h-16     v-48h16V272z M216,208h-32h-8v-32h40V208z M216,160h-40v-32h40V160z M216,112h-40V87.464c12.624-5.68,26.016-9.912,40-12.496V112     z M264,423.24c-5.272,0.48-10.6,0.76-16,0.76c-5.4,0-10.728-0.28-16-0.76V72.76c5.272-0.48,10.6-0.76,16-0.76     c5.4,0,10.728,0.28,16,0.76V423.24z M280,421.032V416h20.496C293.832,418.088,286.976,419.744,280,421.032z M320,400h-40v-32h40     V400z M320,352h-40v-32h40V352z M320,304h-40v-16h32v-16h8V304z M320,256h-8v-32h8V256z M320,208h-8h-32v-32h40V208z M320,160     h-40v-32h40V160z M320,112h-40V74.968c13.984,2.576,27.376,6.816,40,12.496V112z M336,400.32V368h40h0.584     C364.752,380.664,351.08,391.576,336,400.32z M376,208h-40v-32h40v16h16v-16h16.536c4.592,10.192,8.232,20.896,10.824,32H392H376     z M392,349.008V320h16.536C403.936,330.224,398.384,339.928,392,349.008z M414.808,304H392v-32h30.32     C420.808,283.024,418.272,293.72,414.808,304z M392,256v-32h30.32c1.08,7.856,1.68,15.856,1.68,24c0,2.68-0.08,5.344-0.2,8H392z"/>
		</g>
	</g>
</g>
<g>
</g>
<g>
</g>
<g>
</g>
<g>
</g>
<g>
</g>
<g>
</g>
<g>
</g>
<g>
</g>
<g>
</g>
<g>
</g>
<g>
</g>
<g>
</g>
<g>
</g>
<g>
</g>
<g>
</g>
</svg>
