<?xml version="1.0" encoding="iso-8859-1"?>
<!-- Generator: Adobe Illustrator 19.0.0, SVG Export Plug-In . SVG Version: 6.00 Build 0)  -->
<svg xmlns="http://www.w3.org/2000/svg" xmlns:xlink="http://www.w3.org/1999/xlink" version="1.1" id="Capa_1" x="0px" y="0px" viewBox="0 0 496 496" style="enable-background:new 0 0 496 496;" xml:space="preserve">
<g>
	<g>
		<g>
			<path d="M473.192,352c4.392-10.04,6.808-20.864,6.808-32c0-26.088-12.616-49.232-32-63.848V256h-0.208     c-11.776-8.824-26.024-14.472-41.536-15.68c1.12-5.352,1.744-10.792,1.744-16.32c0-26.088-12.616-49.232-32-63.848V160h-0.208     c-13.352-10-29.864-16-47.792-16c-44.112,0-80,35.888-80,80c0,5.528,0.624,10.976,1.736,16.32     C208.552,243.536,176,278.008,176,320c0,11.136,2.416,21.96,6.808,32H160v40c0,57.344,46.656,104,104,104h128     c57.344,0,104-46.656,104-104v-40H473.192z M448,284v-6.192c9.928,11.28,16,26.024,16,42.192c0,11.36-3.12,22.288-8.76,32     H344.752c-5.632-9.712-8.752-20.648-8.752-32c0-11.208,2.912-21.744,8-30.912V304c0,17.648,14.352,32,32,32     c15.912,0,29.144-11.672,31.592-26.896C411.336,310.952,415.544,312,420,312C435.44,312,448,299.44,448,284z M432,264.656V284     c0,6.616-5.384,12-12,12c-6.616,0-12-5.384-12-12h-16v20c0,8.824-7.176,16-16,16c-8.824,0-16-7.176-16-16v-33.88     c10.968-8.816,24.872-14.12,40-14.12C411.664,256,422.576,259.184,432,264.656z M288,174.12c10.968-8.816,24.872-14.12,40-14.12     c11.664,0,22.576,3.184,32,8.656V188c0,6.616-5.384,12-12,12c-6.616,0-12-5.384-12-12h-16v20c0,8.824-7.176,16-16,16     c-8.824,0-16-7.176-16-16V174.12z M272,193.088V208c0,17.648,14.352,32,32,32c15.912,0,29.144-11.672,31.592-26.896     C339.336,214.952,343.544,216,348,216c15.44,0,28-12.56,28-28v-6.192c9.928,11.28,16,26.024,16,42.192     c0,5.696-0.768,11.304-2.232,16.728c-27.28,3.504-50.248,20.776-61.768,44.632c-5.584-11.56-13.84-21.552-24-29.208V256h-0.208     c-10.768-8.064-23.592-13.472-37.56-15.272C264.76,235.296,264,229.696,264,224C264,212.792,266.912,202.256,272,193.088z      M216,270.12c10.968-8.816,24.872-14.12,40-14.12c11.664,0,22.576,3.184,32,8.656V284c0,6.616-5.384,12-12,12     c-6.616,0-12-5.384-12-12h-16v20c0,8.824-7.176,16-16,16c-8.824,0-16-7.176-16-16V270.12z M200,289.088V304     c0,17.648,14.352,32,32,32c15.912,0,29.144-11.672,31.592-26.896C267.336,310.952,271.544,312,276,312c15.44,0,28-12.56,28-28     v-6.192c9.928,11.28,16,26.024,16,42.192c0,11.352-3.12,22.288-8.76,32H200.76c-5.64-9.72-8.76-20.648-8.76-32     C192,308.792,194.912,298.256,200,289.088z M480,392c0,48.52-39.48,88-88,88H264c-48.52,0-88-39.48-88-88v-24h304V392z"/>
			<path d="M458.056,394.672l-15.08-5.344C430.536,424.424,397.192,448,360,448v16C403.952,464,443.36,436.144,458.056,394.672z"/>
			<rect x="328" y="448" width="16" height="16"/>
			<path d="M300,64c11.024,0,20,8.968,20,20v44h16V84c0-19.848-16.152-36-36-36c-11.024,0-20-8.968-20-20V0h-16v28     C264,47.848,280.152,64,300,64z"/>
			<path d="M228,64c11.024,0,20,8.968,20,20v44h16V84c0-19.848-16.152-36-36-36c-11.024,0-20-8.968-20-20V0h-16v28     C192,47.848,208.152,64,228,64z"/>
			<path d="M372,64c11.024,0,20,8.968,20,20v44h16V84c0-19.848-16.152-36-36-36c-11.024,0-20-8.968-20-20V0h-16v28     C336,47.848,352.152,64,372,64z"/>
			<path d="M128,64c0-35.288-28.712-64-64-64S0,28.712,0,64c0,24.08,13.384,45.08,33.088,56C13.384,130.92,0,151.92,0,176     s13.384,45.08,33.088,56C13.384,242.92,0,263.92,0,288c0,32.576,24.48,59.488,56,63.448V496h16V351.448     c31.52-3.96,56-30.872,56-63.448c0-24.08-13.384-45.08-33.088-56C114.616,221.08,128,200.08,128,176s-13.384-45.08-33.088-56     C114.616,109.08,128,88.08,128,64z M32,28.32C40.504,20.688,51.696,16,64,16c8.744,0,16.928,2.392,24,6.496V64     c0,4.416-3.592,8-8,8s-8-3.584-8-8V32H56v12c0,6.616-5.384,12-12,12s-12-5.384-12-12V28.32z M112,288c0,26.472-21.528,48-48,48     s-48-21.528-48-48s21.528-48,48-48S112,261.528,112,288z M112,176c0,26.472-21.528,48-48,48s-48-21.528-48-48s21.528-48,48-48     S112,149.528,112,176z M64,112c-26.472,0-48-21.528-48-48c0-3.976,0.544-7.824,1.456-11.52C21.072,63.76,31.536,72,44,72     c4.496,0,8.76-1.072,12.528-2.96C58.848,79.856,68.496,88,80,88c13.232,0,24-10.768,24-24V37.52c5.048,7.6,8,16.696,8,26.48     C112,90.472,90.472,112,64,112z"/>
		</g>
	</g>
</g>
<g>
</g>
<g>
</g>
<g>
</g>
<g>
</g>
<g>
</g>
<g>
</g>
<g>
</g>
<g>
</g>
<g>
</g>
<g>
</g>
<g>
</g>
<g>
</g>
<g>
</g>
<g>
</g>
<g>
</g>
</svg>
