<?xml version="1.0" encoding="iso-8859-1"?>
<!-- Generator: Adobe Illustrator 19.0.0, SVG Export Plug-In . SVG Version: 6.00 Build 0)  -->
<svg xmlns="http://www.w3.org/2000/svg" xmlns:xlink="http://www.w3.org/1999/xlink" version="1.1" id="Capa_1" x="0px" y="0px" viewBox="0 0 496 496" style="enable-background:new 0 0 496 496;" xml:space="preserve">
<g>
	<g>
		<path d="M400,304v-32h64c17.648,0,32-14.352,32-32s-14.352-32-32-32h-64v-32h-16v32h-16v-96h16v32h16v-32h64    c17.648,0,32-14.352,32-32s-14.352-32-32-32h-64V16h-16v32h-16V0h-48v48.08c-47.872,0.216-95.984,1.736-144,4.544V0h-48v55.832    c-25.32,1.936-50.592,4.192-75.736,6.84C42,63.752,32.328,68.36,25.032,75.656L5.464,95.224C1.936,98.752,0,103.432,0,108.408    c0,5.208,2.2,10.216,6.048,13.736c3.448,3.16,7.952,4.888,12.584,4.888c0.528,0,1.08-0.024,1.616-0.072l57.4-4.984    c16.728-1.456,33.528-2.688,50.352-3.824v97.68c-25.32,1.936-50.592,4.192-75.736,6.84c-10.264,1.08-19.936,5.688-27.232,12.984    L5.464,255.224C1.936,258.752,0,263.432,0,268.408c0,5.208,2.2,10.216,6.048,13.736c3.448,3.16,7.952,4.888,12.584,4.888    c0.528,0,1.08-0.024,1.616-0.072l57.4-4.984c16.728-1.456,33.528-2.688,50.352-3.824V432H80c-8.824,0-16-7.176-16-16    c0-8.824,7.176-16,16-16s16,7.176,16,16h16c0-17.648-14.352-32-32-32s-32,14.352-32,32c0,5.856,1.696,11.272,4.448,16H40    c-22.056,0-40,17.944-40,40v24h63.12l1.888-5.32C67.272,484.288,73.304,480,80,480s12.728,4.288,14.992,10.68L96.88,496h302.24    l1.888-5.32C403.272,484.288,409.304,480,416,480c6.696,0,12.728,4.288,14.992,10.68l1.888,5.32H496v-24c0-22.056-17.944-40-40-40    h-12.448c2.752-4.728,4.448-10.144,4.448-16c0-17.648-14.352-32-32-32s-32,14.352-32,32h16c0-8.824,7.176-16,16-16    c8.824,0,16,7.176,16,16c0,8.824-7.176,16-16,16h-48V272h16v32H400z M464,224c8.824,0,16,7.176,16,16c0,8.824-7.176,16-16,16V224z     M432,224h16v32h-16V224z M400,224h16v32h-16V224z M464,64c8.824,0,16,7.176,16,16s-7.176,16-16,16V64z M432,64h16v32h-16V64z     M400,64h16v32h-16V64z M336,16h16v32h-16V16z M144,16h16v37.56c-5.336,0.344-10.664,0.736-16,1.112V16z M76.256,106.04    l-57.408,4.984c-0.936,0.088-1.68-0.392-2-0.68c-0.32-0.288-0.848-0.928-0.848-1.936c0-0.704,0.272-1.368,0.776-1.864    l19.568-19.568c4.712-4.712,10.96-7.688,17.592-8.392C145.832,68.904,239.28,64,331.672,64H384v32h-32V80h-16v16h-28.52    c-48.984,0-98.32,1.528-147.48,4.24V88h-16v13.112C121.352,102.496,98.744,104.08,76.256,106.04z M352,112v96h-16v-96H352z     M320,112v96.08c-47.872,0.216-95.984,1.736-144,4.544V115.4c43.856-2.176,87.808-3.4,131.48-3.4H320z M160,116.272v97.296    c-5.336,0.344-10.664,0.736-16,1.112v-97.544C149.328,116.808,154.664,116.568,160,116.272z M456,448c13.232,0,24,10.768,24,24v8    h-36.392c-5.64-9.76-16.128-16-27.608-16c-11.48,0-21.968,6.24-27.608,16H107.608c-5.64-9.76-16.128-16-27.608-16    s-21.968,6.24-27.608,16H16v-8c0-13.232,10.768-24,24-24h88h48h144h48H456z M144,432V277.136c5.328-0.328,10.664-0.568,16-0.864    V432H144z M250.336,384h-4.672c-21.344,0-40.528,11.856-50.088,30.952c-4.024,8.056-11.176,13.736-19.576,15.976V275.4    c43.856-2.176,87.808-3.4,131.48-3.4H320v158.928c-8.4-2.232-15.552-7.92-19.576-15.976C290.864,395.856,271.68,384,250.336,384z     M292.8,432h-89.6c2.584-2.968,4.872-6.248,6.696-9.888c6.816-13.64,20.528-22.112,35.768-22.112h4.672    c15.24,0,28.952,8.472,35.776,22.112C287.928,425.752,290.216,429.032,292.8,432z M336,432V272h16v160H336z M352,256v-16h-16v16    h-28.52c-48.984,0-98.32,1.528-147.48,4.24V248h-16v13.112c-22.648,1.384-45.256,2.968-67.744,4.928l-57.408,4.984    c-0.936,0.08-1.68-0.392-2-0.68c-0.32-0.288-0.848-0.928-0.848-1.936c0-0.704,0.272-1.368,0.776-1.864l19.568-19.568    c4.712-4.712,10.96-7.688,17.592-8.392C145.832,228.904,239.28,224,331.672,224H384v32H352z"/>
	</g>
</g>
<g>
</g>
<g>
</g>
<g>
</g>
<g>
</g>
<g>
</g>
<g>
</g>
<g>
</g>
<g>
</g>
<g>
</g>
<g>
</g>
<g>
</g>
<g>
</g>
<g>
</g>
<g>
</g>
<g>
</g>
</svg>
