<?xml version="1.0" encoding="iso-8859-1"?>
<!-- Generator: Adobe Illustrator 19.0.0, SVG Export Plug-In . SVG Version: 6.00 Build 0)  -->
<svg xmlns="http://www.w3.org/2000/svg" xmlns:xlink="http://www.w3.org/1999/xlink" version="1.1" id="Capa_1" x="0px" y="0px" viewBox="0 0 496.928 496.928" style="enable-background:new 0 0 496.928 496.928;" xml:space="preserve">
<g>
	<g>
		<g>
			<path d="M248.464,296.464c35.288,0,64-28.712,64-64h-16c0,26.472-21.528,48-48,48s-48-21.528-48-48h-16     C184.464,267.752,213.176,296.464,248.464,296.464z"/>
			<rect x="296.464" y="192.464" width="16" height="16"/>
			<rect x="184.464" y="192.464" width="16" height="16"/>
			<rect x="144.464" y="352.464" width="16" height="16"/>
			<rect x="184.464" y="376.464" width="16" height="16"/>
			<rect x="336.464" y="352.464" width="16" height="16"/>
			<rect x="296.464" y="376.464" width="16" height="16"/>
			<path d="M496.928,453.176l-0.496-5.44c-8.144-89.56-63.592-153.848-65.952-156.544l-3.728-4.264l-5.264,2.104     c-4.76,1.904-9.16,3.808-13.28,5.688c-0.736-15.472-3.048-28.472-5.04-37.16c42.608-1.24,83.168,6.64,83.728,6.744l9.568,1.912     v-9.752c0-81.28-24.112-122.408-25.144-124.12l-2.728-4.552l-5.264,0.752c-13.36,1.912-26.616,5.56-39.168,10.008     c-2.712-33.096-27.872-59.856-60.2-65.08c20.128-31.808,28.104-62.424,28.264-63.064l2.488-9.944h-74.248v8     c0,17.688-3.52,32.816-8.88,45.888c-4.872-30.488-31.28-53.888-63.12-53.888c-31.744,0-58.088,23.248-63.08,53.6     c-5.376-13.032-8.92-28.072-8.92-45.6v-8h-74.248l2.488,9.944c0.16,0.64,8.136,31.256,28.264,63.064     c-32.328,5.224-57.496,31.984-60.2,65.08c-12.552-4.448-25.808-8.096-39.168-10.008l-5.264-0.752l-2.728,4.552     c-1.032,1.712-25.144,42.84-25.144,124.12v9.752l9.568-1.912c0.568-0.104,41.128-7.992,83.728-6.752     c-1.992,8.688-4.312,21.688-5.04,37.168c-4.12-1.888-8.52-3.792-13.28-5.688l-5.264-2.104l-3.728,4.264     c-2.36,2.696-57.808,66.992-65.952,156.544L0,453.176l51.12,25.56l-5.536,17.728h202.88h202.88l-5.544-17.728L496.928,453.176z      M469.456,396.176c-15.68,6.792-32.336,17.632-41.88,24.24l-2.608-8.336c-1.88-6.024-4.36-11.744-7.28-17.2     c6.712-5.84,22.352-18.08,41.928-24.632C463.144,378.36,466.496,386.992,469.456,396.176z M452.848,355.664     c-19.888,7.016-35.736,18.736-43.928,25.64c-2.872-3.728-6.008-7.256-9.416-10.552c1.76-1.192,3.472-2.392,5.296-3.56     l7.224-4.656l-5.16-6.872c-0.136-0.184-0.736-0.952-1.768-2.136c9.888-6.32,24.92-14.408,37.672-16.48     C446.072,342.688,449.48,348.904,452.848,355.664z M422,306.128c2.744,3.52,6.92,9.16,11.76,16.472     c-16.248,4.304-32.352,14.096-40.56,19.584c-4.112-3.408-9.216-7.208-15.44-11.16C383.872,326.184,397.888,316.336,422,306.128z      M152.464,232.464v-68.896c16.304,4.888,49.968,12.896,96,12.896s79.696-8.008,96-12.896v68.896c0,52.936-43.064,96-96,96     S152.464,285.4,152.464,232.464z M167.056,309.144c-12.8,4.08-23.808,8.712-33.128,13.472     c-1.304-1.272-10.296-9.632-29.432-20.032c0.192-19.16,3.328-35.232,5.512-44.12c10.728,0.968,21.248,2.696,31.016,5.384     C146.048,281.016,155.096,296.448,167.056,309.144z M248.464,144.464c29.184,0,52.984-9.56,72.256-23.528     c5.704,2.048,20.536,8.976,23.272,26c-12.76,4.112-47.2,13.528-95.528,13.528s-82.768-9.416-95.52-13.528     c2.728-17.048,17.592-23.968,23.264-26C195.48,134.896,219.28,144.464,248.464,144.464z M224.464,88.464     c0-13.232,10.768-24,24-24c13.232,0,24,10.768,24,24s-10.768,24-24,24C235.232,112.464,224.464,101.696,224.464,88.464z      M355.904,263.856c9.768-2.688,20.296-4.408,31.032-5.384c2.176,8.856,5.304,24.872,5.496,44.12     c-19.136,10.4-28.128,18.76-29.432,20.032c-9.32-4.76-20.32-9.4-33.128-13.472C341.832,296.464,350.872,281.032,355.904,263.856z      M304.464,344.464v-15.152c3.952-2.296,7.728-4.832,11.352-7.576c39.784,10.936,62.544,28.16,72.336,37.336     c-24.624,17.104-43.256,36.288-55.888,57.392h-75.8v-35.72l48-32V344.464z M460,145.296     c5.56,11.856,18.944,45.936,20.344,101.616c-4.224-0.68-9.688-1.48-16.024-2.264c-1.312-40.848-22.952-79.928-30.576-92.448     C442.312,149.336,451.128,146.904,460,145.296z M448.24,242.944c-25.752-2.264-59.312-3-88.744,3.512     c0.576-4.592,0.968-9.248,0.968-13.992v-43.768c8.128-5.424,30.592-19.632,57.976-30.808     C422.48,164.256,446.144,203.208,448.24,242.944z M408.464,144.464c0,0.064-0.008,0.128-0.016,0.192     c-20.056,8.496-37.104,18.224-47.984,24.992v-17.184c0-22.36-13.6-35.944-26.016-42.848c7.08-6.616,13.408-13.76,19.032-21.104     C383.888,89.072,408.464,113.928,408.464,144.464z M336.248,16.464h37.408c-3.944,11.664-11.912,31.944-25.12,51.976     c-21.744,32.976-48.568,52.496-79.936,58.24C292.424,111.704,332.952,77.456,336.248,16.464z M200.464,64.464     c0-26.472,21.528-48,48-48s48,21.528,48,48v16h0.304c-2.744,3.616-5.6,6.904-8.504,9.984c0.032-0.672,0.2-1.304,0.2-1.984     c0-22.056-17.944-40-40-40c-22.056,0-40,17.944-40,40c0,0.536,0.136,1.032,0.16,1.568c-2.776-2.976-5.52-6.12-8.16-9.568V64.464z      M123.272,16.464h37.408c3.296,60.992,43.832,95.24,67.648,110.208c-31.368-5.744-58.192-25.264-79.936-58.24     C135.176,48.408,127.208,28.128,123.272,16.464z M143.44,88.512c5.624,7.344,11.952,14.488,19.032,21.104     c-12.408,6.904-26.008,20.488-26.008,42.848v17.184c-10.88-6.768-27.936-16.496-47.984-24.992     c-0.008-0.064-0.016-0.128-0.016-0.192C88.464,113.928,113.04,89.072,143.44,88.512z M16.592,246.92     c1.392-55.704,14.784-89.784,20.336-101.624c8.864,1.608,17.68,4.048,26.256,6.912c-7.624,12.52-29.256,51.6-30.568,92.44     C26.272,245.432,20.808,246.24,16.592,246.92z M48.688,242.944c2.104-39.624,25.736-78.632,29.8-85.048     c27.368,11.168,49.848,25.376,57.976,30.8v43.768c0,4.744,0.392,9.392,0.968,13.992C108,239.936,74.432,240.672,48.688,242.944z      M74.928,306.128c24.112,10.208,38.136,20.056,44.232,24.896c-6.216,3.952-11.328,7.752-15.44,11.16     c-8.2-5.488-24.304-15.28-40.56-19.584C68,315.288,72.176,309.648,74.928,306.128z M54.16,337.04     c12.728,2.072,27.768,10.168,37.672,16.48c-1.024,1.176-1.624,1.944-1.76,2.128l-5.16,6.872l7.224,4.656     c1.824,1.176,3.536,2.376,5.288,3.56c-3.408,3.312-6.544,6.848-9.416,10.568c-8.192-6.904-24.04-18.632-43.928-25.648     C47.456,348.896,50.856,342.688,54.16,337.04z M37.312,370.248c19.496,6.544,35.192,18.792,41.92,24.624     c-2.92,5.456-5.392,11.184-7.272,17.2l-2.608,8.336c-9.544-6.608-26.2-17.448-41.88-24.24     C30.432,386.992,33.784,378.36,37.312,370.248z M55.96,463.264l-38.976-19.48c1.288-11.152,3.424-21.848,6.048-32.096     c16.272,7.384,34.08,19.608,41.304,24.768L55.96,463.264z M137.528,480.464l6.872-55.008l-15.872-1.984l-7.128,56.992H67.344     l19.888-63.624c4.44-14.208,12.488-26.68,23.4-36.552c36.384,28.4,55.312,61.384,57.576,100.176H137.528z M240.464,480.464     h-56.248c-0.296-5.424-0.912-10.752-1.8-16h58.048V480.464z M240.464,448.464h-61.728c-1.608-5.44-3.536-10.776-5.824-16h67.552     V448.464z M240.464,416.464h-75.8c-12.632-21.104-31.264-40.288-55.888-57.392c9.808-9.184,32.568-26.4,72.336-37.336     c3.624,2.744,7.4,5.28,11.352,7.576v15.152v4.28l48,32V416.464z M208.464,340.184v-3.232c12.44,4.784,25.896,7.512,40,7.512     c14.104,0,27.56-2.728,40-7.512v3.232l-40,26.664L208.464,340.184z M318.192,448.464h-21.728v16h18.048     c-0.88,5.248-1.504,10.576-1.792,16h-56.256v-16h24v-16h-24v-16h67.552C321.728,437.688,319.8,443.024,318.192,448.464z      M375.528,480.464l-7.128-56.992l-15.872,1.984l6.872,55.008h-30.68c2.272-38.792,21.192-71.776,57.576-100.176     c10.912,9.872,18.96,22.344,23.4,36.552l19.888,63.624H375.528z M432.592,436.448c7.224-5.16,25.032-17.384,41.304-24.768     c2.624,10.248,4.76,20.944,6.048,32.096l-38.976,19.488L432.592,436.448z"/>
		</g>
	</g>
</g>
<g>
</g>
<g>
</g>
<g>
</g>
<g>
</g>
<g>
</g>
<g>
</g>
<g>
</g>
<g>
</g>
<g>
</g>
<g>
</g>
<g>
</g>
<g>
</g>
<g>
</g>
<g>
</g>
<g>
</g>
</svg>
