<?xml version="1.0" encoding="iso-8859-1"?>
<!-- Generator: Adobe Illustrator 19.0.0, SVG Export Plug-In . SVG Version: 6.00 Build 0)  -->
<svg xmlns="http://www.w3.org/2000/svg" xmlns:xlink="http://www.w3.org/1999/xlink" version="1.1" id="Capa_1" x="0px" y="0px" viewBox="0 0 496.112 496.112" style="enable-background:new 0 0 496.112 496.112;" xml:space="preserve">
<g>
	<g>
		<g>
			<path d="M439.96,201.568l43.928-35.488l-4.48-6.152c-1.392-1.904-35.048-46.368-124.8-16.832     c-9.872,3.248-19.296,7.376-28.176,12.336c1.952-10.168,2.936-20.544,2.936-31.048c0-95.456-52.104-114.152-54.32-114.896     L267.68,7l-19.624,53.064L228.424,7.008l-7.368,2.488c-2.216,0.752-54.32,19.448-54.32,114.896     c0,10.504,0.984,20.88,2.936,31.048c-8.88-4.96-18.304-9.08-28.176-12.336c-89.736-29.536-123.408,14.928-124.8,16.832     l-4.48,6.152l43.928,35.488L0,204.112l0.056,7.704c0.016,2.368,1.464,58.288,91.128,87.816     c9.912,3.264,19.984,5.536,30.096,6.824c-7.464,7.072-14.304,14.92-20.448,23.496c-55.36,77.2-24.096,123.288-22.744,125.208     l4.496,6.384l46.768-31.304l-14.92,54.704l7.288,2.336c0.68,0.216,6,1.832,14.632,1.832c19.92,0,57.448-8.56,96.12-62.496     c6.08-8.472,11.288-17.384,15.584-26.656c4.296,9.272,9.504,18.184,15.584,26.656C319.056,503.904,372.136,488,374.392,487.28     l7.288-2.336l-14.92-54.704l46.768,31.304l4.496-6.384c1.352-1.92,32.616-48.008-22.744-125.208     c-6.144-8.568-12.984-16.424-20.448-23.496c10.112-1.28,20.176-3.552,30.096-6.824c89.664-29.528,91.112-85.448,91.128-87.816     l0.056-7.704L439.96,201.568z M399.928,284.424c-15.032,4.944-30.208,7.568-45.736,7.232l-25.216-0.248l20.464,14.744     c12.496,8.992,23.536,20.136,32.84,33.12c36.832,51.368,31.248,85.56,26.088,99.552l-68.312-45.72l21.816,80.008     c-14.56,0.672-48.424-4.504-85.224-55.832c-9.296-12.96-16.344-27.064-20.944-41.896l-7.648-24.656l-7.64,24.648     c-4.6,14.832-11.648,28.936-20.944,41.896c-36.816,51.344-70.384,56.496-85.232,55.84l21.816-80.008l-68.28,45.704     c-5.112-14.024-10.656-48.344,26.056-99.536c9.304-12.984,20.352-24.128,32.84-33.12l20.464-14.744l-25.216,0.248     c-15.312,0.296-30.696-2.28-45.736-7.232c-59.72-19.664-74.928-50.744-78.808-65.08l81.664-3.688L35.096,164     c11.448-9.296,41.72-25.336,101.4-5.696c15.088,4.968,28.984,12.192,41.304,21.48l20.512,15.464l-8.112-24.376     c-4.952-14.88-7.472-30.512-7.472-46.472c0-63.4,24.248-87.744,36.536-96.008l28.792,77.776l28.784-77.776     c12.32,8.296,36.536,32.648,36.536,96c0,15.952-2.512,31.592-7.472,46.472l-8.112,24.376l20.512-15.464     c12.32-9.288,26.216-16.504,41.304-21.48c59.712-19.656,90-3.576,101.4,5.696l-63.944,51.656l81.656,3.688     C474.848,233.72,459.608,264.776,399.928,284.424z"/>
			<path d="M365.472,209.072c-5.72-2.904-12.192-3.416-18.32-1.44c-6.096,1.984-11.048,6.216-13.96,11.936     c-1.648,3.232-2.432,6.728-2.528,10.256l-40.096,13.024c-6.84-13.04-19.496-22.52-34.504-25.056v-42.2     c9.288-3.312,16-12.112,16-22.528c0-13.232-10.768-24-24-24s-24,10.768-24,24c0,10.416,6.712,19.216,16,22.528v42.2     c-15.008,2.536-27.664,12.016-34.504,25.056l-40.096-13.024c-0.096-3.528-0.88-7.016-2.528-10.256     c-2.912-5.712-7.864-9.952-13.96-11.936h-0.008c-6.088-1.984-12.592-1.464-18.312,1.44c-5.712,2.912-9.952,7.872-11.928,13.968     c-1.984,6.096-1.472,12.6,1.44,18.312c2.912,5.712,7.872,9.952,13.976,11.928c2.44,0.792,4.944,1.184,7.44,1.184     c3.736,0,7.448-0.88,10.864-2.632c3.24-1.648,5.928-4.008,8.08-6.808l40.12,13.032c-0.36,2.304-0.592,4.632-0.592,7.016     c0,13.056,5.256,24.896,13.736,33.552L189,332.744c-3.392-1-6.96-1.328-10.528-0.768c-6.336,1-11.888,4.408-15.656,9.592     c-3.776,5.184-5.296,11.528-4.288,17.856c1,6.336,4.408,11.896,9.592,15.664c4.152,3.016,9.032,4.592,14.056,4.592     c1.264,0,2.536-0.104,3.808-0.304c6.336-1,11.896-4.408,15.656-9.592c3.776-5.184,5.296-11.528,4.288-17.856     c-0.568-3.592-1.984-6.88-3.976-9.792l24.8-34.128c6.424,3.216,13.64,5.064,21.304,5.064c7.544,0,14.768-1.856,21.288-5.088     l24.824,34.16c-2,2.904-3.416,6.2-3.976,9.792c-1.008,6.328,0.512,12.672,4.28,17.848c3.768,5.192,9.328,8.6,15.664,9.6     c1.264,0.2,2.536,0.304,3.808,0.304c5.024,0,9.904-1.576,14.056-4.592c5.184-3.768,8.592-9.328,9.592-15.664     c1.008-6.328-0.512-12.672-4.28-17.848c-3.768-5.192-9.328-8.6-15.664-9.6c-3.568-0.568-7.136-0.24-10.528,0.768l-24.776-34.096     c3.08-3.144,5.76-6.712,7.928-10.696l-14.064-7.64c-5.624,10.328-16.4,16.752-28.152,16.752c-17.648,0-32-14.352-32-32     s14.352-32,32-32s32,14.352,32,32c0,1.288-0.08,2.56-0.224,3.816l15.888,1.904c0.224-1.88,0.336-3.792,0.336-5.72     c0-2.384-0.232-4.712-0.568-7l40.12-13.032c2.144,2.8,4.84,5.16,8.072,6.808c3.424,1.744,7.136,2.632,10.864,2.632     c2.496,0,5-0.392,7.44-1.184c6.104-1.984,11.064-6.216,13.976-11.928c2.904-5.712,3.424-12.216,1.44-18.312     C375.424,216.952,371.184,211.992,365.472,209.072z M149.144,232.936c-0.656,2.032-2.072,3.68-3.968,4.648     c-1.888,0.968-4.048,1.152-6.112,0.48c-2.032-0.664-3.688-2.072-4.656-3.976s-1.144-4.064-0.48-6.104     c0.656-2.032,2.072-3.68,3.976-4.656c1.144-0.584,2.376-0.872,3.624-0.872c0.832,0,1.664,0.128,2.48,0.392     c2.032,0.664,3.688,2.072,4.656,3.976C149.632,228.736,149.808,230.904,149.144,232.936z M188.688,360.392     c-1.248,1.728-3.104,2.856-5.208,3.192c-2.144,0.32-4.232-0.176-5.952-1.432c-3.568-2.592-4.368-7.608-1.776-11.176l0.008-0.008     c1.248-1.728,3.104-2.856,5.208-3.192c0.424-0.064,0.848-0.096,1.264-0.096c1.68,0,3.304,0.52,4.688,1.52     c1.728,1.256,2.864,3.12,3.2,5.224C190.456,356.544,189.944,358.656,188.688,360.392z M305.984,354.432     c0.336-2.112,1.48-3.968,3.2-5.224c1.384-1,3.016-1.528,4.696-1.528c0.416,0,0.84,0.032,1.264,0.096     c2.112,0.336,3.96,1.472,5.216,3.2c2.592,3.568,1.8,8.584-1.776,11.176c-1.728,1.248-3.824,1.752-5.952,1.432     c-2.112-0.336-3.96-1.472-5.208-3.192l-0.008-0.008C306.168,358.656,305.656,356.544,305.984,354.432z M248.056,161.072     c-4.416,0-8-3.592-8-8s3.584-8,8-8s8,3.592,8,8S252.472,161.072,248.056,161.072z M361.704,234.088     c-0.968,1.904-2.624,3.32-4.656,3.976c-2.064,0.664-4.216,0.488-6.112-0.48c-1.896-0.968-3.312-2.616-3.968-4.656     c-0.664-2.032-0.496-4.2,0.48-6.104c0.968-1.904,2.624-3.32,4.648-3.976c0.824-0.264,1.648-0.392,2.488-0.392     c1.248,0,2.488,0.296,3.624,0.872c1.904,0.968,3.32,2.624,3.976,4.656C362.848,230.024,362.672,232.192,361.704,234.088z"/>
		</g>
	</g>
</g>
<g>
</g>
<g>
</g>
<g>
</g>
<g>
</g>
<g>
</g>
<g>
</g>
<g>
</g>
<g>
</g>
<g>
</g>
<g>
</g>
<g>
</g>
<g>
</g>
<g>
</g>
<g>
</g>
<g>
</g>
</svg>
