<?xml version="1.0" encoding="iso-8859-1"?>
<!-- Generator: Adobe Illustrator 19.0.0, SVG Export Plug-In . SVG Version: 6.00 Build 0)  -->
<svg xmlns="http://www.w3.org/2000/svg" xmlns:xlink="http://www.w3.org/1999/xlink" version="1.1" id="Capa_1" x="0px" y="0px" viewBox="0 0 496 496" style="enable-background:new 0 0 496 496;" xml:space="preserve">
<g>
	<g>
		<g>
			<path d="M295.832,44.672C294.112,19.76,273.344,0,248,0s-46.112,19.76-47.832,44.672C86.232,67.032,0,167.616,0,288h16     c0-5.384,0.248-10.704,0.616-16h95.776c-0.2,5.256-0.392,10.52-0.392,16h16c0-5.48,0.184-10.76,0.384-16H216v192     c0,17.648,14.352,32,32,32s32-14.352,32-32V272h87.616c0.2,5.24,0.384,10.52,0.384,16h16c0-5.48-0.192-10.744-0.392-16h95.776     c0.368,5.296,0.616,10.616,0.616,16h16C496,167.616,409.768,67.032,295.832,44.672z M248,16c15.616,0,28.6,11.248,31.4,26.056     C269.104,40.752,258.64,40,248,40s-21.104,0.752-31.4,2.056C219.4,27.248,232.384,16,248,16z M248,56     c19.232,0,37.904,2.392,55.784,6.824C294.632,70.656,277.576,80,248,80s-46.632-9.344-55.784-17.176     C210.096,58.392,228.768,56,248,56z M113.344,256H18.256C30.48,167.84,92.4,95.4,174.752,67.92     c3.072,3.56,7.52,7.8,13.592,11.936C155.848,111.808,120.336,166.68,113.344,256z M216.008,256h-86.624     c7.128-87.104,42.592-138.944,73.76-168.128c9.672,4.024,21.864,7.024,36.864,7.84V256H216.008z M248,480     c-8.824,0-16-7.176-16-16h32C264,472.824,256.824,480,248,480z M264,448h-32v-16h32V448z M264,416h-32v-16h32V416z M264,384h-32     V272h8v16h16v-16h8V384z M280,256h-24V95.712c15-0.824,27.192-3.816,36.864-7.84c31.168,29.192,66.624,81.04,73.752,168.128H280z      M382.656,256c-6.992-89.312-42.504-144.192-74.992-176.144c6.072-4.136,10.512-8.376,13.584-11.936     C403.6,95.4,465.52,167.84,477.744,256H382.656z"/>
			<rect x="72" y="176" width="16" height="16"/>
			<rect x="408" y="176" width="16" height="16"/>
			<rect x="184" y="208" width="16" height="16"/>
			<rect x="304" y="208" width="16" height="16"/>
		</g>
	</g>
</g>
<g>
</g>
<g>
</g>
<g>
</g>
<g>
</g>
<g>
</g>
<g>
</g>
<g>
</g>
<g>
</g>
<g>
</g>
<g>
</g>
<g>
</g>
<g>
</g>
<g>
</g>
<g>
</g>
<g>
</g>
</svg>
