<?xml version="1.0" encoding="iso-8859-1"?>
<!-- Generator: Adobe Illustrator 19.0.0, SVG Export Plug-In . SVG Version: 6.00 Build 0)  -->
<svg xmlns="http://www.w3.org/2000/svg" xmlns:xlink="http://www.w3.org/1999/xlink" version="1.1" id="Capa_1" x="0px" y="0px" viewBox="0 0 496 496" style="enable-background:new 0 0 496 496;" xml:space="preserve">
<g>
	<g>
		<g>
			<path d="M184,120c13.232,0,24-10.768,24-24s-10.768-24-24-24s-24,10.768-24,24S170.768,120,184,120z M184,88c4.416,0,8,3.592,8,8     s-3.584,8-8,8s-8-3.592-8-8S179.584,88,184,88z"/>
			<path d="M312,120c13.232,0,24-10.768,24-24s-10.768-24-24-24s-24,10.768-24,24S298.768,120,312,120z M312,88c4.416,0,8,3.592,8,8     s-3.584,8-8,8c-4.416,0-8-3.592-8-8S307.584,88,312,88z"/>
			<path d="M216,176c-19.32,0-33.216-20.256-33.344-20.44l-13.312,8.872C170.096,165.56,188.04,192,216,192     c15.952,0,25.968-5.32,32-12.016C254.032,186.68,264.048,192,280,192c27.96,0,45.904-26.44,46.656-27.56l-13.296-8.896     C313.216,155.744,299.32,176,280,176c-14.416,0-20.168-5.56-22.464-10.24C268.568,161.12,280,149.576,280,136     c0-15.928-10.768-24-32-24s-32,8.072-32,24c0,13.568,11.424,25.104,22.448,29.752C236.144,170.344,230.408,176,216,176z M232,136     c0-3.752,0-8,16-8s16,4.248,16,8c0,8.624-12.192,16-16,16C244.192,152,232,144.624,232,136z"/>
			<path d="M448,136h-32c-2.8,0-5.52,0.288-8.184,0.752c-0.4-15.168-3.592-29.712-9.104-43.328     c8.688-14.96,33.936-61.88,22.048-82.888C418.032,5.728,412.296,0,400.44,0c-33.504,0-56.56,15.24-65.696,22.528     C309.72,8.336,279.976,0,248,0s-61.72,8.336-86.744,22.528C152.128,15.24,129.072,0,95.56,0C83.704,0,77.968,5.728,75.248,10.536     c-11.888,21.008,13.36,67.92,22.048,82.888C91.384,108.024,88,123.656,88,140c0,12.784,2.112,25.736,6.256,38.48l0.464,1.416     c-16.432,17.928-29.432,38.224-38.728,60.456C54.44,240.208,52.904,240,51.336,240h-3.432C21.496,240,0,261.496,0,287.904     c0,17.84,9.808,34.08,25.592,42.392l15.24,8.024c5.032,57.504,34.12,110.736,80.032,146.248     C130.4,491.944,142.48,496,154.872,496H236h104h1.152v-0.056c37.36-0.512,68.896-25.496,79.24-59.64     c21.648-32,33.928-69.296,35.456-108.144l0.112-5.808c14.864-25.48,15.968-84.936,16.04-96.84c14.32-8.312,24-23.784,24-41.512     C496,157.528,474.472,136,448,136z M400.44,16c5.024,0,6.016,1.76,6.392,2.416c5.024,8.864-5.536,36.024-16.752,57.48     c-5.544-9.368-12.216-18.136-19.936-26.128C375.68,45.416,384.352,40,392,40V24c-14.192,0-27.352,9.392-33.752,14.8     c-2.912-2.424-5.848-4.832-8.96-7.064C358.76,25.312,376.552,16,400.44,16z M248,16c79.4,0,144,55.624,144,124     c0,0.848-0.12,1.72-0.144,2.584C377.616,150.912,368,166.336,368,184c0,0.248,0.032,0.48,0.04,0.728     C346.912,195.824,309.664,208,248,208c-96.184,0-132.904-30.376-139.08-36.224C105.656,161.2,104,150.52,104,140     C104,71.624,168.6,16,248,16z M256,294.528c9.288-3.312,16-12.112,16-22.528c0-13.232-10.768-24-24-24s-24,10.768-24,24     c0,10.416,6.712,19.216,16,22.528v16.664c-18.232-3.72-32-19.872-32-39.192c0-22.056,17.944-40,40-40c22.056,0,40,17.944,40,40     c0,19.312-13.768,35.472-32,39.192V294.528z M248,280c-4.416,0-8-3.592-8-8c0-4.408,3.584-8,8-8s8,3.592,8,8     C256,276.408,252.416,280,248,280z M275.288,223.144c45.504-2.848,76.176-12.544,95.896-22.096     c2.608,6.84,6.728,12.92,11.96,17.848c-19.688,9.88-48.2,20.488-86.312,25.768C291.768,235.664,284.304,228.2,275.288,223.144z      M89.168,18.416C89.544,17.76,90.536,16,95.56,16c23.88,0,41.68,9.312,51.144,15.736c-3.112,2.232-6.048,4.64-8.96,7.064     C131.352,33.392,118.192,24,104,24v16c7.648,0,16.32,5.416,21.856,9.768c-7.72,7.992-14.392,16.76-19.936,26.128     C94.704,54.456,84.144,27.296,89.168,18.416z M106.8,190.568c15.784,11.12,50.208,28.584,113.912,32.584     c-9.016,5.048-16.488,12.52-21.544,21.528c-55.88-7.76-91.504-27.456-106.208-37.176     C97.248,201.64,101.832,195.976,106.8,190.568z M33.048,316.144C22.528,310.608,16,299.792,16,287.904     C16,270.312,30.312,256,47.904,256h3.432c6.624,0,12.992,2.016,18.4,5.84L182,341.088c6.264,4.416,10,11.632,10,19.296     C192,373.408,181.408,384,167.816,384c-3.824,0-7.624-0.944-11-2.712L33.048,316.144z M154.872,480     c-8.872,0-17.48-2.872-24.216-8.088c-39.608-30.632-65.624-75.528-72.672-124.56l91.376,48.096     c1.32,0.696,2.688,1.296,4.088,1.84C152.592,402.128,152,407.032,152,412c0,27.968,13.792,52.728,34.88,68H154.872z M340,480H236     c-37.496,0-68-30.504-68-68c0-4.08,0.488-8.104,1.208-12.08c6.384-0.136,12.32-1.864,17.624-4.688     C185.024,400.496,184,406.128,184,412c0,28.672,23.328,52,52,52h104c28.672,0,52-23.328,52-52s-23.328-52-52-52H236     c-10.712,0-20.672,3.256-28.952,8.832c0.592-2.728,0.952-5.544,0.952-8.448c0-3.296-0.424-6.536-1.216-9.664     c9.088-4.328,19.08-6.72,29.216-6.72h104c37.496,0,68,30.504,68,68C408,449.496,377.496,480,340,480z M200,412     c0-12.448,6.36-23.44,16-29.904v59.808C206.36,435.44,200,424.448,200,412z M264,392v-16h16v72h-16v-40h-16v40h-12     c-1.368,0-2.672-0.256-4-0.408V376.4c1.328-0.144,2.632-0.4,4-0.4h12v16H264z M296,448v-72h16v72H296z M360,416v-33.912     c9.64,6.464,16,17.456,16,29.904s-6.36,23.44-16,29.904V432h-16v15.6c-1.328,0.144-2.632,0.4-4,0.4h-12v-72h12     c1.368,0,2.672,0.256,4,0.408V416H360z M441.344,315.56l-1.296,1.944l-0.192,10.176c-0.976,24.808-6.84,48.96-16.96,71.328     C416.616,358.856,381.888,328,340,328h-92h-12c-12.552,0-24.944,2.968-36.208,8.352c-2.408-3.152-5.24-6-8.56-8.336     L78.968,248.768c-2.296-1.624-4.736-2.968-7.24-4.152c3.552-8.232,7.608-16.184,12.256-23.808     c15.824,10.568,52.184,30.6,109.352,39.152C192.48,263.848,192,267.864,192,272c0,30.88,25.128,56,56,56s56-25.12,56-56     c0-4.144-0.488-8.176-1.344-12.064c38.768-5.8,68.08-16.824,88.408-27.112c-1.712,10.208-6.616,27.408-20.72,41.52l11.312,11.312     c19.216-19.208,24.4-42.8,25.808-54.464C410.24,231.696,413.08,232,416,232h32c2.696,0,5.32-0.28,7.896-0.704     C455.32,254.48,452.08,299.448,441.344,315.56z M456,214.864V192h-16v24h-16v-24h-16v22.864c-13.768-3.576-24-16-24-30.864     c0-17.648,14.352-32,32-32h32c17.648,0,32,14.352,32,32C480,198.864,469.768,211.288,456,214.864z"/>
		</g>
	</g>
</g>
<g>
</g>
<g>
</g>
<g>
</g>
<g>
</g>
<g>
</g>
<g>
</g>
<g>
</g>
<g>
</g>
<g>
</g>
<g>
</g>
<g>
</g>
<g>
</g>
<g>
</g>
<g>
</g>
<g>
</g>
</svg>
