<svg xmlns="http://www.w3.org/2000/svg" viewBox="0 0 4454.22 768.23"><title>permissionless-logo_1</title><path d="M341.27,342.23a57.27,57.27,0,0,1,81.12,0c23.18,23.18,23.18,60.85,1.45,82.57a59.43,59.43,0,0,1-84,0C316.65,401.63,318.08,365.41,341.27,342.23Z" style="fill:#18d5aa"/><path d="M3.26,152.81c4.35-4.35,13.06-4.34,17.4,0,5.79,5.79,4.35,13,0,17.39s-11.59,5.79-17.38,0C-1.07,165.86-1.08,157.16,3.26,152.81Z" style="fill:#92ead3"/><path d="M73,220.9a20.52,20.52,0,0,1,29,0c8.7,8.69,10.13,21.72,1.44,30.41a22.73,22.73,0,0,1-31.86,0C64.28,244.07,64.28,229.59,73,220.9Z" style="fill:#92ead3"/><path d="M139.07,287.53c11.59-11.59,31.87-11.57,43.45,0,13,13.05,11.61,31.88,0,43.47s-30.42,13-43.46,0C127.49,319.41,127.48,299.13,139.07,287.53Z" style="fill:#92ead3"/><path d="M206.09,355.55c15.93-15.94,39.1-15.95,55,0s17.38,40.56,1.44,56.5a41.09,41.09,0,0,1-57.94,0C188.69,396.1,190.15,371.48,206.09,355.55Z" style="fill:#18d5aa"/><path d="M3.26,300.57c4.35-4.35,13-4.35,17.4,0,5.79,5.79,4.35,13,0,17.39s-11.59,5.79-17.38,0C-1.08,313.61-1.08,304.91,3.26,300.57Z" style="fill:#92ead3"/><path d="M73,368.66c8.69-8.69,20.27-8.69,29,0s10.14,21.74,1.45,30.42a22.73,22.73,0,0,1-31.87,0C62.84,390.39,64.29,377.36,73,368.66Z" style="fill:#92ead3"/><path d="M139.62,435.3c11.6-11.59,31.87-11.59,43.46,0s11.59,31.88,0,43.47-31.88,11.58-43.47,0S128,446.89,139.62,435.3Z" style="fill:#92ead3"/><path d="M3.26,448.34c4.36-4.36,13.05-4.36,17.4,0,5.8,5.8,4.34,13,0,17.4s-11.59,5.8-17.39,0C-1.09,461.38-1.09,452.69,3.26,448.34Z" style="fill:#92ead3"/><path d="M72.29,516.43C81,507.72,94,506.28,102.71,515a22.72,22.72,0,0,1,0,31.88C94,555.54,81,554.09,72.29,545.39s-8.69-20.27,0-29Z" style="fill:#92ead3"/><path d="M3.83,596.11c4.35-4.36,13.05-4.36,17.39,0s4.35,13,0,17.4-13,4.35-17.38,0S-.52,600.45,3.83,596.11Z" style="fill:#92ead3"/><path d="M70.1,696.3a20.52,20.52,0,0,1,0-29c8.69-8.7,21.72-10.13,30.42-1.44a22.73,22.73,0,0,1,0,31.86C93.28,705,78.79,705,70.1,696.3Z" style="fill:#18d5aa"/><path d="M139.07,627.89c-11.59-11.59-11.58-31.87,0-43.46,13-13,31.86-11.59,43.45,0s13,30.42,0,43.45C171,639.48,150.66,639.49,139.07,627.89Z" style="fill:#18d5aa"/><path d="M204.82,561.57a38.89,38.89,0,0,1,0-55c15.94-15.94,40.56-17.38,56.5-1.44a41.08,41.08,0,0,1,0,57.94C246.84,577.51,220.76,577.51,204.82,561.57Z" style="fill:#18d5aa"/><path d="M274.34,494.94c-18.83-18.83-18.83-50.71,0-69.53s50.71-18.83,69.54,0,18.83,50.71,0,69.54S293.18,513.77,274.34,494.94Z" style="fill:#18d5aa"/><path d="M149.77,765c-4.35-4.34-4.33-13.05,0-17.4,5.79-5.79,13-4.34,17.39,0s5.79,11.6,0,17.39C162.82,769.3,154.12,769.31,149.77,765Z" style="fill:#92ead3"/><path d="M217.86,696.3a20.53,20.53,0,0,1,0-29c8.69-8.69,21.72-10.13,30.41-1.44a22.73,22.73,0,0,1,0,31.86C241,705,226.55,705,217.86,696.3Z" style="fill:#92ead3"/><path d="M284.5,627.89c-11.59-11.59-11.58-31.87,0-43.45,13-13.05,31.87-11.61,43.46,0s13,30.42,0,43.47C316.37,639.47,296.09,639.48,284.5,627.89Z" style="fill:#92ead3"/><path d="M352.59,561.57c-15.93-15.93-15.95-39.1,0-55s40.56-17.38,56.5-1.44a41.09,41.09,0,0,1,0,57.94C393.14,579,368.52,577.5,352.59,561.57Z" style="fill:#18d5aa"/><path d="M297.53,765c-4.35-4.34-4.35-13,0-17.4,5.79-5.79,13-4.34,17.39,0s5.79,11.6,0,17.39C310.57,769.31,301.88,769.31,297.53,765Z" style="fill:#92ead3"/><path d="M365.63,696.3c-8.7-8.69-8.7-20.27,0-29s21.73-10.14,30.42-1.45a22.74,22.74,0,0,1,0,31.87C387.35,706.44,374.32,705,365.63,696.3Z" style="fill:#92ead3"/><path d="M432.26,627.33c-11.59-11.59-11.59-31.86,0-43.45s31.88-11.6,43.47,0,11.58,31.88,0,43.47S443.85,638.93,432.26,627.33Z" style="fill:#92ead3"/><path d="M445.3,765c-4.36-4.36-4.36-13.06,0-17.4,5.8-5.8,13-4.35,17.4,0s5.8,11.58,0,17.39C458.34,769.31,449.65,769.31,445.3,765Z" style="fill:#92ead3"/><path d="M513.39,696.3c-8.7-8.7-10.15-21.72-1.45-30.42a22.73,22.73,0,0,1,31.87,0c8.69,8.7,7.24,21.73-1.45,30.42s-20.28,8.7-29,0Z" style="fill:#92ead3"/><path d="M593.07,764.4c-4.36-4.36-4.36-13,0-17.4s13-4.34,17.4,0,4.35,13,0,17.39S597.41,768.75,593.07,764.4Z" style="fill:#92ead3"/><path d="M692.33,694.53a20.55,20.55,0,0,1-29,0c-8.69-8.69-10.13-21.72-1.43-30.41a22.71,22.71,0,0,1,31.86,0C701,671.35,701,685.83,692.33,694.53Z" style="fill:#18d5aa"/><path d="M626.37,627.89c-11.59,11.59-31.87,11.58-43.46,0-13-13-11.59-31.86,0-43.45s30.42-13,43.45,0C638,596,638,616.3,626.37,627.89Z" style="fill:#18d5aa"/><path d="M557,559.8a38.89,38.89,0,0,1-55,0c-15.93-15.93-17.38-40.56-1.44-56.5a41.1,41.1,0,0,1,57.94,0C573,517.78,573,543.86,557,559.8Z" style="fill:#18d5aa"/><path d="M490.38,493.17c-18.83,18.83-50.7,18.83-69.53,0s-18.83-50.71,0-69.54,50.7-18.83,69.54,0S509.22,474.33,490.38,493.17Z" style="fill:#18d5aa"/><path d="M760.41,614.85c-4.35,4.35-13.06,4.34-17.4,0-5.79-5.79-4.35-13,0-17.39s11.6-5.79,17.38,0C764.74,601.8,764.75,610.51,760.41,614.85Z" style="fill:#92ead3"/><path d="M692.33,546.76a20.54,20.54,0,0,1-29,0c-8.69-8.7-10.13-21.72-1.43-30.42a22.71,22.71,0,0,1,31.85,0C701,523.59,701,538.07,692.33,546.76Z" style="fill:#92ead3"/><path d="M626.37,480.13c-11.59,11.59-31.87,11.58-43.45,0-13-13.05-11.61-31.88,0-43.47s30.42-13,43.47,0C638,448.25,638,468.54,626.37,480.13Z" style="fill:#92ead3"/><path d="M557,412c-15.94,15.94-39.11,16-55,0s-17.38-40.56-1.44-56.5a41.1,41.1,0,0,1,57.94,0C574.41,371.48,573,396.1,557,412Z" style="fill:#18d5aa"/><path d="M760.41,467.09c-4.35,4.35-13,4.35-17.4,0-5.79-5.79-4.35-13,0-17.39s11.6-5.78,17.38,0C764.75,454.05,764.75,462.75,760.41,467.09Z" style="fill:#92ead3"/><path d="M692.32,399c-8.7,8.69-20.27,8.69-29,0s-10.14-21.74-1.45-30.42a22.73,22.73,0,0,1,31.87,0C702.46,377.28,701,390.3,692.32,399Z" style="fill:#92ead3"/><path d="M625.81,332.36C614.22,344,594,344,582.36,332.36s-11.6-31.88,0-43.46,31.88-11.59,43.47,0S637.41,320.77,625.81,332.36Z" style="fill:#92ead3"/><path d="M760.41,319.32c-4.36,4.36-13,4.36-17.4,0-5.8-5.8-4.34-13,0-17.39s11.59-5.81,17.39,0C764.76,306.28,764.76,315,760.41,319.32Z" style="fill:#92ead3"/><path d="M693,251.23c-8.71,8.71-21.73,10.15-30.42,1.46a22.72,22.72,0,0,1,0-31.88c8.69-8.69,21.72-7.24,30.42,1.46s8.69,20.27,0,29Z" style="fill:#92ead3"/><path d="M759.85,171.56c-4.36,4.35-13.06,4.35-17.4,0s-4.35-13,0-17.4,13-4.35,17.39,0S764.19,167.21,759.85,171.56Z" style="fill:#92ead3"/><path d="M693,71.36a20.55,20.55,0,0,1,0,29c-8.69,8.69-21.72,10.13-30.41,1.43a22.71,22.71,0,0,1,0-31.86C669.83,62.67,684.31,62.67,693,71.36Z" style="fill:#18d5aa"/><path d="M626.37,137.44c11.59,11.59,11.58,31.88,0,43.47-13,13-31.86,11.59-43.45,0s-13-30.42,0-43.46C594.49,125.86,614.78,125.85,626.37,137.44Z" style="fill:#18d5aa"/><path d="M558.28,206.09a38.88,38.88,0,0,1,0,55c-15.93,15.94-40.56,17.38-56.5,1.45a41.11,41.11,0,0,1,0-57.95C516.26,190.15,542.34,190.15,558.28,206.09Z" style="fill:#18d5aa"/><path d="M490.38,272.72c18.83,18.83,18.83,50.71,0,69.53s-50.71,18.84-69.54,0-18.83-50.71,0-69.54S471.55,253.89,490.38,272.72Z" style="fill:#18d5aa"/><path d="M613.33,3.27c4.35,4.34,4.34,13.05,0,17.39-5.79,5.79-13,4.35-17.39,0s-5.79-11.59,0-17.38C600.28-1.07,609-1.08,613.33,3.27Z" style="fill:#92ead3"/><path d="M545.24,71.36a20.52,20.52,0,0,1,0,29c-8.7,8.69-21.72,10.13-30.42,1.44a22.72,22.72,0,0,1,0-31.86C522.07,62.67,536.55,62.66,545.24,71.36Z" style="fill:#92ead3"/><path d="M478.61,137.44c11.59,11.6,11.58,31.88,0,43.46-13.05,13-31.88,11.6-43.47,0s-13-30.42,0-43.47C446.73,125.87,467,125.85,478.61,137.44Z" style="fill:#92ead3"/><path d="M410.51,206.09c15.94,15.94,15.95,39.11,0,55S370,278.51,354,262.58a41.11,41.11,0,0,1,0-57.95C370,188.7,394.58,190.16,410.51,206.09Z" style="fill:#18d5aa"/><path d="M343.87,272.72c18.83,18.83,18.83,50.71,0,69.53s-50.71,18.84-69.54,0-18.83-50.71,0-69.54,50.7-18.83,69.52,0Z" style="fill:#18d5aa"/><path d="M465.57,3.27c4.35,4.34,4.35,13,0,17.39-5.79,5.79-13,4.35-17.39,0s-5.78-11.59,0-17.38C452.53-1.08,461.23-1.08,465.57,3.27Z" style="fill:#92ead3"/><path d="M397.48,71.36c8.69,8.7,8.69,20.27,0,29s-21.74,10.14-30.42,1.45a22.73,22.73,0,0,1,0-31.87C375.76,61.22,388.78,62.67,397.48,71.36Z" style="fill:#92ead3"/><path d="M330.84,138c11.59,11.59,11.59,31.86,0,43.45s-31.88,11.6-43.46,0-11.59-31.89,0-43.48S319.25,126.41,330.84,138Z" style="fill:#92ead3"/><path d="M262.75,206.09c15.93,15.93,15.94,39.1,0,55s-40.57,17.38-56.5,1.45-14.49-40.57,1.45-56.5S246.82,190.16,262.75,206.09Z" style="fill:#18d5aa"/><path d="M317.8,3.27c4.36,4.35,4.36,13.05,0,17.39-5.8,5.81-13,4.35-17.39,0s-5.81-11.58,0-17.38C304.76-1.08,313.45-1.08,317.8,3.27Z" style="fill:#92ead3"/><path d="M249.71,71.36c8.71,8.7,10.15,21.72,1.46,30.42a22.74,22.74,0,0,1-31.88,0c-8.69-8.7-7.24-21.73,1.46-30.42s20.27-8.7,29,0Z" style="fill:#92ead3"/><path d="M183.08,138c11.59,11.59,11.6,31.88,0,43.47s-31.89,11.59-43.48,0-11.58-31.88,0-43.47S171.49,126.41,183.08,138Z" style="fill:#18d5aa"/><path d="M170,3.26c4.35,4.36,4.35,13.05,0,17.4s-13,4.34-17.4,0-4.35-13,0-17.39S165.69-1.09,170,3.26Z" style="fill:#92ead3"/><path d="M101.94,71.36c8.7,8.7,10.15,21.72,1.45,30.42a22.73,22.73,0,0,1-31.87,0c-8.69-8.7-7.24-21.73,1.45-30.42S93.25,62.66,101.94,71.36Z" style="fill:#18d5aa"/><path d="M937.17,251.9a20.18,20.18,0,0,1,5.77-14.53,19.09,19.09,0,0,1,14.31-6h96.55q40.58,0,69.63,28.84t29,69.84q0,40.17-29,69.21t-69.63,29.05H977.33v85.44a20.83,20.83,0,0,1-5.77,14.73,19.61,19.61,0,0,1-28.62,0,20.87,20.87,0,0,1-5.77-14.73Zm40.16,15.8V392.44h76.47q23.07,0,41.22-19t18.16-43.36q0-24.76-18.16-43.57t-41.22-18.8Z" style="fill:#221b43"/><path d="M1239.62,493.69h151.66q8.54,0,13.88,5.34a18.57,18.57,0,0,1,0,26.06q-5.34,5.34-13.88,5.34H1219.55a19.05,19.05,0,0,1-14.31-6,20.14,20.14,0,0,1-5.77-14.53V251a18.91,18.91,0,0,1,5.77-13.88,19.4,19.4,0,0,1,14.31-5.77h171.73q8.54,0,13.88,5.34a18.57,18.57,0,0,1,0,26.06q-5.34,5.34-13.88,5.34H1239.62v89.28h127.31a18.65,18.65,0,0,1,13.45,5.13,17,17,0,0,1,5.34,12.82,18.26,18.26,0,0,1-18.79,18.79H1239.62Z" style="fill:#221b43"/><path d="M1621.23,419.7l61.11,81.14a21.47,21.47,0,0,1,3.7,12.86,21.19,21.19,0,0,1-5.77,14.57A18.42,18.42,0,0,1,1666,534.7q-11.12,0-16.66-8.12l-76.47-104.23h-64.5v91.42a20.83,20.83,0,0,1-5.77,14.73,18.76,18.76,0,0,1-14.31,6.2,19,19,0,0,1-14.1-6.2,20.44,20.44,0,0,1-6-14.73V251.9a19.45,19.45,0,0,1,6.2-14.53,20,20,0,0,1,14.31-6h100q41.43,0,70.06,28.2t28.62,70.48q0,29-18.12,53.78T1621.23,419.7Zm-112.9-152V386h80.31a57.73,57.73,0,0,0,41.22-16.45q17.31-16.44,17.31-40.8,0-24.77-17.52-42.93t-41-18.16Z" style="fill:#221b43"/><path d="M2046.17,252.75V513.34a21.43,21.43,0,0,1-5.77,15.16,19.26,19.26,0,0,1-14.74,6.2,18.1,18.1,0,0,1-14.1-6.2,21.88,21.88,0,0,1-5.55-15.16V282.23l-10.27,14.1-77,93.12q-10.28,12-22.25,12t-22.25-11.78l-76.81-92.77-10.12-14.53v231q0,9.39-5.56,15.37t-14.52,6a18.75,18.75,0,0,1-14.31-6.2,21.38,21.38,0,0,1-5.77-15.16V252.75q0-9.39,6-15.38a19.79,19.79,0,0,1,14.52-6h16.67q10.25,0,19.65,11.54l92.7,112.78,92.7-112.78q9.83-11.53,19.22-11.54h16.66a20.31,20.31,0,0,1,15,6Q2046.17,243.36,2046.17,252.75Z" style="fill:#221b43"/><path d="M2114.51,247.62a20,20,0,0,1,6-14.31,19,19,0,0,1,14.1-6.19,19.47,19.47,0,0,1,14.52,6.19,20,20,0,0,1,6,14.31V514.19a20,20,0,0,1-6,14.31,19.44,19.44,0,0,1-14.52,6.2,19,19,0,0,1-14.1-6.2,20,20,0,0,1-6-14.31Z" style="fill:#221b43"/><path d="M2313.58,498.81q26.48,0,44.64-15t18.15-35.08a36.33,36.33,0,0,0-8.75-24.38q-8.74-10.28-23-16.26t-31.1-11.63L2279.29,385a154.16,154.16,0,0,1-31.71-14.59,65.26,65.26,0,0,1-23.07-24.35q-8.76-15.58-8.76-36.95,0-33.74,27.77-57.88T2311,227.12q41.44,0,68.57,20.08t27.13,37.16a18.71,18.71,0,0,1-4.7,12.39q-4.71,5.56-13.25,5.56-9.39,0-18.79-12-21.79-28.6-57.67-28.62-25.22,0-41.87,13.33t-16.66,29.82q0,19,17,30.88t41,19.59l48.28,15.56a91.21,91.21,0,0,1,41,26.65q16.71,18.84,16.72,47.87,0,39.3-31,64.29t-74.12,25q-43.16,0-72.62-22.86t-29.48-38.66q0-8.54,4.7-13.88a15.7,15.7,0,0,1,12.39-5.34q12.83,0,21.36,12.39Q2273,498.81,2313.58,498.81Z" style="fill:#221b43"/><path d="M2563.48,498.81q26.49,0,44.64-15t18.16-35.08a36.38,36.38,0,0,0-8.75-24.38q-8.75-10.28-23-16.26t-31.1-11.63L2529.19,385a154.16,154.16,0,0,1-31.71-14.59,65.42,65.42,0,0,1-23.07-24.35q-8.76-15.58-8.75-36.95,0-33.74,27.76-57.88t67.5-24.14q41.43,0,68.56,20.08t27.13,37.16a18.71,18.71,0,0,1-4.7,12.39q-4.71,5.56-13.24,5.56-9.4,0-18.8-12-21.78-28.6-57.67-28.62-25.22,0-41.86,13.33t-16.67,29.82q0,19,17,30.88t41.05,19.59L2610,370.9a91.1,91.1,0,0,1,41,26.65q16.73,18.84,16.73,47.87,0,39.3-31,64.29t-74.12,25q-43.15,0-72.63-22.86t-29.47-38.66q0-8.54,4.7-13.88a15.7,15.7,0,0,1,12.39-5.34q12.81,0,21.36,12.39Q2522.89,498.81,2563.48,498.81Z" style="fill:#221b43"/><path d="M2723.25,247.62a20,20,0,0,1,6-14.31,19,19,0,0,1,14.1-6.19,19.47,19.47,0,0,1,14.52,6.19,20,20,0,0,1,6,14.31V514.19a20,20,0,0,1-6,14.31,19.44,19.44,0,0,1-14.52,6.2,19,19,0,0,1-14.1-6.2,20,20,0,0,1-6-14.31Z" style="fill:#221b43"/><path d="M2864,489.63q-44.64-45.06-44.64-108.29T2864,272.62q44.64-45.51,107.87-45.5,62.8,0,107.44,45.5T3124,381.34q0,62.79-44.64,108.08T2971.87,534.7Q2908.64,534.7,2864,489.63Zm28.2-191.81q-32.26,34.83-32.25,83.52t32.25,83.09q32.25,34.38,79.67,34.38,47,0,79.46-34.6t32.47-82.87q0-48.7-32.47-83.52T2971.87,263Q2924.46,263,2892.2,297.82Z" style="fill:#221b43"/><path d="M3380.7,519.74,3228.61,300.17l-9-16.66V513.77a21.18,21.18,0,0,1-5.55,15,18.45,18.45,0,0,1-14.1,6,19.45,19.45,0,0,1-14.53-6.2,20.44,20.44,0,0,1-6-14.73V252.32a20.41,20.41,0,0,1,6.16-14.52,19.65,19.65,0,0,1,14.66-6.41h17.42q11.9,0,19.13,10.89l152.08,219.58,9.27,16.45V247.62a20.55,20.55,0,0,1,5.56-14.52,18.42,18.42,0,0,1,14.1-6,20.42,20.42,0,0,1,20.5,20.5V509.49a20.39,20.39,0,0,1-6.19,14.53,19.84,19.84,0,0,1-14.74,6.41h-17.51Q3388,530.43,3380.7,519.74Z" style="fill:#221b43"/><path d="M3506.71,247.62a20.51,20.51,0,1,1,41,0v246.5H3678a21.27,21.27,0,0,1,14.31,5.34,16.58,16.58,0,0,1,6.2,13,16,16,0,0,1-6,13,22.13,22.13,0,0,1-14.53,4.92h-150.8a20,20,0,0,1-14.31-6,19.44,19.44,0,0,1-6.19-14.53Z" style="fill:#221b43"/><path d="M3781.39,493.69h151.66q8.53,0,13.88,5.34a18.57,18.57,0,0,1,0,26.06q-5.34,5.34-13.88,5.34H3761.31a19.07,19.07,0,0,1-14.31-6,20.18,20.18,0,0,1-5.76-14.53V251a18.94,18.94,0,0,1,5.76-13.88,19.41,19.41,0,0,1,14.31-5.77h171.74q8.53,0,13.88,5.34a18.57,18.57,0,0,1,0,26.06q-5.34,5.34-13.88,5.34H3781.39v89.28H3908.7a18.65,18.65,0,0,1,13.45,5.13,17,17,0,0,1,5.34,12.82,18.26,18.26,0,0,1-18.79,18.79H3781.39Z" style="fill:#221b43"/><path d="M4100.08,498.81q26.47,0,44.64-15t18.15-35.08a36.33,36.33,0,0,0-8.75-24.38q-8.74-10.28-23-16.26T4100,396.49L4065.79,385a154.16,154.16,0,0,1-31.71-14.59A65.26,65.26,0,0,1,4011,346.09q-8.76-15.58-8.76-36.95,0-33.74,27.77-57.88t67.49-24.14q41.44,0,68.57,20.08t27.13,37.16a18.71,18.71,0,0,1-4.7,12.39q-4.71,5.56-13.25,5.56-9.39,0-18.79-12-21.8-28.6-57.67-28.62-25.22,0-41.87,13.33t-16.66,29.82q0,19,17,30.88t41,19.59l48.28,15.56a91.21,91.21,0,0,1,41,26.65q16.71,18.84,16.72,47.87,0,39.3-31,64.29t-74.12,25q-43.16,0-72.62-22.86t-29.48-38.66q0-8.54,4.7-13.88a15.71,15.71,0,0,1,12.39-5.34q12.83,0,21.36,12.39Q4059.5,498.81,4100.08,498.81Z" style="fill:#221b43"/><path d="M4350,498.81q26.49,0,44.64-15t18.16-35.08a36.38,36.38,0,0,0-8.75-24.38q-8.74-10.28-23-16.26t-31.1-11.63L4315.69,385A154.16,154.16,0,0,1,4284,370.44a65.42,65.42,0,0,1-23.07-24.35q-8.76-15.58-8.75-36.95,0-33.74,27.76-57.88t67.5-24.14q41.43,0,68.56,20.08t27.13,37.16a18.71,18.71,0,0,1-4.7,12.39q-4.71,5.56-13.24,5.56-9.41,0-18.8-12-21.78-28.6-57.67-28.62-25.21,0-41.86,13.33t-16.66,29.82q0,19,17,30.88t41,19.59l48.28,15.56a91.1,91.1,0,0,1,41,26.65q16.73,18.84,16.73,47.87,0,39.3-31,64.29t-74.12,25q-43.16,0-72.63-22.86T4247,473.18q0-8.54,4.7-13.88a15.7,15.7,0,0,1,12.39-5.34q12.81,0,21.36,12.39Q4309.39,498.81,4350,498.81Z" style="fill:#221b43"/></svg>