<?xml version="1.0" encoding="iso-8859-1"?>
<!-- Generator: Adobe Illustrator 19.0.0, SVG Export Plug-In . SVG Version: 6.00 Build 0)  -->
<svg xmlns="http://www.w3.org/2000/svg" xmlns:xlink="http://www.w3.org/1999/xlink" version="1.1" id="Capa_1" x="0px" y="0px" viewBox="0 0 496 496" style="enable-background:new 0 0 496 496;" xml:space="preserve">
<g>
	<g>
		<path d="M458.344,330.344l-7.032,7.032C441.88,346.808,429.336,352,416,352c-17.84,0-40.568-21.28-64-59.904V240h40    c17.616,0,34.168-6.856,46.624-19.312l7.032-7.032l-11.312-11.312l-7.032,7.032C417.88,218.808,405.336,224,392,224    c-17.848,0-40.568-21.28-64-59.912V128h24c17.616,0,34.168-6.856,46.624-19.312l7.032-7.032l-11.312-11.312l-7.032,7.032    C377.88,106.808,365.336,112,352,112c-28.504,0-62.872-51.8-85.528-100.28C263.136,4.6,255.888,0,248,0s-15.136,4.6-18.472,11.728    C206.872,60.2,172.504,112,144,112c-13.336,0-25.88-5.192-35.312-14.624l-7.032-7.032l-11.312,11.312l7.032,7.032    C109.832,121.144,126.384,128,144,128h24v36.088C144.568,202.72,121.848,224,104,224c-13.336,0-25.88-5.192-35.312-14.624    l-7.032-7.032l-11.312,11.312l7.032,7.032C69.832,233.144,86.384,240,104,240h40v52.088C120.568,330.72,97.848,352,80,352    c-13.336,0-25.88-5.192-35.312-14.624l-7.032-7.032l-11.312,11.312l7.032,7.032C45.832,361.144,62.384,368,80,368h64v80h-17.472    c0.896-2.512,1.472-5.184,1.472-8c0-13.232-10.768-24-24-24s-24,10.768-24,24c0,7.064,3.128,13.36,8,17.76V496h320v-38.24    c4.872-4.392,8-10.696,8-17.76c0-13.232-10.768-24-24-24s-24,10.768-24,24c0,2.816,0.576,5.488,1.472,8H352v-80h64    c17.616,0,34.168-6.856,46.624-19.312l7.032-7.032L458.344,330.344z M244.024,18.504c1.448-3.088,6.504-3.08,7.952,0    C262.96,42,286.768,87.744,315.52,112H180.48C209.232,87.744,233.04,42,244.024,18.504z M312,128v32h-24v-32H312z M272,128v32h-16    v-32H272z M240,128v32h-16v-32H240z M208,128v32h-24v-32H208z M140.624,224c12.624-10.68,25.584-26.752,38.808-48h137.144    c13.224,21.248,26.184,37.32,38.808,48H352H144H140.624z M336,240v48h-16v-48H336z M272,272v16h-16v-48h16v16h16v-16h16v48h-16    v-16H272z M240,240v48h-16v-48H240z M208,240v48h-16v-48H208z M176,240v48h-16v-48H176z M96,440c0-4.408,3.592-8,8-8s8,3.592,8,8    c0,4.408-3.592,8-8,8S96,444.408,96,440z M392,432c4.408,0,8,3.592,8,8c0,4.408-3.592,8-8,8c-4.408,0-8-3.592-8-8    C384,435.592,387.592,432,392,432z M392,464v16H104v-16h40h208H392z M160,448v-80h32v80H160z M240,416v32h-32v-32H240z M208,400    v-32h32v32H208z M288,416v32h-32v-32H288z M256,400v-32h32v32H256z M304,448v-80h32v80H304z M352,352H144h-27.376    c12.624-10.68,25.584-26.752,38.808-48h185.144c13.224,21.248,26.192,37.32,38.808,48H352z"/>
	</g>
</g>
<g>
</g>
<g>
</g>
<g>
</g>
<g>
</g>
<g>
</g>
<g>
</g>
<g>
</g>
<g>
</g>
<g>
</g>
<g>
</g>
<g>
</g>
<g>
</g>
<g>
</g>
<g>
</g>
<g>
</g>
</svg>
