<?xml version="1.0" encoding="iso-8859-1"?>
<!-- Generator: Adobe Illustrator 19.0.0, SVG Export Plug-In . SVG Version: 6.00 Build 0)  -->
<svg xmlns="http://www.w3.org/2000/svg" xmlns:xlink="http://www.w3.org/1999/xlink" version="1.1" id="Capa_1" x="0px" y="0px" viewBox="0 0 496.431 496.431" style="enable-background:new 0 0 496.431 496.431;" xml:space="preserve">
<g>
	<g>
		<g>
			<path d="M432.215,272.431v-32.64c27.096-3.904,48-27.208,48-55.36c0-30.88-25.12-56-56-56c-15.664,0-29.824,6.48-40,16.88v-32.88     h48v-50.12c5.816-0.976,10.952-1.864,15.256-2.632c14.336-2.552,24.744-14.992,24.744-29.584c0-9.44-4.28-18.144-11.752-23.88     c-7.432-5.712-16.904-7.6-25.96-5.192c-32.808,8.744-100.632,23.408-186.288,23.408S94.735,9.767,61.919,1.023     c-9.056-2.408-18.52-0.52-25.952,5.192c-7.472,5.736-11.752,14.44-11.752,23.88c0,14.592,10.408,27.04,24.744,29.592     c4.304,0.76,9.44,1.656,15.256,2.624v50.12h48v32.88c-10.176-10.4-24.336-16.88-40-16.88c-30.88,0-56,25.12-56,56     c0,28.152,20.904,51.456,48,55.36v32.64h-64v56v8v160h64v-160h48v160h64v-160h144v160h64v-160h48v160h64v-160v-8v-56H432.215z      M48.215,480.431h-32v-144h32V480.431z M112.215,320.431h-96v-32h48h48V320.431z M112.215,272.431h-32v-32h32V272.431z      M112.215,224.431h-0.88c0.296-0.288,0.592-0.584,0.88-0.88V224.431z M72.215,224.431c-22.056,0-40-17.944-40-40     c0-22.056,17.944-40,40-40c22.056,0,40,17.944,40,40C112.215,206.487,94.271,224.431,72.215,224.431z M424.215,144.431     c22.056,0,40,17.944,40,40c0,22.056-17.944,40-40,40c-22.056,0-40-17.944-40-40C384.215,162.375,402.16,144.431,424.215,144.431z      M416.215,240.431v32h-32v-32H416.215z M384.215,224.431v-0.88c0.288,0.296,0.584,0.592,0.88,0.88H384.215z M51.767,43.935     c-6.696-1.192-11.552-7.016-11.552-13.84c0-4.424,2-8.504,5.504-11.192c2.48-1.904,5.432-2.896,8.464-2.896     c1.2,0,2.424,0.16,3.624,0.48c33.568,8.944,102.936,23.944,190.408,23.944s156.84-15,190.408-23.952     c4.232-1.128,8.624-0.232,12.088,2.416c3.504,2.696,5.504,6.768,5.504,11.2c0,6.832-4.856,12.656-11.552,13.84     c-6.912,1.232-16.048,2.792-26.712,4.496h-1.736v0.272c-42.824,6.8-110.072,15.728-168,15.728     c-57.928,0-125.184-8.936-168-15.728v-0.272h-1.728C67.815,46.727,58.679,45.167,51.767,43.935z M160.215,480.431h-32v-368h32     V480.431z M320.215,320.431h-144v-32h144V320.431z M320.215,272.431h-144v-32h144V272.431z M176.215,224.431v-112h16v112H176.215     z M208.215,224.431v-112h80v112H208.215z M320.215,224.431h-16v-112h16V224.431z M368.215,480.431h-32v-368h32V480.431z      M320.215,96.431h-144h-64h-32V64.903c43.456,6.824,110.16,15.528,168,15.528c57.832,0,124.544-8.704,168-15.528v31.528h-32     H320.215z M480.215,480.431h-32v-144h32V480.431z M480.215,320.431h-96v-32h48h48V320.431z"/>
			<rect x="224.215" y="128.431" width="16" height="16"/>
			<rect x="256.215" y="128.431" width="16" height="16"/>
		</g>
	</g>
</g>
<g>
</g>
<g>
</g>
<g>
</g>
<g>
</g>
<g>
</g>
<g>
</g>
<g>
</g>
<g>
</g>
<g>
</g>
<g>
</g>
<g>
</g>
<g>
</g>
<g>
</g>
<g>
</g>
<g>
</g>
</svg>
