<?xml version="1.0" encoding="iso-8859-1"?>
<!-- Generator: Adobe Illustrator 19.0.0, SVG Export Plug-In . SVG Version: 6.00 Build 0)  -->
<svg xmlns="http://www.w3.org/2000/svg" xmlns:xlink="http://www.w3.org/1999/xlink" version="1.1" id="Capa_1" x="0px" y="0px" viewBox="0 0 496 496" style="enable-background:new 0 0 496 496;" xml:space="preserve">
<g>
	<g>
		<path d="M456,64H288V40c0-22.056-17.944-40-40-40H40C17.944,0,0,17.944,0,40v352c0,22.056,17.944,40,40,40h168v24    c0,22.056,17.944,40,40,40h208c22.056,0,40-17.944,40-40V104C496,81.944,478.056,64,456,64z M287.992,80h168    c13.232,0,24,10.768,24,24v173.888c-19.936-43.112-53.544-87.904-71.296-110.144c-6.496-8.128-15.592-13.376-25.624-15.08    C379.728,138.552,367.112,128,352,128s-27.728,10.552-31.072,24.664c-10.032,1.704-19.136,6.952-25.632,15.08    c-2.464,3.088-4.88,6.232-7.304,9.368V80z M368,160c0,8.824-7.176,16-16,16c-8.824,0-16-7.176-16-16c0-8.824,7.176-16,16-16    C360.824,144,368,151.176,368,160z M329.44,182.664c-3.776,2.456-7.176,5.536-10.04,9.2c-8.576,10.968-19.92,26.232-31.4,43.664    v-31.84c6.368-8.712,13.008-17.44,19.808-25.96c3.52-4.416,8.312-7.408,13.616-8.8C322.96,174.168,325.664,178.912,329.44,182.664    z M16,40c0-13.232,10.768-24,24-24h208c13.232,0,24,10.768,24,24v173.888c-19.944-43.112-53.552-87.904-71.304-110.144    c-6.496-8.128-15.592-13.376-25.624-15.08C171.728,74.552,159.112,64,144,64s-27.728,10.552-31.072,24.664    c-10.032,1.704-19.136,6.952-25.632,15.08C69.552,125.984,35.936,170.776,16,213.888V40z M272,272v38.528    c-9.288-3.312-16-12.112-16-22.528c0-52.808-55.528-129.576-79.4-160.136c-2.864-3.664-6.264-6.744-10.04-9.2    c3.776-3.752,6.48-8.496,8.016-13.736c5.304,1.392,10.088,4.392,13.616,8.8C207.848,138.36,272,222.56,272,272z M160,96    c0,8.824-7.176,16-16,16c-8.824,0-16-7.176-16-16s7.176-16,16-16C152.824,80,160,87.176,160,96z M16,272    c0-49.44,64.152-133.64,83.808-158.272c3.528-4.408,8.312-7.408,13.616-8.8c1.536,5.24,4.24,9.984,8.016,13.736    c-3.776,2.456-7.176,5.536-10.04,9.2C87.528,158.424,32,235.192,32,288c0,10.416-6.712,19.216-16,22.528V272z M40,416    c-13.232,0-24-10.768-24-24v-64.808c18.232-3.72,32-19.88,32-39.192c0-49.168,58.176-127.464,76.008-150.288    C128.832,131.536,136.12,128,144,128s15.168,3.536,19.992,9.712C181.824,160.536,240,238.832,240,288    c0,19.312,13.768,35.472,32,39.192V392c0,13.232-10.768,24-24,24H40z M480,456c0,13.232-10.768,24-24,24H248    c-13.232,0-24-10.768-24-24v-24h24c22.056,0,40-17.944,40-40V265.688c16.072-27.176,34.392-51.656,44.008-63.976    C336.832,195.536,344.12,192,352,192s15.168,3.536,19.992,9.712C389.824,224.536,448,302.832,448,352    c0,19.312,13.768,35.472,32,39.192V456z M480,374.528c-9.288-3.312-16-12.112-16-22.528c0-52.808-55.528-129.576-79.4-160.136    c-2.864-3.664-6.264-6.744-10.04-9.2c3.776-3.752,6.48-8.496,8.016-13.736c5.304,1.392,10.088,4.392,13.616,8.8    C415.848,202.36,480,286.56,480,336V374.528z"/>
	</g>
</g>
<g>
</g>
<g>
</g>
<g>
</g>
<g>
</g>
<g>
</g>
<g>
</g>
<g>
</g>
<g>
</g>
<g>
</g>
<g>
</g>
<g>
</g>
<g>
</g>
<g>
</g>
<g>
</g>
<g>
</g>
</svg>
