<?xml version="1.0" encoding="iso-8859-1"?>
<!-- Generator: Adobe Illustrator 19.0.0, SVG Export Plug-In . SVG Version: 6.00 Build 0)  -->
<svg xmlns="http://www.w3.org/2000/svg" xmlns:xlink="http://www.w3.org/1999/xlink" version="1.1" id="Capa_1" x="0px" y="0px" viewBox="0 0 496.32 496.32" style="enable-background:new 0 0 496.32 496.32;" xml:space="preserve">
<g>
	<g>
		<g>
			<path d="M196.32,168.16c-11.024,0-20,8.976-20,20s8.976,20,20,20s20-8.976,20-20S207.344,168.16,196.32,168.16z M196.32,192.16     c-2.208,0-4-1.792-4-4s1.792-4,4-4s4,1.792,4,4S198.528,192.16,196.32,192.16z"/>
			<path d="M300.32,168.16c-11.024,0-20,8.976-20,20s8.976,20,20,20s20-8.976,20-20S311.344,168.16,300.32,168.16z M300.32,192.16     c-2.208,0-4-1.792-4-4s1.792-4,4-4s4,1.792,4,4S302.528,192.16,300.32,192.16z"/>
			<path d="M486.96,185.2c-12.48-12.48-32.776-12.48-45.256,0l-67.888,67.888l-2.144-2.144     c12.256-6.848,20.648-19.784,20.648-34.784c0-9.04-3.128-17.296-8.208-24h0.208v-56c0-74.992-61.008-136-136-136     s-136,61.008-136,136v56h0.208c-5.08,6.704-8.208,14.96-8.208,24c0,14.912,8.304,27.792,20.432,34.672l-2.256,2.256L54.616,185.2     c-12.48-12.48-32.776-12.48-45.256,0c-12.48,12.48-12.48,32.784,0,45.256l67.88,67.888l-22.624,22.624     c-4.536,4.528-7.032,10.56-7.032,16.968c0,6.416,2.496,12.448,7.024,16.968c4.536,4.528,10.56,7.032,16.976,7.032     c6.416,0,12.44-2.496,16.968-7.032l22.624-22.624l17.624,17.624c-26.832,11.032-48.168,33.624-56.992,61.872L45.44,496.16H451.2     l-26.376-84.392c-8.848-28.328-30.28-50.968-57.216-61.968l17.528-17.528l22.624,22.624c4.536,4.528,10.56,7.032,16.976,7.032     s12.44-2.496,16.968-7.024c4.536-4.528,7.032-10.56,7.032-16.976c0-6.408-2.496-12.44-7.032-16.968l-22.624-22.624l67.88-67.888     C499.44,217.984,499.44,197.68,486.96,185.2z M376.32,216.16c0,10.536-6.872,19.416-16.336,22.632     c0.128-2.208,0.336-4.392,0.336-6.632v-38.528C369.608,196.944,376.32,205.744,376.32,216.16z M128.32,136.16     c0-66.168,53.832-120,120-120c66.168,0,120,53.832,120,120v43.392c-2.544-1.12-5.208-2.016-8-2.584v-8.808     c0-17.648-14.352-32-32-32h-160c-17.648,0-32,14.352-32,32v8.808c-2.792,0.568-5.456,1.464-8,2.584V136.16z M248.32,328.16     c-50.704,0-92.24-39.536-95.664-89.384l65.352-11.88c19.92-3.632,40.672-3.632,60.624,0l65.352,11.88     C340.56,288.624,299.024,328.16,248.32,328.16z M288.32,336.648v4.2l-40,40l-40-40v-4.2c12.44,4.784,25.896,7.512,40,7.512     C262.424,344.16,275.88,341.432,288.32,336.648z M281.496,211.152c-21.832-3.968-44.544-3.968-66.352,0l-62.824,11.424V168.16     c0-8.824,7.176-16,16-16h160c8.824,0,16,7.176,16,16v54.416L281.496,211.152z M120.32,216.16c0-10.416,6.712-19.216,16-22.528     v38.528c0,2.24,0.208,4.424,0.336,6.632C127.192,235.576,120.32,226.696,120.32,216.16z M111.184,264.392l-22.632,22.632     L77.24,275.712l22.632-22.632L111.184,264.392z M20.672,196.512c6.24-6.232,16.392-6.232,22.632,0l-22.632,22.632     C14.432,212.904,14.44,202.752,20.672,196.512z M31.976,230.448l22.632-22.632l11.32,11.32l-22.632,22.632L31.976,230.448z      M65.928,264.4l-11.312-11.312l22.624-22.632l11.312,11.312L65.928,264.4z M77.24,343.592c-3.016,3.032-8.28,3.04-11.312-0.008     c-1.504-1.504-2.336-3.504-2.336-5.648c0-2.136,0.832-4.144,2.344-5.656l73.672-73.672c1.432,5.88,3.208,11.624,5.528,17.096     L77.24,343.592z M122.496,320.96l22.632-22.632l40.064,40.064l-34.168,5.256c-1.648,0.256-3.272,0.6-4.896,0.936L122.496,320.96z      M145.384,480.16l6.872-55.008l-15.872-1.984l-7.128,56.992H67.2l19.888-63.624c9.336-29.896,35.392-52.304,66.36-57.072     l44.088-6.784l127.472,127.48H145.384z M409.552,416.536l19.888,63.624h-62.056l-7.128-56.992l-15.872,1.984l6.872,55.008h-3.624     l-88-88l39.48-39.48l44.088,6.784C374.16,364.232,400.216,386.64,409.552,416.536z M350.248,344.536     c-1.536-0.312-3.064-0.64-4.624-0.88l-34.448-5.296l40.016-40.024l22.632,22.632L350.248,344.536z M430.384,332.272     c1.52,1.52,2.352,3.528,2.352,5.664c0,2.144-0.832,4.144-2.344,5.656c-3.016,3.032-8.288,3.032-11.312,0l-67.672-67.672     c2.328-5.464,4.12-11.192,5.56-17.064L430.384,332.272z M407.768,287.04l-22.632-22.64l11.312-11.312l22.632,22.632     L407.768,287.04z M430.392,264.392L407.76,241.76l11.312-11.312l22.632,22.632L430.392,264.392z M453.024,241.776l-22.632-22.632     l11.312-11.312l22.632,22.632L453.024,241.776z M475.648,219.144l-22.632-22.632c6.248-6.232,16.392-6.232,22.632,0     C481.88,202.752,481.888,212.904,475.648,219.144z"/>
			<rect x="224.32" y="104.16" width="48" height="16"/>
			<rect x="288.32" y="104.16" width="16" height="16"/>
			<rect x="192.32" y="104.16" width="16" height="16"/>
		</g>
	</g>
</g>
<g>
</g>
<g>
</g>
<g>
</g>
<g>
</g>
<g>
</g>
<g>
</g>
<g>
</g>
<g>
</g>
<g>
</g>
<g>
</g>
<g>
</g>
<g>
</g>
<g>
</g>
<g>
</g>
<g>
</g>
</svg>
