<?xml version="1.0" encoding="iso-8859-1"?>
<!-- Generator: Adobe Illustrator 19.0.0, SVG Export Plug-In . SVG Version: 6.00 Build 0)  -->
<svg xmlns="http://www.w3.org/2000/svg" xmlns:xlink="http://www.w3.org/1999/xlink" version="1.1" id="Capa_1" x="0px" y="0px" viewBox="0 0 496 496" style="enable-background:new 0 0 496 496;" xml:space="preserve">
<g>
	<g>
		<g>
			<path d="M495.28,256c-2.448-14.48-11.36-26.768-23.704-33.76c0.272-2.064,0.424-4.144,0.424-6.24     c0-20.92-13.464-38.704-32.168-45.264c0.032-0.912,0.168-1.832,0.168-2.736v-17.136c13.768-3.576,24-16,24-30.864     C464,85.688,443.424,8.176,261.376,0.648l-0.064-0.184c-0.144,0.056-0.288,0.112-0.432,0.16C251.632,0.248,242.096,0,232,0     C22.608,0,0,83.92,0,120c0,14.864,10.232,27.288,24,30.864V168c0,39.696,32.296,72,72,72h54.496     c-2.824,4.864-4.8,10.256-5.768,16H144v240h352V256H495.28z M478.864,256h-61.728c3.576-13.76,15.992-24,30.864-24     S475.288,242.24,478.864,256z M456,216c0,0.24-0.04,0.472-0.048,0.712C453.36,216.28,450.712,216,448,216     c-8.56,0-16.592,2.28-23.56,6.224c-0.272-0.432-0.6-0.824-0.896-1.248C423.728,219.32,424,217.68,424,216     c0-11.408-4.016-21.888-10.688-30.136c3.4-1.2,6.984-1.864,10.688-1.864C441.648,184,456,198.352,456,216z M440.584,87.44     c-15.624-1.024-30.248-0.024-43.432,3.232l3.84,15.528c13.432-3.32,28.68-4.08,45.304-2.32C447.384,108.968,448,114.32,448,120     c0,8.824-7.176,16-16,16h-5.92c-3.2,0-6.496-1.088-9.52-3.136c-8.064-5.472-23.272-9.896-44.952-13.248     c4.104-3.024,9.176-6.144,15.592-8.856l-6.216-14.744c-15.28,6.456-24.944,14.976-30.352,20.904     c-18.048-1.912-39.28-3.28-63.624-4.08c15.56-18.872,54.808-55.232,125.688-56.552C424.672,64.784,434.408,75.032,440.584,87.44z      M387.544,42.192c-74.992,9.992-111.12,56.472-120.168,70.136C256.144,112.112,244.352,112,232,112     c-8.728,0-17.072,0.072-25.24,0.184c16.672-22.896,60.648-72.472,135.416-84.744C357.944,31.088,373.44,35.904,387.544,42.192z      M263.264,16.872c12.184,0.664,26.032,1.816,40.52,3.72C233.048,44.784,196.056,98.144,187.12,112.56     c-20.464,0.52-38.952,1.416-55.312,2.68C143.528,96.216,180.344,47.48,263.264,16.872z M32,136c-8.824,0-16-7.176-16-16     c0-53.904,51.6-80.024,105.976-92.592c-2.824,2.056-5.656,4.112-8.376,6.296l10.032,12.464     c12.984-10.448,27.376-19.264,42.76-26.336c22.632-2.68,43.208-3.552,57.872-3.76C140,57.336,113.896,114.048,112.688,116.752     l0.44,0.192c-21.216,2.256-38.048,5.264-50.064,9.016c7.808-17.952,22.768-45.176,49.136-69.864l-10.936-11.68     c-37.84,35.432-53.824,75.24-58.984,90.864c-1.448,0.432-2.912,0.72-4.36,0.72H32z M96,224c-30.872,0-56-25.12-56-56v-16.168     c5.72-0.392,11.368-2.296,16.432-5.736C62.688,141.848,93.832,128,232,128s169.312,13.848,175.568,18.096     c5.064,3.448,10.712,5.344,16.432,5.736V168c-8.544,0-16.688,2.312-23.952,6.528C392.968,170.4,384.768,168,376,168     s-16.968,2.4-24.048,6.528C344.68,170.312,336.544,168,328,168c-8.728,0-16.888,2.376-23.952,6.464     C296.784,170.256,288.48,168,280,168c-12.768,0-24.616,4.96-33.528,13.728C239.704,178.112,232.056,176,224,176     c-24.672,0-45.032,18.712-47.688,42.688c-3.832,1.328-7.464,3.104-10.792,5.312H96z M328,232c14.872,0,27.288,10.24,30.864,24     h-61.728C300.712,242.24,313.128,232,328,232z M296.136,214.624C296.872,197.632,310.824,184,328,184     c3.704,0,7.288,0.664,10.688,1.864C332.016,194.112,328,204.592,328,216c-8.16,0-15.848,2.056-22.584,5.664     C302.608,218.936,299.496,216.584,296.136,214.624z M345.608,219.392c-0.464-0.184-0.944-0.352-1.416-0.52     C344.112,217.92,344,216.96,344,216c0-17.648,14.352-32,32-32c13.936,0,25.696,9.008,30.08,21.464     C399.384,201.992,391.88,200,384,200C368.72,200,354.568,207.424,345.608,219.392z M384,216c11.72,0,22.288,6.384,27.904,16.464     C406.184,239,402.232,247.08,400.72,256h-25.44c-1.896-11.232-7.68-21.136-15.952-28.288C365.328,220.448,374.336,216,384,216z      M193.112,216.056c3.56-13.792,16-24.056,30.888-24.056c13.064,0,24.624,8.016,29.512,19.712     c-10.416,4.36-18.944,12.304-24.12,22.264C220.808,223.304,207.768,216.392,193.112,216.056z M222.864,256h-61.728     c3.576-13.76,15.992-24,30.864-24S219.288,242.24,222.864,256z M272,224c7.616,0,14.952,2.76,20.688,7.6     c-6.136,6.68-10.392,15.08-11.96,24.4H240C240,238.352,254.352,224,272,224z M259.296,191.632     C265.024,186.744,272.256,184,280,184c3.672,0,7.28,0.656,10.688,1.864c-5.248,6.488-8.808,14.376-10.096,23     c-2.824-0.512-5.68-0.864-8.592-0.864c-0.952,0-1.88,0.088-2.824,0.144C266.992,201.928,263.632,196.344,259.296,191.632z      M480,480H160V272h320V480z"/>
			<rect x="184" y="296" width="16" height="16"/>
			<rect x="232" y="352" width="16" height="16"/>
			<rect x="304" y="328" width="16" height="16"/>
			<rect x="392" y="304" width="16" height="16"/>
			<rect x="440" y="368" width="16" height="16"/>
			<rect x="344" y="416" width="16" height="16"/>
			<rect x="272" y="440" width="16" height="16"/>
			<rect x="208" y="408" width="16" height="16"/>
			<rect x="416" y="440" width="16" height="16"/>
		</g>
	</g>
</g>
<g>
</g>
<g>
</g>
<g>
</g>
<g>
</g>
<g>
</g>
<g>
</g>
<g>
</g>
<g>
</g>
<g>
</g>
<g>
</g>
<g>
</g>
<g>
</g>
<g>
</g>
<g>
</g>
<g>
</g>
</svg>
