<?xml version="1.0" encoding="iso-8859-1"?>
<!-- Generator: Adobe Illustrator 19.0.0, SVG Export Plug-In . SVG Version: 6.00 Build 0)  -->
<svg xmlns="http://www.w3.org/2000/svg" xmlns:xlink="http://www.w3.org/1999/xlink" version="1.1" id="Capa_1" x="0px" y="0px" viewBox="0 0 496 496" style="enable-background:new 0 0 496 496;" xml:space="preserve">
<g>
	<g>
		<g>
			<path d="M184,344h-64v56h64V344z M168,384h-32v-24h32V384z"/>
			<path d="M376,344h-64v56h64V344z M360,384h-32v-24h32V384z"/>
			<path d="M280,344h-64v56h64V344z M264,384h-32v-24h32V384z"/>
			<path d="M448,416h-16v-88h41.992L408,283.128V224h49.504L368,161.736V120h50.424L256,11.72V0h-16v11.72L77.576,120H128v41.736     L38.496,224H88v59.128L22.008,328H64v88H48H0v32v16v32h96h16h80h16h80h16h80h16h96v-32v-16v-32H448z M248,25.616L365.576,104     h-27.248L248,46.512L157.664,104h-27.248L248,25.616z M187.48,104L248,65.488L308.528,104h-23.512L248,78.256L210.992,104H187.48     z M187.992,120L144,150.6V120H187.992z M352,120v30.6L308.008,120H352z M248,97.744L406.496,208h-35.864l-122.48-89.816     L117.512,208H89.504L248,97.744z M392,224v48.248L321.056,224H392z M297.52,208L280,196.088v-34.696L343.56,208H297.52z      M227.216,152l20.64-14.184L267.2,152H227.216z M264,168v17.208l-16-10.88l-16,10.88V168H264z M145.76,208L216,159.712v36.376     L198.48,208H145.76z M174.944,224L104,272.248V224H174.944z M248,193.672L422.008,312h-27.56L248,213.04L101.552,312h-27.56     L248,193.672z M328,328v-16h-16v-32h6.52l47.36,32H344v16h72v88h-64h-16h-80h-16h-80h-16H80v-88H328z M130.128,312l47.352-32H184     v32H130.128z M201.16,264L248,232.352L294.84,264H201.16z M296,280v32h-40v-32H296z M240,280v32h-40v-32H240z M16,432h32v16H16     V432z M96,480H16v-16h32h16h32V480z M96,448H64v-16h80v16h-32H96z M192,480h-80v-16h32h16h32V480z M192,448h-32v-16h80v16h-32     H192z M288,480h-80v-16h32h16h32V480z M288,448h-32v-16h80v16h-32H288z M384,480h-80v-16h32h16h32V480z M384,448h-32v-16h80v16     h-32H384z M480,480h-80v-16h32h16h32V480z M480,448h-32v-16h32V448z"/>
		</g>
	</g>
</g>
<g>
</g>
<g>
</g>
<g>
</g>
<g>
</g>
<g>
</g>
<g>
</g>
<g>
</g>
<g>
</g>
<g>
</g>
<g>
</g>
<g>
</g>
<g>
</g>
<g>
</g>
<g>
</g>
<g>
</g>
</svg>
